<svg id="a4903061-0e52-4524-8d2c-ba323328b5f1" data-name="Ebene 1" xmlns="http://www.w3.org/2000/svg" viewBox="0 0 400 140"><defs><style>.efe61af7-57d7-43d0-9d99-4c2d4be8b062{fill:#fff;}.f7df3e3c-00ac-470d-9ff9-9ed2bb2a8bfa{fill:#b20230;}</style></defs><rect class="efe61af7-57d7-43d0-9d99-4c2d4be8b062" width="400" height="140"/><path d="M178,103a22,22,0,0,1-9.54-2.15,20.62,20.62,0,0,1-6.6-4.81,1.16,1.16,0,0,1,.14-1.65L165.91,91a1.18,1.18,0,0,1,1.59.07q4.89,4.78,10.65,4.79a11.61,11.61,0,0,0,6.3-1.51,4.9,4.9,0,0,0,2.37-4.42,5.57,5.57,0,0,0-1.73-4,12.71,12.71,0,0,0-3.56-2.65q-1.83-.87-5.39-2.23c-4.74-1.77-8.34-3.75-10.77-5.94a11.11,11.11,0,0,1-3.65-8.67,10.67,10.67,0,0,1,4.43-9,18.23,18.23,0,0,1,11.27-3.33,19.52,19.52,0,0,1,14.89,6.13,1.15,1.15,0,0,1-.12,1.67l-3.74,3.12a1.19,1.19,0,0,1-1.56-.06,13.66,13.66,0,0,0-9.56-3.74,10.26,10.26,0,0,0-5.66,1.37,4.32,4.32,0,0,0-2.1,3.83,4.82,4.82,0,0,0,.68,2.51,6.56,6.56,0,0,0,2.47,2.15c1.18.67,2.13,1.17,2.83,1.5s2,.87,3.88,1.6q7.38,2.66,11.27,6t3.88,9.5a11.7,11.7,0,0,1-4.48,9.72Q185.63,103,178,103Z"/><path d="M207.66,45.33a4.93,4.93,0,0,1-3.56,1.41,4.69,4.69,0,0,1-3.51-1.46A5.16,5.16,0,0,1,199.42,40a2.15,2.15,0,0,1,.24-.56A5.09,5.09,0,0,1,205.91,37a2,2,0,0,1,.57.27,5.28,5.28,0,0,1,2.64,4.57A4.69,4.69,0,0,1,207.66,45.33ZM200.18,100V57.13a1.9,1.9,0,0,1,1.9-1.9h4.14a1.9,1.9,0,0,1,1.9,1.9V100a1.9,1.9,0,0,1-1.9,1.9h-4.14A1.9,1.9,0,0,1,200.18,100Z"/><path d="M232,120.15l-2.44-4a1.16,1.16,0,0,1,.9-1.77c5.72-.47,9.76-1.6,12.09-3.38a9.62,9.62,0,0,0,3.88-8.08v-2.67a1.15,1.15,0,0,0-1.94-.82A14.5,14.5,0,0,1,234.37,103a17.16,17.16,0,0,1-13.64-6.39q-5.43-6.39-5.43-18.07,0-11.31,5.34-17.84a17.22,17.22,0,0,1,14-6.53,15.54,15.54,0,0,1,9.9,3.18,1.16,1.16,0,0,0,1.87-.92h0a1.16,1.16,0,0,1,1.16-1.16h5.61a1.16,1.16,0,0,1,1.17,1.16V100q0,10.68-5.71,15.42-5.51,4.59-15.57,5.34A1.19,1.19,0,0,1,232,120.15Zm4-24.58a11,11,0,0,0,5.8-1.78,13.46,13.46,0,0,0,4.44-4.5,1.27,1.27,0,0,0,.17-.63V68a1.15,1.15,0,0,0-.19-.65,12.66,12.66,0,0,0-4.47-4.17A11.49,11.49,0,0,0,236,61.43q-6.19,0-9.44,4.43T223.33,78.5q0,7.94,3.51,12.5A11,11,0,0,0,236,95.57Z"/><path d="M291.72,101.86a1.16,1.16,0,0,1-1.17-1.16v-27q0-6.28-2.69-9.26a9.42,9.42,0,0,0-7.35-3q-10.77,0-10.77,12.05V100.7a1.16,1.16,0,0,1-1.16,1.16H263a1.16,1.16,0,0,1-1.17-1.16V56.39A1.16,1.16,0,0,1,263,55.23h5.61a1.16,1.16,0,0,1,1.16,1.16v.54a1.16,1.16,0,0,0,1.95.85,14.36,14.36,0,0,1,10.1-3.65q8.22,0,12.46,5T298.49,75V100.7a1.16,1.16,0,0,1-1.16,1.16Z"/><path d="M9.83,41.23A3.17,3.17,0,0,1,13,38.06H33.38a35.51,35.51,0,0,1,14.23,2.69,24.68,24.68,0,0,1,9.82,7.3,32.54,32.54,0,0,1,5.38,10.18A38.29,38.29,0,0,1,64.59,70a39.87,39.87,0,0,1-1,8.9,32.78,32.78,0,0,1-3.38,8.58,28.09,28.09,0,0,1-5.93,7.39,27.56,27.56,0,0,1-9,5.11,36,36,0,0,1-12.23,2H13a3.17,3.17,0,0,1-3.17-3.17ZM34.47,88.71q7.85,0,11.77-5.61A22.28,22.28,0,0,0,50.17,70a23,23,0,0,0-3.79-13.14,12.33,12.33,0,0,0-10.9-5.66H26.87a3.17,3.17,0,0,0-3.17,3.17V85.54a3.17,3.17,0,0,0,3.17,3.17Z"/><path d="M73.21,98.77V41.23a3.17,3.17,0,0,1,3.17-3.17h7.54a3.17,3.17,0,0,1,3.17,3.17V98.77a3.17,3.17,0,0,1-3.17,3.17H76.38A3.17,3.17,0,0,1,73.21,98.77Z"/><path d="M96.71,41.23a3.17,3.17,0,0,1,3.17-3.17h20.38a35.51,35.51,0,0,1,14.23,2.69,24.68,24.68,0,0,1,9.82,7.3,32.54,32.54,0,0,1,5.38,10.18A38.29,38.29,0,0,1,151.47,70a39.87,39.87,0,0,1-1,8.9,32.78,32.78,0,0,1-3.38,8.58,28.09,28.09,0,0,1-5.93,7.39,27.56,27.56,0,0,1-9,5.11,36,36,0,0,1-12.23,2h-20a3.17,3.17,0,0,1-3.17-3.17Zm24.64,47.48q7.84,0,11.78-5.61A22.35,22.35,0,0,0,137.05,70a23,23,0,0,0-3.79-13.14,12.33,12.33,0,0,0-10.9-5.66h-8.61a3.17,3.17,0,0,0-3.17,3.17V85.54a3.17,3.17,0,0,0,3.17,3.17Z"/><path class="f7df3e3c-00ac-470d-9ff9-9ed2bb2a8bfa" d="M387,66.16A3.17,3.17,0,0,0,390.17,63V42.61a35.6,35.6,0,0,0-2.69-14.24,24.71,24.71,0,0,0-7.3-9.81A32.44,32.44,0,0,0,370,13.18a38.33,38.33,0,0,0-11.77-1.78,39.23,39.23,0,0,0-8.9,1,32.78,32.78,0,0,0-8.58,3.38,28.09,28.09,0,0,0-7.39,5.93,27.18,27.18,0,0,0-5.11,9,36,36,0,0,0-2,12.23V63a3.17,3.17,0,0,0,3.17,3.17h21.84v7.68H329.45A3.17,3.17,0,0,0,326.28,77V97a36,36,0,0,0,2,12.23,27.18,27.18,0,0,0,5.11,9,28.09,28.09,0,0,0,7.39,5.93,32.78,32.78,0,0,0,8.58,3.38,39.23,39.23,0,0,0,8.9,1A38.33,38.33,0,0,0,370,126.82a32.44,32.44,0,0,0,10.18-5.38,24.71,24.71,0,0,0,7.3-9.81,35.6,35.6,0,0,0,2.69-14.24V77A3.17,3.17,0,0,0,387,73.84H365.16V66.16ZM373.86,87.72A3.16,3.16,0,0,1,377,90.88v8.61a12.35,12.35,0,0,1-5.66,10.91,23.11,23.11,0,0,1-13.14,3.78,22.32,22.32,0,0,1-13.1-3.92q-5.61-3.93-5.61-11.77V90.88a3.16,3.16,0,0,1,3.17-3.16h8.6v11a3.17,3.17,0,0,0,3.17,3.17H362a3.17,3.17,0,0,0,3.17-3.17v-11ZM342.69,52.28a3.16,3.16,0,0,1-3.17-3.16V41.51q0-7.84,5.61-11.77a22.32,22.32,0,0,1,13.1-3.92,23.11,23.11,0,0,1,13.14,3.78A12.35,12.35,0,0,1,377,40.51v8.61a3.16,3.16,0,0,1-3.17,3.16h-8.7V41.23A3.17,3.17,0,0,0,362,38.06h-7.53a3.17,3.17,0,0,0-3.17,3.17V52.28Z"/></svg>