<svg id="ed892a54-53e8-4ba4-9747-e8c35f1f9bb9" data-name="Ebene 1" xmlns="http://www.w3.org/2000/svg" viewBox="0 0 330 177"><defs><style>.faedaeb6-8ee6-4a15-8761-73fa3ed84df9{fill:#fff;}.ed67b785-325a-477f-9e9e-f67c75fb31da{fill:#bb294b;}.b69e0db1-63f0-4b33-b46c-bf5501dbd909{fill:#e43366;}.e9f984d4-79b9-4c78-be05-c4ef70f4c529{opacity:0.85;}.f69e35a4-95d6-412f-bc13-69338e1080e4{fill:#d3245e;}</style></defs><path class="faedaeb6-8ee6-4a15-8761-73fa3ed84df9" d="M37.42,42.58a27.69,27.69,0,0,1,5.56.57q1.56.33,3,.78a2.11,2.11,0,0,1,1.23,2.92v0L47,47.3a2.11,2.11,0,0,1-2.56,1l-.23-.07A20.06,20.06,0,0,0,42,47.69q-1.14-.24-2.34-.39a17.19,17.19,0,0,0-2.35-.16,11.36,11.36,0,0,0-2.42.26,6,6,0,0,0-2.06.83,4.31,4.31,0,0,0-1.44,1.5,4.55,4.55,0,0,0-.54,2.32,4.38,4.38,0,0,0,.61,2.39A5.06,5.06,0,0,0,33.15,56a11.18,11.18,0,0,0,2.46,1.09c.93.29,1.93.56,3,.81a44.88,44.88,0,0,1,4.6,1.37,12.74,12.74,0,0,1,3.69,2,8.52,8.52,0,0,1,2.44,3,10.07,10.07,0,0,1,.88,4.43,9.3,9.3,0,0,1-4.08,8.07,13.24,13.24,0,0,1-4.38,1.93,21.86,21.86,0,0,1-5.35.62,27,27,0,0,1-3.06-.18c-1.05-.13-2.09-.31-3.11-.54a30.93,30.93,0,0,1-3-.87c-.23-.07-.46-.15-.68-.24a2.1,2.1,0,0,1-1.16-2.92l0-.07.19-.37a2.13,2.13,0,0,1,2.59-1c.23.09.46.16.69.24a23.75,23.75,0,0,0,2.57.73c.88.2,1.75.37,2.6.49a17.91,17.91,0,0,0,2.47.19,12.64,12.64,0,0,0,2.9-.34,7.81,7.81,0,0,0,2.5-1.07,5.26,5.26,0,0,0,2.42-4.65,4.54,4.54,0,0,0-.63-2.5A5.14,5.14,0,0,0,42,64.59a10.42,10.42,0,0,0-2.45-1.09c-.94-.28-1.93-.54-3-.79-1.58-.39-3.08-.83-4.49-1.32a13.46,13.46,0,0,1-3.69-2,9,9,0,0,1-2.5-3A9.48,9.48,0,0,1,25,52.05a8.45,8.45,0,0,1,1-4.26,8.54,8.54,0,0,1,2.72-2.95,12.7,12.7,0,0,1,4-1.71A19.62,19.62,0,0,1,37.42,42.58Z"/><path class="faedaeb6-8ee6-4a15-8761-73fa3ed84df9" d="M69.37,42.71a15.11,15.11,0,0,1,2.72.17,14.34,14.34,0,0,1,3.51,1,13.36,13.36,0,0,1,3.27,2,12.19,12.19,0,0,1,2.72,3.3,18.33,18.33,0,0,1,1.86,5A30,30,0,0,1,84.13,61a30.11,30.11,0,0,1-.68,6.89,17.66,17.66,0,0,1-1.86,4.92,12.15,12.15,0,0,1-2.72,3.35,12.73,12.73,0,0,1-3.27,2,14,14,0,0,1-3.51,1,15.06,15.06,0,0,1-2.7.21,14.95,14.95,0,0,1-6.07-1.18,12,12,0,0,1-6-5.35,18,18,0,0,1-1.87-4.92A30.64,30.64,0,0,1,54.83,61a30.67,30.67,0,0,1,.67-6.89,18.66,18.66,0,0,1,1.87-5,12.32,12.32,0,0,1,2.7-3.3,13.68,13.68,0,0,1,3.25-2,14.75,14.75,0,0,1,3.49-1A13.42,13.42,0,0,1,69.37,42.71Zm0,4.78a6.42,6.42,0,0,0-2.78.54,7,7,0,0,0-3,2.13,11.48,11.48,0,0,0-2.1,4.17,23.85,23.85,0,0,0-.78,6.7,24,24,0,0,0,.78,6.68,11,11,0,0,0,2.1,4.14,6.69,6.69,0,0,0,3,2.15,6.41,6.41,0,0,0,2.78.52,7.47,7.47,0,0,0,3-.54,6.93,6.93,0,0,0,3.06-2.15,11,11,0,0,0,2.08-4.15A24.31,24.31,0,0,0,78.24,61a24.37,24.37,0,0,0-.76-6.7,11.34,11.34,0,0,0-2.08-4.16,7.82,7.82,0,0,0-6-2.65Z"/><path class="faedaeb6-8ee6-4a15-8761-73fa3ed84df9" d="M114.41,75a2.37,2.37,0,0,1-1.62,3c-1.07.29-2.17.55-3.31.77a22.1,22.1,0,0,1-4.81.53,15,15,0,0,1-6.27-1.14,12.32,12.32,0,0,1-4.92-3.45,14.69,14.69,0,0,1-2.9-5.57,27.33,27.33,0,0,1-.94-7.52,26.39,26.39,0,0,1,1.16-8.16,16.13,16.13,0,0,1,3.39-6,14.21,14.21,0,0,1,5.41-3.67,15.73,15.73,0,0,1,6.49-1.2,13.85,13.85,0,0,1,3.34.37c.62.12,1.25.26,1.89.41a2.4,2.4,0,0,1,1.71,3l0,.1a2.4,2.4,0,0,1-2.93,1.6c-.35-.09-.7-.18-1-.25a7.51,7.51,0,0,0-2.31-.27c-3.83,0-6,1-8.09,3.26S95.52,56.46,95.52,61A31.73,31.73,0,0,0,96,66.58a11.16,11.16,0,0,0,1.62,4.23,7.48,7.48,0,0,0,3.18,2.66,9.11,9.11,0,0,0,4.39.85,13,13,0,0,0,3.5-.46c.89-.2,1.81-.43,2.76-.68a2.39,2.39,0,0,1,2.91,1.6Z"/><path class="faedaeb6-8ee6-4a15-8761-73fa3ed84df9" d="M178.52,24.92h-4.91a2.84,2.84,0,0,0-2.85,2.34,2.66,2.66,0,0,0,2.76,3.08h0A2.51,2.51,0,0,1,176,32.87C176,33,176,76,176,76a2.91,2.91,0,0,0,3.43,2.86,2.67,2.67,0,0,0,2.11-2.68V28A3.07,3.07,0,0,0,178.52,24.92Z"/><path class="faedaeb6-8ee6-4a15-8761-73fa3ed84df9" d="M165.71,60.29V51.54q0-5-3.28-7.14c-1.92-1.22-4.69-1.82-8.33-1.82a31.68,31.68,0,0,0-9.44,1.4,2.56,2.56,0,0,0-1.85,2.56A2.5,2.5,0,0,0,146,48.8a28,28,0,0,1,7.87-1.25,8,8,0,0,1,4.67,1.08,4.07,4.07,0,0,1,1.49,3.52v2.57a2.52,2.52,0,0,1-2.53,2.51h-.38q-8.16,0-12.69,2.47A12.47,12.47,0,0,0,140,63.52a10,10,0,0,0-1.57,5.82,9.52,9.52,0,0,0,2.87,7.39,10.87,10.87,0,0,0,7.62,2.62,30.41,30.41,0,0,0,11-1.89.49.49,0,0,1,.54,0,2.8,2.8,0,0,0,2.39,1.37A2.88,2.88,0,0,0,165.73,76V60.46C165.73,60.4,165.71,60.34,165.71,60.29Zm-8.57,13.4a34.61,34.61,0,0,1-7.16.69q-5.89,0-5.89-5.41a5.51,5.51,0,0,1,2-4.62A13.48,13.48,0,0,1,151.91,62a27.38,27.38,0,0,1,5.48-.51h.18A2.5,2.5,0,0,1,160.06,64V65h0v6.42C159.85,73.33,158.53,73.36,157.14,73.69Z"/><path class="faedaeb6-8ee6-4a15-8761-73fa3ed84df9" d="M128.57,43.05H123a2.57,2.57,0,0,0-2.63,2.57,2.72,2.72,0,0,0,2.79,2.55h0a2.52,2.52,0,0,1,2.51,2.53c0,.14,0,25.25,0,25.25a2.92,2.92,0,0,0,3,2.91,2.71,2.71,0,0,0,2.54-2.77V45.63A2.58,2.58,0,0,0,128.57,43.05Z"/><path class="faedaeb6-8ee6-4a15-8761-73fa3ed84df9" d="M128.35,35.72a3.45,3.45,0,0,0,3.4-3.47,3.49,3.49,0,0,0-1-2.47,3.44,3.44,0,0,0-2.41-1,3.52,3.52,0,0,0-2.48,1,3.37,3.37,0,0,0-1,2.47,3.2,3.2,0,0,0,1,2.44A3.37,3.37,0,0,0,128.35,35.72Z"/><g id="f9fcca41-8d94-46b7-bfac-6f9066130e4f" data-name="y9oIet.tif"><path class="faedaeb6-8ee6-4a15-8761-73fa3ed84df9" d="M25.49,119.91q0-13.66,0-27.33c0-.63,0-1.27,0-1.89.13-1.19.68-1.83,1.85-1.85q6-.07,12,0c1.19,0,1.75.72,1.79,2,0,1.78,0,3.56,0,5.35,0,3.64,0,7.29,0,10.93a7.36,7.36,0,0,0,.52,1.84,7.41,7.41,0,0,0,1.48-1.22c3.81-5.41,7.64-10.82,11.33-16.31a5.31,5.31,0,0,1,5.07-2.7c3.53.17,7.07.05,10.61.05.44,0,.89,0,1.34,0,1.84.08,2.32,1,1.26,2.55-1.45,2.11-3,4.15-4.5,6.23-3.55,5-7.32,9.74-10.83,14.72a3.19,3.19,0,0,0-.12,3.91c6.19,10.47,12.3,21,18.45,31.47,1.56,2.67,1.18,3.45-1.87,3.5-4,.06-8,0-12.07,0a4.26,4.26,0,0,1-4.16-2.54c-3.36-6.13-6.83-12.2-10.26-18.3-.1-.17-.19-.35-.3-.52a1.56,1.56,0,0,0-1.49-.64,1.67,1.67,0,0,0-1.19.87c-3.84,5.27-3.26,3.65-3.3,10,0,2.86,0,5.72,0,8.59a2.52,2.52,0,0,1-2.46,2.49c-3.45.08-6.9.1-10.35,0a2.91,2.91,0,0,1-2.84-2.91q0-14.16,0-28.33Z"/><path class="faedaeb6-8ee6-4a15-8761-73fa3ed84df9" d="M135.74,119.93c.08-4.53,0-9.06,1-13.54,2.45-11.2,10.48-18,22-18.45,4.72-.19,9.31.32,13.56,2.54,6.36,3.33,9.6,8.89,11,15.7.34,1.63-.34,2.4-2,2.42-3.39,0-6.78,0-10.16,0a2.89,2.89,0,0,1-2.86-2.19,8.13,8.13,0,0,0-10.76-4.83,7.63,7.63,0,0,0-4.79,5.37,19.26,19.26,0,0,0-1,5.23c-.08,5.61-.08,11.22.16,16.82a11.14,11.14,0,0,0,3.26,7.85c3.94,3.79,11.06,2.23,13-2.85,1-2.49,1.14-2.62,3.83-2.62,3.06,0,6.11,0,9.16,0,1.9,0,2.56.73,2.18,2.58-2.17,10.7-8.19,16.87-19.12,17.91a29.47,29.47,0,0,1-14-1.67C143.06,147.37,139,142,137,134.77c-1.2-4.43-1.22-9-1.26-13.5Z"/><path class="faedaeb6-8ee6-4a15-8761-73fa3ed84df9" d="M114.05,138.35c0,3.38,0,6.76,0,10.14,0,2-.48,2.59-2.47,2.63q-5.35.12-10.72,0c-1.91,0-2.42-.66-2.42-2.68,0-5.91-.12-11.82,0-17.73a16.56,16.56,0,0,0-2-8.24C91.16,112.41,86,102.27,80.71,92.15c-2-3.87-.32-3.54,7.48-3.12a36.37,36.37,0,0,0,5.71-.23,3.59,3.59,0,0,1,4.16,2.34q3.42,7.69,7,15.34a8.37,8.37,0,0,0,1.25,1.57,9,9,0,0,0,1.27-1.59c2.33-5.07,4.66-10.13,6.9-15.24a3.58,3.58,0,0,1,3.77-2.46c3.94.09,7.89,0,11.84,0a6.56,6.56,0,0,1,1.33.09c1.17.23,1.52,1.06.91,2.32-1,2.1-2.12,4.18-3.2,6.25-4.73,9.11-9.49,18.2-14.16,27.34a8.46,8.46,0,0,0-.83,3.52c-.1,3.34,0,6.69,0,10Z"/></g><polygon class="ed67b785-325a-477f-9e9e-f67c75fb31da" points="286.74 58.8 304.93 108.8 270.73 149.56 270.73 149.56 218.33 140.32 200.13 90.32 234.34 49.56 286.73 58.8 286.73 58.8 286.74 58.8"/><polygon class="b69e0db1-63f0-4b33-b46c-bf5501dbd909" points="286.74 58.8 304.93 108.8 252.53 99.56 234.34 49.56 286.73 58.8 286.73 58.8 286.74 58.8"/><g class="e9f984d4-79b9-4c78-be05-c4ef70f4c529"><polygon class="b69e0db1-63f0-4b33-b46c-bf5501dbd909" points="286.73 58.8 286.73 58.8 252.53 99.56 200.13 90.32 234.33 49.56 286.73 58.8"/></g><g class="e9f984d4-79b9-4c78-be05-c4ef70f4c529"><polygon class="f69e35a4-95d6-412f-bc13-69338e1080e4" points="286.73 58.8 304.93 108.8 270.73 149.56 270.73 149.56 252.53 99.56 286.73 58.8 286.73 58.8"/></g></svg>