<svg id="e9d47ef5-2936-49da-8d66-ac8e83b907d4" data-name="Ebene 1" xmlns="http://www.w3.org/2000/svg" viewBox="0 0 110 110"><defs><style>.e7141c94-2edf-4cdb-9a06-580bdfa69006{fill:#fff;}.afd2b1d3-edf4-41f2-b7f6-aeb8619a2e35{fill:#bb294b;}.b4471088-cc89-4428-88ba-dfbd2af3174b{fill:#e43366;}.f9e7ebf3-cc8f-4a73-bb73-296b9dd4c0df{opacity:0.85;}</style></defs><circle class="e7141c94-2edf-4cdb-9a06-580bdfa69006" cx="55" cy="55" r="54.5"/><path class="afd2b1d3-edf4-41f2-b7f6-aeb8619a2e35" d="M55,1A54,54,0,1,1,1,55,54.06,54.06,0,0,1,55,1m0-1a55,55,0,1,0,55,55A55,55,0,0,0,55,0Z"/><polygon class="afd2b1d3-edf4-41f2-b7f6-aeb8619a2e35" points="77.84 27.77 90 61.17 67.16 88.4 67.16 88.4 32.16 82.22 20 48.83 42.84 21.6 77.84 27.77 77.84 27.77 77.84 27.77"/><polygon class="b4471088-cc89-4428-88ba-dfbd2af3174b" points="77.84 27.77 90 61.17 55 55 42.84 21.6 77.84 27.77 77.84 27.77 77.84 27.77"/><g class="f9e7ebf3-cc8f-4a73-bb73-296b9dd4c0df"><polygon class="b4471088-cc89-4428-88ba-dfbd2af3174b" points="77.84 27.77 77.84 27.78 55 55 20 48.83 42.84 21.6 77.84 27.77"/></g><g class="f9e7ebf3-cc8f-4a73-bb73-296b9dd4c0df"><polygon class="b4471088-cc89-4428-88ba-dfbd2af3174b" points="77.84 27.77 90 61.17 67.16 88.4 67.15 88.4 55 55 77.84 27.78 77.84 27.77"/></g></svg>