<svg id="e7f8913b-6116-4fbc-a226-86e9493c3a18" data-name="Ebene 1" xmlns="http://www.w3.org/2000/svg" viewBox="0 0 100 100"><defs><style>.ee8baf5a-8c5f-46dd-b363-7dedd9a9d312{fill:#fff;}</style></defs><path class="ee8baf5a-8c5f-46dd-b363-7dedd9a9d312" d="M50.08,31.73a2.09,2.09,0,0,1,2.08,2A49.55,49.55,0,0,0,72.8,28.33a26,26,0,0,0-45.44,0A49.55,49.55,0,0,0,48,33.75,2.09,2.09,0,0,1,50.08,31.73Z"/><path class="ee8baf5a-8c5f-46dd-b363-7dedd9a9d312" d="M73.75,30.2a51.37,51.37,0,0,1-13.26,4.63V48.09a2.08,2.08,0,1,1-4.16,0V35.49c-1.38.16-2.76.29-4.17.35V50.18a2.08,2.08,0,0,1-4.16,0V35.84c-1.41-.06-2.79-.19-4.17-.35v12.6a2.08,2.08,0,1,1-4.16,0V34.83A51.37,51.37,0,0,1,26.41,30.2a26,26,0,1,0,47.34,0Z"/><path class="ee8baf5a-8c5f-46dd-b363-7dedd9a9d312" d="M21.54,85.1a4.27,4.27,0,0,1-1.74-.31,3.12,3.12,0,0,1-1.08-.71,1.12,1.12,0,0,1-.37-.65.4.4,0,0,1,.07-.21.61.61,0,0,1,.14-.17.28.28,0,0,1,.16-.07c.1,0,.19.07.3.2a4.92,4.92,0,0,0,.42.48,2.25,2.25,0,0,0,.75.47,3.41,3.41,0,0,0,1.27.2,3.2,3.2,0,0,0,1.38-.27,1.83,1.83,0,0,0,.86-.81,2.68,2.68,0,0,0,.3-1.32,2.61,2.61,0,0,0-.3-1.34,2.36,2.36,0,0,0-.76-.81,5.32,5.32,0,0,0-1-.52l-1.14-.4a5.71,5.71,0,0,1-1.05-.52,2.31,2.31,0,0,1-.77-.84,2.79,2.79,0,0,1-.3-1.38A2.85,2.85,0,0,1,19,74.7a2.48,2.48,0,0,1,.81-.86,3.16,3.16,0,0,1,1.06-.43,5.1,5.1,0,0,1,1.08-.12,4.84,4.84,0,0,1,.94.08,6.47,6.47,0,0,1,.84.2,2,2,0,0,1,.61.28.43.43,0,0,1,.22.33.37.37,0,0,1-.05.2.76.76,0,0,1-.12.19.3.3,0,0,1-.2.08.89.89,0,0,1-.38-.15,3.36,3.36,0,0,0-.7-.31,4.16,4.16,0,0,0-2.32,0,2,2,0,0,0-.93.6,1.84,1.84,0,0,0-.37,1.24,1.86,1.86,0,0,0,.3,1.1,2.09,2.09,0,0,0,.77.67,6.5,6.5,0,0,0,1,.44c.38.12.75.27,1.14.43a4.93,4.93,0,0,1,1,.6,2.78,2.78,0,0,1,.76,1,3.57,3.57,0,0,1,.3,1.57,3.62,3.62,0,0,1-.42,1.85,2.58,2.58,0,0,1-1.16,1.06A4,4,0,0,1,21.54,85.1Z"/><path class="ee8baf5a-8c5f-46dd-b363-7dedd9a9d312" d="M28,85a.45.45,0,0,1-.28-.09.29.29,0,0,1-.12-.25v-11a.26.26,0,0,1,.1-.21A.41.41,0,0,1,28,73.3h2.9a3.84,3.84,0,0,1,1.62.33,2.48,2.48,0,0,1,1.15,1.07,3.81,3.81,0,0,1,.43,2v.17a3.85,3.85,0,0,1-.43,2,2.55,2.55,0,0,1-1.16,1.07,3.92,3.92,0,0,1-1.63.33H28.4v4.48a.28.28,0,0,1-.13.25A.44.44,0,0,1,28,85Zm.4-5.55h2.43a2.44,2.44,0,0,0,1.78-.64,2.71,2.71,0,0,0,.64-2v-.19a2.68,2.68,0,0,0-.64-2,2.43,2.43,0,0,0-1.78-.63H28.4Z"/><path class="ee8baf5a-8c5f-46dd-b363-7dedd9a9d312" d="M39.81,85.1a3.93,3.93,0,0,1-1.63-.34A2.56,2.56,0,0,1,37,83.7a3.92,3.92,0,0,1-.42-2v-5.1a3.92,3.92,0,0,1,.42-2,2.56,2.56,0,0,1,1.15-1.06,3.93,3.93,0,0,1,1.63-.34,4,4,0,0,1,1.65.34,2.58,2.58,0,0,1,1.16,1.06,3.92,3.92,0,0,1,.42,2v5.1a3.92,3.92,0,0,1-.42,2,2.58,2.58,0,0,1-1.16,1.06A4,4,0,0,1,39.81,85.1Zm0-.77a2.43,2.43,0,0,0,1.78-.63,2.64,2.64,0,0,0,.65-2v-5.1a2.63,2.63,0,0,0-.64-2,2.84,2.84,0,0,0-3.57,0,2.68,2.68,0,0,0-.64,2v5.1a2.68,2.68,0,0,0,.64,2A2.43,2.43,0,0,0,39.81,84.33Z"/><path class="ee8baf5a-8c5f-46dd-b363-7dedd9a9d312" d="M52.32,85a.35.35,0,0,1-.3-.2l-.21-.36L49.3,79.54H47.09v5.12a.28.28,0,0,1-.13.25.48.48,0,0,1-.27.09.45.45,0,0,1-.28-.09.29.29,0,0,1-.12-.25v-11a.29.29,0,0,1,.09-.21.36.36,0,0,1,.24-.11h2.76a5,5,0,0,1,1.66.28,2.54,2.54,0,0,1,1.23,1,3.3,3.3,0,0,1,.47,1.87,3.48,3.48,0,0,1-.35,1.65,2.33,2.33,0,0,1-.93,1,3.74,3.74,0,0,1-1.32.44l2.56,5a.16.16,0,0,1,0,.1.25.25,0,0,1,0,.08.36.36,0,0,1-.06.2.57.57,0,0,1-.16.15A.35.35,0,0,1,52.32,85Zm-5.23-6.21h2.29a3,3,0,0,0,1.84-.55,2.18,2.18,0,0,0,.72-1.84,2.11,2.11,0,0,0-.72-1.8,2.9,2.9,0,0,0-1.84-.55H47.09Z"/><path class="ee8baf5a-8c5f-46dd-b363-7dedd9a9d312" d="M61.41,85a.35.35,0,0,1-.3-.2l-.21-.36-2.52-4.92h-2.2v5.12a.3.3,0,0,1-.13.25.48.48,0,0,1-.27.09.45.45,0,0,1-.28-.09.29.29,0,0,1-.12-.25v-11a.32.32,0,0,1,.08-.21.41.41,0,0,1,.25-.11h2.75a5,5,0,0,1,1.67.28,2.54,2.54,0,0,1,1.23,1,3.3,3.3,0,0,1,.46,1.87,3.48,3.48,0,0,1-.34,1.65,2.33,2.33,0,0,1-.93,1,3.74,3.74,0,0,1-1.32.44l2.56,5a.26.26,0,0,1,0,.1.25.25,0,0,1,0,.08.36.36,0,0,1-.06.2.75.75,0,0,1-.16.15A.35.35,0,0,1,61.41,85Zm-5.23-6.21h2.28a3,3,0,0,0,1.85-.55A2.17,2.17,0,0,0,61,76.42a2.1,2.1,0,0,0-.71-1.8,2.91,2.91,0,0,0-1.85-.55H56.18Z"/><path class="ee8baf5a-8c5f-46dd-b363-7dedd9a9d312" d="M64,85a.53.53,0,0,1-.2,0,.4.4,0,0,1-.16-.12.24.24,0,0,1-.07-.18.36.36,0,0,1,0-.1L67,73.5a.35.35,0,0,1,.17-.23.66.66,0,0,1,.27-.06.55.55,0,0,1,.28.07.38.38,0,0,1,.19.22l3.37,11a.36.36,0,0,1,0,.1.27.27,0,0,1-.07.17A.46.46,0,0,1,71,85a.54.54,0,0,1-.21,0,.32.32,0,0,1-.2-.06.24.24,0,0,1-.12-.18l-.79-2.54H65.1l-.76,2.54a.28.28,0,0,1-.13.18A.44.44,0,0,1,64,85Zm1.35-3.52h4.16l-2.07-6.83Z"/><path class="ee8baf5a-8c5f-46dd-b363-7dedd9a9d312" d="M74.13,85a.45.45,0,0,1-.28-.09.29.29,0,0,1-.12-.25v-11a.27.27,0,0,1,.12-.26.51.51,0,0,1,.28-.08.4.4,0,0,1,.26.11,1.36,1.36,0,0,1,.22.25l.16.3,4.64,9.14V73.62a.29.29,0,0,1,.12-.24.51.51,0,0,1,.28-.08.56.56,0,0,1,.27.08.29.29,0,0,1,.13.24v11a.3.3,0,0,1-.13.25.48.48,0,0,1-.27.09.43.43,0,0,1-.34-.2,4.11,4.11,0,0,1-.24-.39l-4.7-9.22v9.47a.3.3,0,0,1-.13.25A.48.48,0,0,1,74.13,85Z"/></svg>