<?xml version="1.0" encoding="UTF-8"?><svg id="a" xmlns="http://www.w3.org/2000/svg" viewBox="0 0 175 70"><g><path d="M11.39,31.43c1.88,.55,3.18,1.21,3.92,1.97,.74,.76,1.11,1.78,1.11,3.06,0,2.95-1.91,4.42-5.73,4.42-1.22,0-2.33-.2-3.32-.6-.31-.12-.55-.33-.73-.64-.18-.31-.27-.64-.27-1.01v-1.03c0-.25,.11-.44,.32-.56,.21-.12,.44-.13,.66-.02,1.06,.5,2.1,.74,3.14,.74,1.21,0,1.81-.4,1.81-1.21,0-.38-.09-.66-.28-.86-.19-.2-.53-.38-1.03-.54-1.78-.55-3.07-1.24-3.85-2.06s-1.18-1.85-1.18-3.07c0-1.31,.47-2.34,1.42-3.1,.94-.75,2.31-1.13,4.11-1.13,1.29,0,2.43,.14,3.44,.42,.32,.09,.58,.28,.78,.57,.2,.29,.3,.61,.3,.96v.99c0,.27-.11,.48-.33,.63-.22,.15-.47,.18-.73,.09-1.19-.39-2.28-.58-3.26-.58-1.1,0-1.65,.38-1.65,1.15,0,.67,.45,1.14,1.35,1.41Z"/><path d="M25.45,30.62c.31,0,.58,.11,.8,.34s.34,.5,.34,.8v.32c0,.31-.11,.58-.34,.8-.23,.23-.5,.34-.8,.34h-1.79c-.12,0-.18,.06-.18,.18v2.83c0,.8,.07,1.31,.2,1.51,.13,.2,.44,.3,.9,.3,.19,0,.42-.02,.68-.06,.28-.04,.54,.03,.77,.21,.23,.18,.35,.41,.35,.69v.52c0,.33-.1,.63-.31,.89-.21,.26-.47,.41-.79,.45-.47,.07-1.04,.1-1.71,.1-1.43,0-2.45-.31-3.04-.92s-.88-1.72-.88-3.3v-3.24c0-.12-.06-.18-.18-.18h-.78c-.31,0-.58-.11-.8-.34-.23-.23-.34-.5-.34-.8v-.32c0-.31,.11-.58,.34-.8s.5-.34,.8-.34h.78c.12,0,.18-.06,.18-.18v-2.49c0-.31,.11-.58,.34-.8,.23-.23,.5-.34,.8-.34h1.53c.31,0,.58,.11,.8,.34,.23,.23,.34,.5,.34,.8v2.49c0,.12,.06,.18,.18,.18h1.79Z"/><path d="M33.45,30.02c1.77,0,3.05,.32,3.84,.96,.79,.64,1.19,1.66,1.19,3.06v5.49c0,.31-.11,.58-.34,.8-.23,.23-.5,.34-.8,.34h-1.27c-.32,0-.6-.11-.82-.33-.23-.22-.35-.49-.36-.81v-.16s0-.02-.02-.02-.03,0-.04,.02c-.86,1-1.92,1.51-3.18,1.51-.94,0-1.71-.3-2.31-.89s-.9-1.37-.9-2.32c0-2.41,1.81-3.62,5.43-3.62h.62c.12,0,.18-.06,.18-.18v-.02c0-.8-.47-1.21-1.41-1.21-.8,0-1.84,.12-3.12,.36-.28,.05-.54,0-.76-.19-.23-.18-.34-.42-.34-.71v-.32c0-.33,.1-.64,.31-.9,.21-.27,.47-.43,.79-.48,1.33-.24,2.43-.36,3.32-.36Zm1.21,6.43v-.12c0-.12-.06-.18-.18-.18h-.62c-1.34,0-2.01,.4-2.01,1.21,0,.6,.33,.91,1,.91,.52,0,.96-.16,1.3-.49,.34-.33,.51-.77,.51-1.32Z"/><path d="M47.94,35.39l3.24,4.36c.13,.19,.15,.39,.04,.6-.11,.21-.27,.32-.5,.32h-2.03c-.78,0-1.38-.31-1.81-.92l-1.99-2.88s-.01-.02-.04-.02c-.01,0-.02,0-.02,.02v2.65c0,.31-.11,.58-.34,.8s-.5,.34-.8,.34h-1.53c-.31,0-.58-.11-.8-.34-.23-.23-.34-.5-.34-.8v-12.79c0-.31,.11-.58,.34-.8,.23-.23,.5-.34,.8-.34h1.53c.31,0,.58,.11,.8,.34,.23,.23,.34,.5,.34,.8v7.08s0,.02,.02,.02l.04-.02,1.97-2.67c.44-.62,1.05-.92,1.83-.92h2.03c.23,0,.4,.1,.5,.3s.09,.4-.06,.58l-3.22,4c-.07,.09-.07,.19,0,.28Z"/><path d="M57.05,30.02c3.4,0,5.11,1.8,5.13,5.39,0,.32-.12,.59-.36,.81-.24,.22-.53,.33-.86,.33h-5.27c-.12,0-.17,.06-.14,.18,.12,.56,.38,.96,.79,1.19,.41,.23,1.05,.34,1.92,.34,.55,0,1.22-.08,2.01-.24,.28-.07,.54-.01,.76,.17,.23,.18,.34,.42,.34,.71v.32c0,.33-.1,.64-.31,.91-.21,.28-.47,.44-.79,.49-.82,.16-1.69,.24-2.61,.24-1.9,0-3.37-.47-4.39-1.4s-1.54-2.27-1.54-4.03,.46-3.08,1.37-4.02c.91-.94,2.23-1.41,3.96-1.41Zm1.43,4.42c.12,0,.18-.06,.18-.18-.01-.62-.14-1.06-.39-1.33-.25-.27-.62-.4-1.12-.4-.52,0-.91,.13-1.18,.39-.26,.26-.43,.71-.49,1.36,0,.11,.05,.16,.16,.16h2.83Z"/><path d="M71.04,30.02c1.23,0,2.21,.47,2.94,1.4s1.09,2.28,1.09,4.03-.38,3.05-1.14,4c-.76,.95-1.72,1.43-2.89,1.43-1.29,0-2.34-.5-3.18-1.51-.01-.01-.03-.02-.04-.02-.01,0-.02,0-.02,.02v.16c-.01,.32-.13,.59-.36,.81-.23,.22-.5,.33-.82,.33h-1.27c-.31,0-.58-.11-.8-.34-.23-.23-.34-.5-.34-.8v-12.79c0-.31,.11-.58,.34-.8,.23-.23,.5-.34,.8-.34h1.53c.31,0,.58,.11,.8,.34,.23,.23,.34,.5,.34,.8v4.46s0,.02,.02,.02,.03,0,.04-.02c.9-.79,1.88-1.19,2.96-1.19Zm-1.41,8.04c.52,0,.94-.22,1.25-.65,.31-.44,.46-1.09,.46-1.96,0-1.74-.57-2.61-1.71-2.61-.46,0-.85,.15-1.2,.46-.34,.31-.51,.66-.51,1.04v2.21c0,.39,.17,.74,.51,1.04,.34,.31,.74,.46,1.2,.46Z"/><path d="M77.92,31.46c.95-.96,2.29-1.44,4-1.44s3.05,.48,4,1.44c.95,.96,1.43,2.29,1.43,3.99s-.48,3.03-1.43,3.99c-.95,.96-2.29,1.44-4,1.44s-3.05-.48-4-1.44c-.95-.96-1.43-2.29-1.43-3.99s.48-3.03,1.43-3.99Zm2.77,6.17c.25,.42,.66,.63,1.23,.63s.97-.21,1.23-.63c.25-.42,.38-1.15,.38-2.18s-.13-1.76-.38-2.18c-.25-.42-.66-.63-1.23-.63s-.97,.21-1.23,.63-.38,1.15-.38,2.18,.13,1.76,.38,2.18Z"/><path d="M93.7,30.02c1.77,0,3.05,.32,3.84,.96,.79,.64,1.19,1.66,1.19,3.06v5.49c0,.31-.11,.58-.34,.8s-.5,.34-.8,.34h-1.27c-.32,0-.6-.11-.82-.33-.23-.22-.35-.49-.36-.81v-.16s0-.02-.02-.02-.03,0-.04,.02c-.86,1-1.92,1.51-3.18,1.51-.94,0-1.71-.3-2.31-.89-.6-.6-.9-1.37-.9-2.32,0-2.41,1.81-3.62,5.43-3.62h.62c.12,0,.18-.06,.18-.18v-.02c0-.8-.47-1.21-1.41-1.21-.8,0-1.84,.12-3.12,.36-.28,.05-.54,0-.76-.19-.23-.18-.34-.42-.34-.71v-.32c0-.33,.1-.64,.31-.9,.21-.27,.47-.43,.79-.48,1.33-.24,2.43-.36,3.32-.36Zm1.21,6.43v-.12c0-.12-.06-.18-.18-.18h-.62c-1.34,0-2.01,.4-2.01,1.21,0,.6,.33,.91,1,.91,.52,0,.96-.16,1.3-.49,.34-.33,.51-.77,.51-1.32Z"/><path d="M108.45,30.26c.31-.04,.58,.05,.8,.28,.23,.23,.34,.5,.34,.82v.52c0,.31-.11,.57-.32,.79-.21,.22-.48,.35-.8,.39-1.03,.13-1.86,.52-2.47,1.16-.62,.64-.92,1.41-.92,2.32v2.98c0,.31-.11,.58-.34,.8s-.5,.34-.8,.34h-1.63c-.31,0-.58-.11-.8-.34-.23-.23-.34-.5-.34-.8v-8.16c0-.31,.11-.58,.34-.8,.23-.23,.5-.34,.8-.34h1.53c.31,0,.58,.11,.8,.34,.23,.23,.34,.5,.34,.8v.84s0,.02,.02,.02,.03,0,.04-.02c.84-1.11,1.98-1.76,3.42-1.95Z"/><path d="M120.43,25.6c.31,0,.58,.11,.8,.34,.23,.23,.34,.5,.34,.8v12.79c0,.31-.11,.58-.34,.8s-.5,.34-.8,.34h-1.27c-.32,0-.6-.11-.82-.33-.23-.22-.35-.49-.36-.81v-.16s0-.02-.02-.02-.03,0-.04,.02c-.82,1-1.88,1.51-3.18,1.51-1.17,0-2.13-.48-2.88-1.43-.76-.95-1.14-2.29-1.14-4s.36-3.1,1.09-4.03,1.7-1.4,2.93-1.4c1.07,0,2.06,.4,2.96,1.19,.01,.01,.03,.02,.04,.02,.01,0,.02,0,.02-.02v-4.46c0-.31,.11-.58,.34-.8,.23-.23,.5-.34,.8-.34h1.53Zm-2.57,10.96v-2.21c0-.39-.17-.74-.51-1.04s-.74-.46-1.2-.46c-1.14,0-1.71,.87-1.71,2.61,0,.87,.15,1.52,.46,1.96s.72,.65,1.25,.65c.46,0,.85-.15,1.2-.46,.34-.31,.51-.66,.51-1.04Z"/></g><path d="M149.69,67.42s-.07-.06-.11-.09c-.54-.3-.81-.78-.87-1.37-.08-.76,.23-1.05,.72-1.22,.17-.06,.34-.12,.51-.19,.34-.13,.64-.05,.92,.18,.06,.05,.11,.1,.16,.15,.07,.08,.15,.1,.24,.03,.26-.19,.51-.39,.68-.67,.08-.13,.12-.27,.08-.42-.02-.09-.07-.17-.19-.15-.22,.03-.42-.02-.6-.12-.07-.04-.1-.03-.15,.04-.1,.14-.13,.15-.25,.03-.22-.22-.45-.31-.75-.15-.1,.06-.22,.08-.33,.12-.81,.32-1.63,.65-2.46,.91-.49,.16-.97,.37-1.49,.44-.33,.04-.65,.04-.98-.01-.17-.03-.29-.12-.33-.28-.04-.17,.05-.27,.17-.37,.24-.19,.5-.34,.78-.46,.65-.28,1.32-.52,2-.73,.21-.06,.38-.16,.53-.32,.35-.37,.73-.71,1.13-1.03,1.25-1,2.55-1.95,3.83-2.92,1.52-1.14,3.05-2.25,4.58-3.38,.68-.5,1.37-.97,2.15-1.3,.83-.35,1.48-.92,1.98-1.66,.54-.8,1.1-1.59,1.73-2.32,1.21-1.42,2.63-2.54,4.37-3.23,.43-.17,.89-.28,1.36-.21,.48,.07,.81,.39,.89,.87,.06,.34,.02,.67-.06,1-.18,.79-.49,1.5-1.07,2.09-.4,.41-.87,.72-1.38,.97-.66,.33-1.29,.71-1.89,1.16-.19,.14-.24,.3-.22,.52,.03,.25,0,.26-.24,.15-.01,0-.03,0-.06,0-.01,.02-.03,.04-.04,.07-.05,.21-.1,.41-.29,.54-.08,.06-.07,.14-.03,.22,.13,.29,.38,.43,.68,.49,.24,.05,.49,.07,.73,.08,.37,.01,.39,0,.44-.38,.05-.31,.15-.59,.46-.74,.3-.15,.61-.28,.94-.38,.3-.09,.57-.03,.8,.15,.54,.43,.79,1,.71,1.68-.04,.33-.22,.59-.53,.75-.26,.13-.53,.24-.81,.34-.24,.09-.47,.06-.69-.06-.12-.07-.24-.14-.33-.25-.11-.12-.22-.12-.37-.06-.33,.15-.67,.28-1.01,.42-.32,.13-.66,.22-.97,.38-.36,.18-.73,.34-1.11,.46-.31,.1-.45,.25-.45,.57,0,.36-.21,.61-.55,.75-.19,.08-.39,.16-.59,.23-.52,.19-.95,.07-1.3-.36-.32-.4-.48-.85-.44-1.37,0-.07,.04-.14-.03-.21-.09,.01-.16,.08-.23,.14-.33,.25-.66,.49-.98,.74-.89,.68-1.78,1.36-2.67,2.05-.16,.12-.31,.26-.46,.39-.04,.04-.09,.07-.06,.16,.06,.17-.01,.28-.19,.26-.14-.02-.23,.04-.31,.13-.37,.39-.74,.78-1.19,1.08-.02,.01-.03,.02-.04,.04-.06,.12-.13,.21-.29,.2-.06,0-.1,.05-.1,.11,.01,.17-.06,.35,.11,.48,.08,.06,.08,.13,.05,.22-.05,.12-.01,.26,.09,.32,.19,.12,.34,.26,.48,.43,.06,.07,.16,.09,.25,.05,.1-.04,.09-.13,.1-.21,0-.05,0-.09,0-.14,.04-.4,.22-.69,.62-.82,.19-.06,.38-.14,.56-.21,.39-.16,.74-.07,1.03,.21,.42,.4,.61,.9,.57,1.48-.03,.38-.22,.65-.57,.81-.19,.09-.39,.15-.58,.23-.41,.17-.78,.1-1.07-.22-.16-.17-.3-.18-.5-.11-1.07,.38-2.12,.79-3.16,1.22-.19,.08-.3,.17-.3,.39,0,.46-.24,.75-.67,.9-.27,.09-.53,.2-.79,.29l-.33-.03Zm12.62-11.49c.15,.07,.27,.18,.4,.28,.13,.11,.2,.11,.33,0,.14-.12,.13-.22-.04-.3-.12-.05-.2-.13-.22-.25-.04-.18-.2-.25-.34-.33-.06-.04-.12-.02-.18,.02-.25,.15-.47,.33-.68,.54,.25-.03,.49-.07,.73,.04Z"/><path d="M169.52,18.03c-.47-.41-.65-1.05-1.17-1.42-.3-.21-.48-.68-.91-.63-.56-.08-1.1-.37-1.68-.46-.36-.07-.46-.5-.81-.59-.78-.44-1.1,.34-1.68,.62-.96,.21-1.94,.12-2.9,.3-1.34,.34-2.81,.74-4.19,.47-.68-.12-1.28-.5-1.95-.64-.88-.09-1.68-.47-2.52-.68-.16,.01-.2-.19-.35-.22-.12-.05-.27-.03-.32-.17-.09-.21-.4-.12-.48-.35-.49-.67-1.11-.08-1.6-.31-.12-.1-.13-.24-.09-.39,.19-.81,.22-1.75-.1-2.53-.34-.76-.55-1.81-1.41-2.18-.86-.33-1.74-.53-2.66-.35-1.66,.23-2.5,1.97-2.85,3.44-.18,.28-.73-.02-1.03,.02-.22-.03-.41,.01-.57,.17-.32,.21-.75,.23-1.13,.27-.11,0-.16-.02-.18-.13-.28-.59-1.43-.32-1.94-.16-.47,.18-1,.76-1.49,.42,.05-.16-.09-.12-.15-.13-.22-.02-.38-.18-.6-.21-.26-.06-.55,.02-.81-.04-.64-.18-1.32,.03-1.95-.2-1.22-.22-2.4-.61-3.63-.81-1.68-.61-3.01-1.9-4.56-2.76-2.11-1.1-4.64-1.73-6.22-3.54-.25-.15,.07-.29,.15-.44-.06-.71-.91,.82-1.28-1.12-.03-.27-.43-.3-.51-.04-.06,.18-.03,.49-.31,.36-.49-.26-.82-.77-1.3-1.05h-.17c-.39,.29,.38,.64,.06,.93-.38-.24-.89-.63-1.34-.54v.26c2.7,2.72,.1,1.55,1.13,2.57,.1,.05,.18,.13,.21,.23,.09,.29,.37,.39,.6,.54,.33,.33,.77,.25,1.17,.37,.13,.09,.28,.12,.44,.11,2.23,.45,4.03,3.96,6.24,5.06,.88,.7,1.74,1.39,2.86,1.66,1.71,.83,4.63,1.53,5.02,2.57,.35,.92,1.67,1.03,2.6,1.45,1.09,1.07,2.43,3.25,1.63,4.63-.38,.66-.37,.96-.75,1.93-.18,.47-.34,.92-.57,1.32-.78,1.36-1.06,4.06-1.1,4.34-.06,.42-.39,1.57,.12,1.73,.11,.06,.32,.01,.38,.14,.01,.17,.09,.33-.06,.51-.34,.36-.32,.83-.16,1.28-.05,.58-.37,1.13-.46,1.71-.16,.5,.25,.97,.04,1.48,.08,1.5-.31,3.01-.12,4.51,.13,.49-.46,.4-.32,.87,.02,.17-.24,.72,.32,.83,.1,.02,.13,.61,.19,.7,.15,.38-.03,.74-.07,1.12-.19,1.6,.5,1.89,1.08,3.24,.06,.26,.38,.71,.4,.98,.08,1.83-.23,3.7,.23,5.5,.76,3.25,3.62,3.45,3.87-.09,.14-.94-.33-1.76-.39-2.67-.07-1.19,.28-2.37-.05-3.55-.03-.16,.03-.34,.09-.5,.14-.41,.47-.72,.48-1.21-.06-.55-.15-1.06,.19-1.51,.41-.52,.48-1.15,.59-1.77,.08-.41-.19-1.27,.4-1.55,.83-.39,.14-.79,.27-1.32,.33-1.01,.43-3.01,1.66-3.28,1.4-.2,2.8-.6,4.23-.63,.52-.14,1.09,.02,1.56-.3,.54-.17,.72-.8,1.22-1,.51-.2,1.81-.2,1.66-.7-.33-1.12,1.08-1.2,1.21-.82,.37,2.26-.32,4.67,.62,6.83,.87,2.21,.93,4.67,1.12,6.98-.03,.2-.27,.29-.24,.53-.07,.37-.27,.72-.16,1.1,.11,.62,.31,1.22,.52,1.8,.22,.69,2.39-.18,2.95-.27,1.15-.57,6.74-1.13,5.9-2.91-.27-.91-1.51-.7-2.26-.65-.21,.04-.44,.05-.62-.12-.18-.06-.4-.06-.55-.2-.43-.31-1.05-.09-1.44-.45-.18-.14-.52-.19-.41-.5,.05-.19-.02-.35-.1-.51-.17-.26-.15-.58-.29-.85-.14-.25,.06-.52,.05-.79,.01-.65-.61-.37-.53-.81,.25-2.13,.49-4.28,.62-6.42,.04-1.9-.14-3.8-.51-5.65-.1-1.09-.24-2.29-1.21-2.97-.83-.47-1.75-.8-2.72-.75-.59,.03-1.16-.36-1.73-.06-.51,.22-1.13,.11-1.65,.28-.55,.24-1.06,.36-1.65,.46,1.74-1.2,1.16-3.27,2.33-4.9,.58-1.15,1.93-1.55,3.22-1.4,.74,.21,1.26-.44,1.68-.89,.02-.38,.24-.77,.63-.88,.97-.13,1.97-.02,2.92,.17,.41,.14,.8,.13,1.19-.08,.96-.48,2.07-.6,3-1.16,.61-.37,1.28-.65,1.86-1.09,.18-.12,.9-.11,.98,.11,.1,.28,.42,.39,.68,.45,.52,.06,.38,.63,.71,.87,.5,.27,.37-.64,.36-.94,.29,.23,.22,.56,.4,.84,.11,.24,.63,.41,.59,0,0-.05-.04-.11,0-.18,.22,.2,.59,.13,.57-.23,.05,.03,.05,.06,.06,.1,.05,.31,.5,.41,.71,.22,.14-.29-.22-.55-.18-.86,.49,.19,1.15,1.39,1.64,.78-.04-.26-.41-.38-.48-.66Zm-14.01,25.39c.46,.04,.16,.67,.02,.94-.09-.3-.3-.75-.02-.94Zm-9.68-23.53c-.28,.3-.57,.59-.84,.9-.21,.24-.44,.46-.65,.7-.17,.2-.39,.38-.49,.63-.22,.53-.43,.52-.57,.84-.06,.13-.15,.19,.03,.5,.12,.24,.18,.5,.26,.75,.05,.14,.08,.29,.12,.43,.13,.45,.37,.83,.61,1.21,.28,.47,.62,.9,.81,1.42,.03,.09,.08,.18,0,.28-.07,.09-.16,.07-.25,.06-.4-.06-.79-.16-1.19-.18-.15,0-.22-.09-.26-.22-.15-.46-.4-.87-.62-1.29-.25-.49-.5-.97-.6-1.52-.08-.45-.25-.87-.47-1.26-.01-.02-.02-.05-.05-.07,0,.23,.08,.43,.1,.65,.04,.27,.01,.53,.01,.8,0,.28,.01,.56,.04,.85,0,.09-.01,.17-.03,.26-.07,.38-.15,.76-.23,1.15-.03,.17-.09,.33-.27,.41l-1.17-.17c-.21-.1-.24-.19-.18-.42,.21-.73,.42-1.46,.59-2.2,.04-.2,.09-.4,.12-.6,.03-.25-.09-.51,0-.74,.06-.17-.06-.42-.16-.76-.11-.39-.19-.8-.22-1.21-.03-.42,.06-.83,.17-1.24,.08-.31,.17-.62,.22-.94,.02-.14,.09-.16,.19-.16,.1,0,.19,.02,.28,.04,.31,.09,.62,.12,.93,.17,.19,.03,.26,.13,.21,.32-.11,.46-.22,.92-.33,1.38-.11,.44-.07,.88,0,1.37,.12-.2,.23-.35,.31-.52,.07-.13,.15-.24,.24-.35,.31-.37,.63-.74,.97-1.07,.22-.22,.43-.44,.64-.67,.11-.12,.23-.16,.39-.12,.37,.09,.75,.17,1.12,.25,.06,.01,.11,.02,.16,.05,.11,.08,.11,.22,.01,.33Z"/></svg>