<?xml version="1.0" encoding="UTF-8"?><svg id="a" xmlns="http://www.w3.org/2000/svg" viewBox="0 0 300 140"><defs><style>.b{fill:#fff;}</style></defs><path class="b" d="M96.46,129.17c-9.68,0-18.79-4.06-25.24-11.07-6.47,7.02-15.57,11.07-25.24,11.07-18.94,0-34.34-15.39-34.34-34.31v-25.28c0-5.01,4.08-9.09,9.09-9.09s9.09,4.08,9.09,9.09v24.73c0,8.86,6.95,16.34,15.5,16.68,.22,0,.44,.01,.66,.01,8.78,0,16.01-7.12,16.15-15.89v-25.55c.01-5,4.09-9.08,9.09-9.08s9.08,4.07,9.08,9.08l.02,25.29c0,.1,0,.2,0,.3,.11,8.69,7.35,15.85,16.15,15.85,.22,0,.44,0,.66-.01,8.55-.34,15.5-7.82,15.5-16.68v-24.73c0-5.01,4.08-9.09,9.09-9.09s9.09,4.08,9.09,9.09v25.28c0,18.92-15.41,34.31-34.34,34.31Z"/><path class="b" d="M149.99,129.17c-5.01,0-9.09-4.08-9.09-9.09s4.08-9.09,9.09-9.09h24.73c8.86,0,16.34-6.95,16.68-15.5,.18-4.4-1.4-8.58-4.43-11.77-3.03-3.19-7.12-4.98-11.5-5.04h-25.49c-5-.01-9.08-4.09-9.08-9.09s4.07-9.08,9.08-9.08l25.29-.02h.27c4.31-.05,8.4-1.84,11.43-5.03,3.03-3.19,4.6-7.37,4.43-11.77-.34-8.55-7.82-15.5-16.68-15.5h-24.73c-5.01,0-9.09-4.08-9.09-9.09s4.08-9.09,9.09-9.09h25.28c18.92,0,34.31,15.41,34.31,34.34,0,9.68-4.06,18.78-11.07,25.24,7,6.45,11.07,15.56,11.07,25.24,0,18.94-15.39,34.34-34.31,34.34h-25.28Z"/><path class="b" d="M279.28,130c-5.01,0-9.09-4.08-9.09-9.09v-25.28c0-8.9-7.25-16.14-16.16-16.14-.2,0-.4,0-.6,.01-8.58,.31-15.56,7.79-15.56,16.68v24.73c0,5.01-4.08,9.09-9.09,9.09s-9.09-4.08-9.09-9.09v-25.28c0-18.92,15.41-34.31,34.34-34.31s34.34,15.39,34.34,34.31v25.28c0,5.01-4.08,9.09-9.09,9.09Z"/></svg>