<?xml version="1.0" encoding="UTF-8" standalone="no"?>
<!DOCTYPE svg PUBLIC "-//W3C//DTD SVG 1.1//EN" "http://www.w3.org/Graphics/SVG/1.1/DTD/svg11.dtd">
<svg width="100%" height="100%" viewBox="0 0 277 120" version="1.1" xmlns="http://www.w3.org/2000/svg" xmlns:xlink="http://www.w3.org/1999/xlink" xml:space="preserve" xmlns:serif="http://www.serif.com/" style="fill-rule:evenodd;clip-rule:evenodd;stroke-linejoin:round;stroke-miterlimit:2;">
    <g id="Artboard1" transform="matrix(1,0,0,1,-11.64,-10.01)">
        <rect x="11.64" y="10.01" width="276.73" height="119.99" style="fill:none;"/>
        <path d="M96.46,129.17C86.78,129.17 77.67,125.11 71.22,118.1C64.75,125.12 55.65,129.17 45.98,129.17C27.04,129.17 11.64,113.78 11.64,94.86L11.64,69.58C11.64,64.57 15.72,60.49 20.73,60.49C25.74,60.49 29.82,64.57 29.82,69.58L29.82,94.31C29.82,103.17 36.77,110.65 45.32,110.99C45.54,110.99 45.76,111 45.98,111C54.76,111 61.99,103.88 62.13,95.11L62.13,69.56C62.14,64.56 66.22,60.48 71.22,60.48C76.22,60.48 80.3,64.55 80.3,69.56L80.32,94.85L80.32,95.15C80.43,103.84 87.67,111 96.47,111C96.69,111 96.91,111 97.13,110.99C105.68,110.65 112.63,103.17 112.63,94.31L112.63,69.58C112.63,64.57 116.71,60.49 121.72,60.49C126.73,60.49 130.81,64.57 130.81,69.58L130.81,94.86C130.81,113.78 115.4,129.17 96.47,129.17L96.46,129.17Z" style="fill:white;fill-rule:nonzero;"/>
        <path d="M149.99,129.17C144.98,129.17 140.9,125.09 140.9,120.08C140.9,115.07 144.98,110.99 149.99,110.99L174.72,110.99C183.58,110.99 191.06,104.04 191.4,95.49C191.58,91.09 190,86.91 186.97,83.72C183.94,80.53 179.85,78.74 175.47,78.68L149.98,78.68C144.98,78.67 140.9,74.59 140.9,69.59C140.9,64.59 144.97,60.51 149.98,60.51L175.27,60.49L175.54,60.49C179.85,60.44 183.94,58.65 186.97,55.46C190,52.27 191.57,48.09 191.4,43.69C191.06,35.14 183.58,28.19 174.72,28.19L149.99,28.19C144.98,28.19 140.9,24.11 140.9,19.1C140.9,14.09 144.98,10.01 149.99,10.01L175.27,10.01C194.19,10.01 209.58,25.42 209.58,44.35C209.58,54.03 205.52,63.13 198.51,69.59C205.51,76.04 209.58,85.15 209.58,94.83C209.58,113.77 194.19,129.17 175.27,129.17L149.99,129.17Z" style="fill:white;fill-rule:nonzero;"/>
        <path d="M279.28,130C274.27,130 270.19,125.92 270.19,120.91L270.19,95.63C270.19,86.73 262.94,79.49 254.03,79.49C253.83,79.49 253.63,79.49 253.43,79.5C244.85,79.81 237.87,87.29 237.87,96.18L237.87,120.91C237.87,125.92 233.79,130 228.78,130C223.77,130 219.69,125.92 219.69,120.91L219.69,95.63C219.69,76.71 235.1,61.32 254.03,61.32C272.96,61.32 288.37,76.71 288.37,95.63L288.37,120.91C288.37,125.92 284.29,130 279.28,130Z" style="fill:white;fill-rule:nonzero;"/>
    </g>
</svg>
