<?xml version="1.0" encoding="UTF-8" standalone="no"?>
<!DOCTYPE svg PUBLIC "-//W3C//DTD SVG 1.1//EN" "http://www.w3.org/Graphics/SVG/1.1/DTD/svg11.dtd">
<svg width="100%" height="100%" viewBox="0 0 2700 2700" version="1.1" xmlns="http://www.w3.org/2000/svg" xmlns:xlink="http://www.w3.org/1999/xlink" xml:space="preserve" xmlns:serif="http://www.serif.com/" style="fill-rule:evenodd;clip-rule:evenodd;stroke-linejoin:round;stroke-miterlimit:2;">
    <g transform="matrix(11.8124,0,0,11.8124,675,1902.23)">
        <g transform="matrix(1,0,0,1,-50,-50)">
            <path d="M50,39.29C51.289,39.29 52.358,40.332 52.39,41.62C60.681,41.279 68.801,39.147 76.19,35.37C70.896,25.893 60.855,20.002 50,20.002C39.145,20.002 29.104,25.893 23.81,35.37C31.199,39.147 39.319,41.279 47.61,41.62C47.642,40.332 48.711,39.29 50,39.29Z" style="fill:white;fill-rule:nonzero;"/>
            <path d="M77.28,37.52C72.455,39.991 67.314,41.788 62,42.86L62,58.14C62,59.457 60.917,60.54 59.6,60.54C58.283,60.54 57.2,59.457 57.2,58.14L57.2,43.61C55.62,43.8 54.02,43.95 52.4,44.02L52.4,60.54C52.4,61.857 51.317,62.94 50,62.94C48.683,62.94 47.6,61.857 47.6,60.54L47.6,44C45.98,43.93 44.38,43.78 42.8,43.59L42.8,58.14C42.8,59.457 41.717,60.54 40.4,60.54C39.083,60.54 38,59.457 38,58.14L38,42.86C32.686,41.788 27.545,39.991 22.72,37.52C20.928,41.437 20,45.694 20,50.002C20,66.46 33.542,80.002 50,80.002C66.458,80.002 80,66.46 80,50.002C80,45.694 79.072,41.437 77.28,37.52Z" style="fill:white;fill-rule:nonzero;"/>
        </g>
    </g>
    <g transform="matrix(6.74992,0,0,6.74992,2025,431.016)">
        <g transform="matrix(1,0,0,1,-87.5,-35)">
            <path d="M11.39,31.43C13.27,31.98 14.57,32.64 15.31,33.4C16.05,34.16 16.42,35.18 16.42,36.46C16.42,39.41 14.51,40.88 10.69,40.88C9.47,40.88 8.36,40.68 7.37,40.28C7.06,40.16 6.82,39.95 6.64,39.64C6.46,39.33 6.37,39 6.37,38.63L6.37,37.61C6.37,37.36 6.48,37.17 6.69,37.05C6.9,36.93 7.13,36.92 7.35,37.03C8.41,37.53 9.45,37.77 10.49,37.77C11.7,37.77 12.3,37.37 12.3,36.56C12.3,36.18 12.21,35.9 12.02,35.7C11.83,35.5 11.49,35.32 10.99,35.16C9.21,34.61 7.92,33.92 7.14,33.1C6.36,32.28 5.96,31.25 5.96,30.03C5.96,28.72 6.43,27.68 7.38,26.93C8.32,26.18 9.69,25.8 11.49,25.8C12.78,25.8 13.92,25.94 14.93,26.22C15.25,26.31 15.51,26.51 15.71,26.79C15.91,27.07 16.01,27.4 16.01,27.74L16.01,28.73C16.01,29 15.9,29.21 15.68,29.36C15.46,29.51 15.21,29.54 14.95,29.45C13.76,29.06 12.67,28.87 11.69,28.87C10.59,28.87 10.04,29.25 10.04,30.02C10.04,30.69 10.49,31.16 11.39,31.43Z" style="fill:white;fill-rule:nonzero;"/>
            <path d="M25.45,30.62C25.76,30.62 26.03,30.73 26.25,30.96C26.47,31.19 26.59,31.46 26.59,31.76L26.59,32.08C26.59,32.39 26.48,32.66 26.25,32.88C26.02,33.11 25.75,33.22 25.45,33.22L23.66,33.22C23.54,33.22 23.48,33.28 23.48,33.4L23.48,36.23C23.48,37.03 23.55,37.54 23.68,37.74C23.81,37.94 24.12,38.04 24.58,38.04C24.77,38.04 25,38.02 25.26,37.98C25.54,37.94 25.8,38.01 26.03,38.19C26.26,38.37 26.38,38.6 26.38,38.88L26.38,39.4C26.38,39.74 26.28,40.03 26.07,40.29C25.86,40.55 25.6,40.7 25.28,40.74C24.81,40.81 24.24,40.84 23.57,40.84C22.14,40.84 21.12,40.53 20.53,39.92C19.94,39.3 19.65,38.2 19.65,36.62L19.65,33.38C19.65,33.26 19.59,33.2 19.47,33.2L18.69,33.2C18.38,33.2 18.11,33.09 17.89,32.86C17.66,32.63 17.55,32.36 17.55,32.06L17.55,31.74C17.55,31.43 17.66,31.16 17.89,30.94C18.12,30.72 18.39,30.6 18.69,30.6L19.47,30.6C19.59,30.6 19.65,30.54 19.65,30.42L19.65,27.93C19.65,27.62 19.76,27.35 19.99,27.13C20.22,26.91 20.49,26.79 20.79,26.79L22.32,26.79C22.63,26.79 22.9,26.9 23.12,27.13C23.35,27.36 23.46,27.63 23.46,27.93L23.46,30.42C23.46,30.54 23.52,30.6 23.64,30.6L25.43,30.6L25.45,30.62Z" style="fill:white;fill-rule:nonzero;"/>
            <path d="M33.45,30.02C35.22,30.02 36.5,30.34 37.29,30.98C38.08,31.62 38.48,32.64 38.48,34.04L38.48,39.53C38.48,39.84 38.37,40.11 38.14,40.33C37.91,40.55 37.64,40.67 37.34,40.67L36.07,40.67C35.75,40.67 35.47,40.56 35.25,40.34C35.02,40.12 34.9,39.85 34.89,39.53L34.89,39.37C34.89,39.37 34.89,39.35 34.87,39.35C34.85,39.35 34.84,39.35 34.83,39.37C33.97,40.37 32.91,40.88 31.65,40.88C30.71,40.88 29.94,40.58 29.34,39.99C28.74,39.4 28.44,38.62 28.44,37.67C28.44,35.26 30.25,34.05 33.87,34.05L34.49,34.05C34.61,34.05 34.67,33.99 34.67,33.87L34.67,33.85C34.67,33.05 34.2,32.64 33.26,32.64C32.46,32.64 31.42,32.76 30.14,33C29.86,33.05 29.6,33 29.38,32.81C29.15,32.63 29.04,32.39 29.04,32.1L29.04,31.78C29.04,31.45 29.14,31.14 29.35,30.88C29.56,30.61 29.82,30.45 30.14,30.4C31.47,30.16 32.57,30.04 33.46,30.04L33.45,30.02ZM34.66,36.45L34.66,36.33C34.66,36.21 34.6,36.15 34.48,36.15L33.86,36.15C32.52,36.15 31.85,36.55 31.85,37.36C31.85,37.96 32.18,38.26 32.85,38.26C33.37,38.26 33.81,38.1 34.15,37.77C34.49,37.44 34.66,37 34.66,36.45Z" style="fill:white;fill-rule:nonzero;"/>
            <path d="M47.94,35.39L51.18,39.75C51.31,39.94 51.33,40.14 51.22,40.35C51.11,40.56 50.95,40.67 50.72,40.67L48.69,40.67C47.91,40.67 47.31,40.36 46.88,39.75L44.89,36.87C44.89,36.87 44.88,36.85 44.85,36.85C44.84,36.85 44.83,36.85 44.83,36.87L44.83,39.52C44.83,39.83 44.72,40.1 44.49,40.32C44.26,40.55 43.99,40.66 43.69,40.66L42.16,40.66C41.85,40.66 41.58,40.55 41.36,40.32C41.13,40.09 41.02,39.82 41.02,39.52L41.02,26.73C41.02,26.42 41.13,26.15 41.36,25.93C41.59,25.7 41.86,25.59 42.16,25.59L43.69,25.59C44,25.59 44.27,25.7 44.49,25.93C44.72,26.16 44.83,26.43 44.83,26.73L44.83,33.81C44.83,33.81 44.83,33.83 44.85,33.83L44.89,33.81L46.86,31.14C47.3,30.52 47.91,30.22 48.69,30.22L50.72,30.22C50.95,30.22 51.12,30.32 51.22,30.52C51.32,30.72 51.31,30.92 51.16,31.1L47.94,35.1C47.87,35.19 47.87,35.29 47.94,35.38L47.94,35.39Z" style="fill:white;fill-rule:nonzero;"/>
            <path d="M57.05,30.02C60.45,30.02 62.16,31.82 62.18,35.41C62.18,35.73 62.06,36 61.82,36.22C61.58,36.44 61.29,36.55 60.96,36.55L55.69,36.55C55.57,36.55 55.52,36.61 55.55,36.73C55.67,37.29 55.93,37.69 56.34,37.92C56.75,38.15 57.39,38.26 58.26,38.26C58.81,38.26 59.48,38.18 60.27,38.02C60.55,37.95 60.81,38.02 61.03,38.19C61.26,38.37 61.37,38.61 61.37,38.9L61.37,39.22C61.37,39.55 61.27,39.86 61.06,40.13C60.85,40.4 60.59,40.57 60.27,40.62C59.45,40.78 58.58,40.86 57.66,40.86C55.76,40.86 54.29,40.39 53.27,39.46C52.24,38.53 51.73,37.19 51.73,35.43C51.73,33.67 52.19,32.35 53.1,31.41C54.01,30.47 55.33,30 57.06,30L57.05,30.02ZM58.48,34.44C58.6,34.44 58.66,34.38 58.66,34.26C58.65,33.64 58.52,33.2 58.27,32.93C58.02,32.66 57.65,32.53 57.15,32.53C56.63,32.53 56.24,32.66 55.97,32.92C55.71,33.18 55.54,33.63 55.48,34.28C55.48,34.39 55.53,34.44 55.64,34.44L58.48,34.44Z" style="fill:white;fill-rule:nonzero;"/>
            <path d="M71.04,30.02C72.27,30.02 73.25,30.49 73.98,31.42C74.7,32.35 75.07,33.7 75.07,35.45C75.07,37.2 74.69,38.5 73.93,39.45C73.17,40.4 72.21,40.88 71.04,40.88C69.75,40.88 68.7,40.38 67.86,39.37C67.85,39.36 67.83,39.35 67.82,39.35C67.81,39.35 67.8,39.35 67.8,39.37L67.8,39.53C67.79,39.85 67.67,40.12 67.44,40.34C67.21,40.56 66.94,40.67 66.62,40.67L65.35,40.67C65.04,40.67 64.77,40.56 64.55,40.33C64.32,40.1 64.21,39.83 64.21,39.53L64.21,26.74C64.21,26.43 64.32,26.16 64.55,25.94C64.78,25.72 65.05,25.6 65.35,25.6L66.88,25.6C67.19,25.6 67.46,25.71 67.68,25.94C67.91,26.17 68.02,26.44 68.02,26.74L68.02,31.2C68.02,31.2 68.02,31.22 68.04,31.22C68.06,31.22 68.07,31.22 68.08,31.2C68.98,30.41 69.96,30.01 71.04,30.01L71.04,30.02ZM69.63,38.06C70.15,38.06 70.57,37.84 70.88,37.41C71.19,36.97 71.34,36.32 71.34,35.45C71.34,33.71 70.77,32.84 69.63,32.84C69.17,32.84 68.78,32.99 68.43,33.3C68.09,33.61 67.92,33.96 67.92,34.35L67.92,36.56C67.92,36.95 68.09,37.3 68.43,37.61C68.77,37.92 69.17,38.07 69.63,38.07L69.63,38.06Z" style="fill:white;fill-rule:nonzero;"/>
            <path d="M77.92,31.46C78.87,30.5 80.21,30.02 81.92,30.02C83.63,30.02 84.97,30.5 85.92,31.46C86.87,32.42 87.35,33.75 87.35,35.45C87.35,37.15 86.87,38.48 85.92,39.44C84.97,40.4 83.63,40.88 81.92,40.88C80.21,40.88 78.87,40.4 77.92,39.44C76.97,38.48 76.49,37.15 76.49,35.45C76.49,33.75 76.97,32.42 77.92,31.46ZM80.69,37.63C80.94,38.05 81.35,38.26 81.92,38.26C82.49,38.26 82.89,38.05 83.15,37.63C83.4,37.21 83.53,36.48 83.53,35.45C83.53,34.42 83.4,33.69 83.15,33.27C82.9,32.85 82.49,32.64 81.92,32.64C81.35,32.64 80.95,32.85 80.69,33.27C80.43,33.69 80.31,34.42 80.31,35.45C80.31,36.48 80.44,37.21 80.69,37.63Z" style="fill:white;fill-rule:nonzero;"/>
            <path d="M93.7,30.02C95.47,30.02 96.75,30.34 97.54,30.98C98.33,31.62 98.73,32.64 98.73,34.04L98.73,39.53C98.73,39.84 98.62,40.11 98.39,40.33C98.16,40.56 97.89,40.67 97.59,40.67L96.32,40.67C96,40.67 95.72,40.56 95.5,40.34C95.28,40.12 95.15,39.85 95.14,39.53L95.14,39.37C95.14,39.37 95.14,39.35 95.12,39.35C95.1,39.35 95.09,39.35 95.08,39.37C94.22,40.37 93.16,40.88 91.9,40.88C90.96,40.88 90.19,40.58 89.59,39.99C88.99,39.39 88.69,38.62 88.69,37.67C88.69,35.26 90.5,34.05 94.12,34.05L94.74,34.05C94.86,34.05 94.92,33.99 94.92,33.87L94.92,33.85C94.92,33.05 94.45,32.64 93.51,32.64C92.71,32.64 91.67,32.76 90.39,33C90.11,33.05 89.85,33 89.63,32.81C89.41,32.62 89.29,32.39 89.29,32.1L89.29,31.78C89.29,31.45 89.39,31.14 89.6,30.88C89.81,30.62 90.07,30.45 90.39,30.4C91.72,30.16 92.82,30.04 93.71,30.04L93.7,30.02ZM94.91,36.45L94.91,36.33C94.91,36.21 94.85,36.15 94.73,36.15L94.11,36.15C92.77,36.15 92.1,36.55 92.1,37.36C92.1,37.96 92.43,38.26 93.1,38.26C93.62,38.26 94.06,38.1 94.4,37.77C94.74,37.44 94.91,37 94.91,36.45Z" style="fill:white;fill-rule:nonzero;"/>
            <path d="M108.45,30.26C108.76,30.22 109.03,30.31 109.25,30.54C109.48,30.77 109.59,31.04 109.59,31.36L109.59,31.88C109.59,32.19 109.48,32.45 109.27,32.67C109.06,32.89 108.79,33.02 108.47,33.06C107.44,33.19 106.61,33.58 106,34.22C105.38,34.86 105.08,35.63 105.08,36.54L105.08,39.52C105.08,39.83 104.97,40.1 104.74,40.32C104.51,40.55 104.24,40.66 103.94,40.66L102.31,40.66C102,40.66 101.73,40.55 101.51,40.32C101.28,40.09 101.17,39.82 101.17,39.52L101.17,31.36C101.17,31.05 101.28,30.78 101.51,30.56C101.74,30.33 102.01,30.22 102.31,30.22L103.84,30.22C104.15,30.22 104.42,30.33 104.64,30.56C104.87,30.79 104.98,31.06 104.98,31.36L104.98,32.2C104.98,32.2 104.98,32.22 105,32.22C105.02,32.22 105.03,32.22 105.04,32.2C105.88,31.09 107.02,30.44 108.46,30.25L108.45,30.26Z" style="fill:white;fill-rule:nonzero;"/>
            <path d="M120.43,25.6C120.74,25.6 121.01,25.71 121.23,25.94C121.46,26.17 121.57,26.44 121.57,26.74L121.57,39.53C121.57,39.84 121.46,40.11 121.23,40.33C121,40.56 120.73,40.67 120.43,40.67L119.16,40.67C118.84,40.67 118.56,40.56 118.34,40.34C118.12,40.12 117.99,39.85 117.98,39.53L117.98,39.37C117.98,39.37 117.98,39.35 117.96,39.35C117.94,39.35 117.93,39.35 117.92,39.37C117.1,40.37 116.04,40.88 114.74,40.88C113.57,40.88 112.61,40.4 111.86,39.45C111.1,38.5 110.72,37.17 110.72,35.45C110.72,33.73 111.08,32.35 111.81,31.42C112.53,30.49 113.51,30.02 114.74,30.02C115.81,30.02 116.8,30.42 117.7,31.21C117.71,31.22 117.73,31.23 117.74,31.23C117.75,31.23 117.76,31.23 117.76,31.21L117.76,26.75C117.76,26.44 117.87,26.17 118.1,25.95C118.33,25.73 118.6,25.61 118.9,25.61L120.43,25.61L120.43,25.6ZM117.86,36.56L117.86,34.35C117.86,33.96 117.69,33.61 117.35,33.3C117.01,32.99 116.61,32.84 116.15,32.84C115.01,32.84 114.44,33.71 114.44,35.45C114.44,36.32 114.59,36.97 114.9,37.41C115.21,37.85 115.62,38.06 116.15,38.06C116.61,38.06 117,37.91 117.35,37.6C117.7,37.29 117.86,36.94 117.86,36.55L117.86,36.56Z" style="fill:white;fill-rule:nonzero;"/>
            <path d="M149.69,67.42C149.69,67.42 149.62,67.36 149.58,67.33C149.04,67.03 148.77,66.55 148.71,65.96C148.63,65.2 148.94,64.91 149.43,64.74C149.6,64.68 149.77,64.62 149.94,64.55C150.28,64.42 150.58,64.5 150.86,64.73C150.92,64.78 150.97,64.83 151.02,64.88C151.09,64.96 151.17,64.98 151.26,64.91C151.52,64.72 151.77,64.52 151.94,64.24C152.02,64.11 152.06,63.97 152.02,63.82C152,63.73 151.95,63.65 151.83,63.67C151.61,63.7 151.41,63.65 151.23,63.55C151.16,63.51 151.13,63.52 151.08,63.59C150.98,63.73 150.95,63.74 150.83,63.62C150.61,63.4 150.38,63.31 150.08,63.47C149.98,63.53 149.86,63.55 149.75,63.59C148.94,63.91 148.12,64.24 147.29,64.5C146.8,64.66 146.32,64.87 145.8,64.94C145.47,64.98 145.15,64.98 144.82,64.93C144.65,64.9 144.53,64.81 144.49,64.65C144.45,64.48 144.54,64.38 144.66,64.28C144.9,64.09 145.16,63.94 145.44,63.82C146.09,63.54 146.76,63.3 147.44,63.09C147.65,63.03 147.82,62.93 147.97,62.77C148.32,62.4 148.7,62.06 149.1,61.74C150.35,60.74 151.65,59.79 152.93,58.82C154.45,57.68 155.98,56.57 157.51,55.44C158.19,54.94 158.88,54.47 159.66,54.14C160.49,53.79 161.14,53.22 161.64,52.48C162.18,51.68 162.74,50.89 163.37,50.16C164.58,48.74 166,47.62 167.74,46.93C168.17,46.76 168.63,46.65 169.1,46.72C169.58,46.79 169.91,47.11 169.99,47.59C170.05,47.93 170.01,48.26 169.93,48.59C169.75,49.38 169.44,50.09 168.86,50.68C168.46,51.09 167.99,51.4 167.48,51.65C166.82,51.98 166.19,52.36 165.59,52.81C165.4,52.95 165.35,53.11 165.37,53.33C165.4,53.58 165.37,53.59 165.13,53.48L165.07,53.48C165.06,53.5 165.04,53.52 165.03,53.55C164.98,53.76 164.93,53.96 164.74,54.09C164.66,54.15 164.67,54.23 164.71,54.31C164.84,54.6 165.09,54.74 165.39,54.8C165.63,54.85 165.88,54.87 166.12,54.88C166.49,54.89 166.51,54.88 166.56,54.5C166.61,54.19 166.71,53.91 167.02,53.76C167.32,53.61 167.63,53.48 167.96,53.38C168.26,53.29 168.53,53.35 168.76,53.53C169.3,53.96 169.55,54.53 169.47,55.21C169.43,55.54 169.25,55.8 168.94,55.96C168.68,56.09 168.41,56.2 168.13,56.3C167.89,56.39 167.66,56.36 167.44,56.24C167.32,56.17 167.2,56.1 167.11,55.99C167,55.87 166.89,55.87 166.74,55.93C166.41,56.08 166.07,56.21 165.73,56.35C165.41,56.48 165.07,56.57 164.76,56.73C164.4,56.91 164.03,57.07 163.65,57.19C163.34,57.29 163.2,57.44 163.2,57.76C163.2,58.12 162.99,58.37 162.65,58.51C162.46,58.59 162.26,58.67 162.06,58.74C161.54,58.93 161.11,58.81 160.76,58.38C160.44,57.98 160.28,57.53 160.32,57.01C160.32,56.94 160.36,56.87 160.29,56.8C160.2,56.81 160.13,56.88 160.06,56.94C159.73,57.19 159.4,57.43 159.08,57.68C158.19,58.36 157.3,59.04 156.41,59.73C156.25,59.85 156.1,59.99 155.95,60.12C155.91,60.16 155.86,60.19 155.89,60.28C155.95,60.45 155.88,60.56 155.7,60.54C155.56,60.52 155.47,60.58 155.39,60.67C155.02,61.06 154.65,61.45 154.2,61.75C154.18,61.76 154.17,61.77 154.16,61.79C154.1,61.91 154.03,62 153.87,61.99C153.81,61.99 153.77,62.04 153.77,62.1C153.78,62.27 153.71,62.45 153.88,62.58C153.96,62.64 153.96,62.71 153.93,62.8C153.88,62.92 153.92,63.06 154.02,63.12C154.21,63.24 154.36,63.38 154.5,63.55C154.56,63.62 154.66,63.64 154.75,63.6C154.85,63.56 154.84,63.47 154.85,63.39L154.85,63.25C154.89,62.85 155.07,62.56 155.47,62.43C155.66,62.37 155.85,62.29 156.03,62.22C156.42,62.06 156.77,62.15 157.06,62.43C157.48,62.83 157.67,63.33 157.63,63.91C157.6,64.29 157.41,64.56 157.06,64.72C156.87,64.81 156.67,64.87 156.48,64.95C156.07,65.12 155.7,65.05 155.41,64.73C155.25,64.56 155.11,64.55 154.91,64.62C153.84,65 152.79,65.41 151.75,65.84C151.56,65.92 151.45,66.01 151.45,66.23C151.45,66.69 151.21,66.98 150.78,67.13C150.51,67.22 150.25,67.33 149.99,67.42L149.66,67.39L149.69,67.42ZM162.31,55.93C162.46,56 162.58,56.11 162.71,56.21C162.84,56.32 162.91,56.32 163.04,56.21C163.18,56.09 163.17,55.99 163,55.91C162.88,55.86 162.8,55.78 162.78,55.66C162.74,55.48 162.58,55.41 162.44,55.33C162.38,55.29 162.32,55.31 162.26,55.35C162.01,55.5 161.79,55.68 161.58,55.89C161.83,55.86 162.07,55.82 162.31,55.93Z" style="fill:white;fill-rule:nonzero;"/>
            <path d="M169.52,18.03C169.05,17.62 168.87,16.98 168.35,16.61C168.05,16.4 167.87,15.93 167.44,15.98C166.88,15.9 166.34,15.61 165.76,15.52C165.4,15.45 165.3,15.02 164.95,14.93C164.17,14.49 163.85,15.27 163.27,15.55C162.31,15.76 161.33,15.67 160.37,15.85C159.03,16.19 157.56,16.59 156.18,16.32C155.5,16.2 154.9,15.82 154.23,15.68C153.35,15.59 152.55,15.21 151.71,15C151.55,15.01 151.51,14.81 151.36,14.78C151.24,14.73 151.09,14.75 151.04,14.61C150.95,14.4 150.64,14.49 150.56,14.26C150.07,13.59 149.45,14.18 148.96,13.95C148.84,13.85 148.83,13.71 148.87,13.56C149.06,12.75 149.09,11.81 148.77,11.03C148.43,10.27 148.22,9.22 147.36,8.85C146.5,8.52 145.62,8.32 144.7,8.5C143.04,8.73 142.2,10.47 141.85,11.94C141.67,12.22 141.12,11.92 140.82,11.96C140.6,11.93 140.41,11.97 140.25,12.13C139.93,12.34 139.5,12.36 139.12,12.4C139.01,12.4 138.96,12.38 138.94,12.27C138.66,11.68 137.51,11.95 137,12.11C136.53,12.29 136,12.87 135.51,12.53C135.56,12.37 135.42,12.41 135.36,12.4C135.14,12.38 134.98,12.22 134.76,12.19C134.5,12.13 134.21,12.21 133.95,12.15C133.31,11.97 132.63,12.18 132,11.95C130.78,11.73 129.6,11.34 128.37,11.14C126.69,10.53 125.36,9.24 123.81,8.38C121.7,7.28 119.17,6.65 117.59,4.84C117.34,4.69 117.66,4.55 117.74,4.4C117.68,3.69 116.83,5.22 116.46,3.28C116.43,3.01 116.03,2.98 115.95,3.24C115.89,3.42 115.92,3.73 115.64,3.6C115.15,3.34 114.82,2.83 114.34,2.55L114.17,2.55C113.78,2.84 114.55,3.19 114.23,3.48C113.85,3.24 113.34,2.85 112.89,2.94L112.89,3.2C115.59,5.92 112.99,4.75 114.02,5.77C114.12,5.82 114.2,5.9 114.23,6C114.32,6.29 114.6,6.39 114.83,6.54C115.16,6.87 115.6,6.79 116,6.91C116.13,7 116.28,7.03 116.44,7.02C118.67,7.47 120.47,10.98 122.68,12.08C123.56,12.78 124.42,13.47 125.54,13.74C127.25,14.57 130.17,15.27 130.56,16.31C130.91,17.23 132.23,17.34 133.16,17.76C134.25,18.83 135.59,21.01 134.79,22.39C134.41,23.05 134.42,23.35 134.04,24.32C133.86,24.79 133.7,25.24 133.47,25.64C132.69,27 132.41,29.7 132.37,29.98C132.31,30.4 131.98,31.55 132.49,31.71C132.6,31.77 132.81,31.72 132.87,31.85C132.88,32.02 132.96,32.18 132.81,32.36C132.47,32.72 132.49,33.19 132.65,33.64C132.6,34.22 132.28,34.77 132.19,35.35C132.03,35.85 132.44,36.32 132.23,36.83C132.31,38.33 131.92,39.84 132.11,41.34C132.24,41.83 131.65,41.74 131.79,42.21C131.81,42.38 131.55,42.93 132.11,43.04C132.21,43.06 132.24,43.65 132.3,43.74C132.45,44.12 132.27,44.48 132.23,44.86C132.04,46.46 132.73,46.75 133.31,48.1C133.37,48.36 133.69,48.81 133.71,49.08C133.79,50.91 133.48,52.78 133.94,54.58C134.7,57.83 137.56,58.03 137.81,54.49C137.95,53.55 137.48,52.73 137.42,51.82C137.35,50.63 137.7,49.45 137.37,48.27C137.34,48.11 137.4,47.93 137.46,47.77C137.6,47.36 137.93,47.05 137.94,46.56C137.88,46.01 137.79,45.5 138.13,45.05C138.54,44.53 138.61,43.9 138.72,43.28C138.8,42.87 138.53,42.01 139.12,41.73C139.95,41.34 139.26,40.94 139.39,40.41C139.72,39.4 139.82,37.4 141.05,37.13C142.45,36.93 143.85,36.53 145.28,36.5C145.8,36.36 146.37,36.52 146.84,36.2C147.38,36.03 147.56,35.4 148.06,35.2C148.57,35 149.87,35 149.72,34.5C149.39,33.38 150.8,33.3 150.93,33.68C151.3,35.94 150.61,38.35 151.55,40.51C152.42,42.72 152.48,45.18 152.67,47.49C152.64,47.69 152.4,47.78 152.43,48.02C152.36,48.39 152.16,48.74 152.27,49.12C152.38,49.74 152.58,50.34 152.79,50.92C153.01,51.61 155.18,50.74 155.74,50.65C156.89,50.08 162.48,49.52 161.64,47.74C161.37,46.83 160.13,47.04 159.38,47.09C159.17,47.13 158.94,47.14 158.76,46.97C158.58,46.91 158.36,46.91 158.21,46.77C157.78,46.46 157.16,46.68 156.77,46.32C156.59,46.18 156.25,46.13 156.36,45.82C156.41,45.63 156.34,45.47 156.26,45.31C156.09,45.05 156.11,44.73 155.97,44.46C155.83,44.21 156.03,43.94 156.02,43.67C156.03,43.02 155.41,43.3 155.49,42.86C155.74,40.73 155.98,38.58 156.11,36.44C156.15,34.54 155.97,32.64 155.6,30.79C155.5,29.7 155.36,28.5 154.39,27.82C153.56,27.35 152.64,27.02 151.67,27.07C151.08,27.1 150.51,26.71 149.94,27.01C149.43,27.23 148.81,27.12 148.29,27.29C147.74,27.53 147.23,27.65 146.64,27.75C148.38,26.55 147.8,24.48 148.97,22.85C149.55,21.7 150.9,21.3 152.19,21.45C152.93,21.66 153.45,21.01 153.87,20.56C153.89,20.18 154.11,19.79 154.5,19.68C155.47,19.55 156.47,19.66 157.42,19.85C157.83,19.99 158.22,19.98 158.61,19.77C159.57,19.29 160.68,19.17 161.61,18.61C162.22,18.24 162.89,17.96 163.47,17.52C163.65,17.4 164.37,17.41 164.45,17.63C164.55,17.91 164.87,18.02 165.13,18.08C165.65,18.14 165.51,18.71 165.84,18.95C166.34,19.22 166.21,18.31 166.2,18.01C166.49,18.24 166.42,18.57 166.6,18.85C166.71,19.09 167.23,19.26 167.19,18.85C167.19,18.8 167.15,18.74 167.19,18.67C167.41,18.87 167.78,18.8 167.76,18.44C167.81,18.47 167.81,18.5 167.82,18.54C167.87,18.85 168.32,18.95 168.53,18.76C168.67,18.47 168.31,18.21 168.35,17.9C168.84,18.09 169.5,19.29 169.99,18.68C169.95,18.42 169.58,18.3 169.51,18.02L169.52,18.03ZM155.51,43.42C155.97,43.46 155.67,44.09 155.53,44.36C155.44,44.06 155.23,43.61 155.51,43.42ZM145.83,19.89C145.55,20.19 145.26,20.48 144.99,20.79C144.78,21.03 144.55,21.25 144.34,21.49C144.17,21.69 143.95,21.87 143.85,22.12C143.63,22.65 143.42,22.64 143.28,22.96C143.22,23.09 143.13,23.15 143.31,23.46C143.43,23.7 143.49,23.96 143.57,24.21C143.62,24.35 143.65,24.5 143.69,24.64C143.82,25.09 144.06,25.47 144.3,25.85C144.58,26.32 144.92,26.75 145.11,27.27C145.14,27.36 145.19,27.45 145.11,27.55C145.04,27.64 144.95,27.62 144.86,27.61C144.46,27.55 144.07,27.45 143.67,27.43C143.52,27.43 143.45,27.34 143.41,27.21C143.26,26.75 143.01,26.34 142.79,25.92C142.54,25.43 142.29,24.95 142.19,24.4C142.11,23.95 141.94,23.53 141.72,23.14C141.71,23.12 141.7,23.09 141.67,23.07C141.67,23.3 141.75,23.5 141.77,23.72C141.81,23.99 141.78,24.25 141.78,24.52C141.78,24.8 141.79,25.08 141.82,25.37C141.82,25.46 141.81,25.54 141.79,25.63C141.72,26.01 141.64,26.39 141.56,26.78C141.53,26.95 141.47,27.11 141.29,27.19L140.12,27.02C139.91,26.92 139.88,26.83 139.94,26.6C140.15,25.87 140.36,25.14 140.53,24.4C140.57,24.2 140.62,24 140.65,23.8C140.68,23.55 140.56,23.29 140.65,23.06C140.71,22.89 140.59,22.64 140.49,22.3C140.38,21.91 140.3,21.5 140.27,21.09C140.24,20.67 140.33,20.26 140.44,19.85C140.52,19.54 140.61,19.23 140.66,18.91C140.68,18.77 140.75,18.75 140.85,18.75C140.95,18.75 141.04,18.77 141.13,18.79C141.44,18.88 141.75,18.91 142.06,18.96C142.25,18.99 142.32,19.09 142.27,19.28C142.16,19.74 142.05,20.2 141.94,20.66C141.83,21.1 141.87,21.54 141.94,22.03C142.06,21.83 142.17,21.68 142.25,21.51C142.32,21.38 142.4,21.27 142.49,21.16C142.8,20.79 143.12,20.42 143.46,20.09C143.68,19.87 143.89,19.65 144.1,19.42C144.21,19.3 144.33,19.26 144.49,19.3C144.86,19.39 145.24,19.47 145.61,19.55C145.67,19.56 145.72,19.57 145.77,19.6C145.88,19.68 145.88,19.82 145.78,19.93L145.83,19.89Z" style="fill:white;fill-rule:nonzero;"/>
        </g>
    </g>
    <g transform="matrix(2.95309,0,0,2.95309,675,431.016)">
        <g transform="matrix(1,0,0,1,-200,-70)">
            <path d="M178,103C174.699,103.008 171.438,102.273 168.46,100.85C165.961,99.703 163.717,98.067 161.86,96.04C161.679,95.83 161.58,95.561 161.58,95.284C161.58,94.938 161.734,94.61 162,94.39L165.91,91C166.376,90.611 167.07,90.641 167.5,91.07C170.76,94.257 174.31,95.853 178.15,95.86C180.351,95.965 182.536,95.441 184.45,94.35C185.989,93.425 186.901,91.724 186.82,89.93C186.811,88.418 186.186,86.973 185.09,85.93C184.068,84.845 182.863,83.948 181.53,83.28C180.31,82.7 178.513,81.957 176.14,81.05C171.4,79.28 167.8,77.3 165.37,75.11C162.931,72.904 161.593,69.726 161.72,66.44C161.607,62.893 163.27,59.514 166.15,57.44C169.435,55.117 173.399,53.946 177.42,54.11C183.031,53.916 188.462,56.151 192.31,60.24C192.505,60.452 192.614,60.73 192.614,61.018C192.614,61.364 192.458,61.692 192.19,61.91L188.45,65.03C187.99,65.4 187.32,65.374 186.89,64.97C184.312,62.529 180.88,61.186 177.33,61.23C175.351,61.13 173.385,61.606 171.67,62.6C170.33,63.402 169.526,64.869 169.57,66.43C169.562,67.313 169.798,68.182 170.25,68.94C170.878,69.854 171.728,70.594 172.72,71.09C173.9,71.76 174.85,72.26 175.55,72.59C176.25,72.92 177.55,73.46 179.43,74.19C184.35,75.963 188.107,77.963 190.7,80.19C193.293,82.417 194.587,85.583 194.58,89.69C194.743,93.46 193.072,97.085 190.1,99.41C187.12,101.803 183.087,103 178,103Z" style="fill:white;fill-rule:nonzero;"/>
            <path d="M207.66,45.33C206.712,46.26 205.428,46.769 204.1,46.74C202.777,46.771 201.501,46.24 200.59,45.28C199.237,43.884 198.784,41.837 199.42,40C199.473,39.803 199.554,39.614 199.66,39.44C200.831,37.185 203.521,36.135 205.91,37C206.113,37.059 206.305,37.15 206.48,37.27C208.111,38.212 209.119,39.957 209.12,41.84C209.145,43.156 208.615,44.424 207.66,45.33ZM200.18,100L200.18,57.13C200.18,56.088 201.038,55.23 202.08,55.23L206.22,55.23C207.262,55.23 208.12,56.088 208.12,57.13L208.12,100C208.12,101.042 207.262,101.9 206.22,101.9L202.08,101.9C201.038,101.9 200.18,101.042 200.18,100Z" style="fill:white;fill-rule:nonzero;"/>
            <path d="M232,120.15L229.56,116.15C229.445,115.966 229.385,115.754 229.385,115.537C229.385,114.932 229.857,114.424 230.46,114.38C236.18,113.91 240.22,112.78 242.55,111C245.093,109.112 246.547,106.085 246.43,102.92L246.43,100.25C246.422,99.625 245.905,99.116 245.28,99.116C244.986,99.116 244.703,99.228 244.49,99.43C241.698,101.87 238.075,103.148 234.37,103C229.085,103.086 224.047,100.725 220.73,96.61C217.11,92.35 215.3,86.327 215.3,78.54C215.3,71 217.08,65.053 220.64,60.7C224.011,56.438 229.208,54.014 234.64,54.17C238.206,54.062 241.704,55.185 244.54,57.35C244.743,57.507 244.993,57.593 245.25,57.593C245.886,57.593 246.41,57.069 246.41,56.433C246.41,56.432 246.41,56.431 246.41,56.43C246.41,55.794 246.934,55.27 247.57,55.27L253.18,55.27C253.183,55.27 253.187,55.27 253.19,55.27C253.826,55.27 254.35,55.794 254.35,56.43L254.35,100C254.35,107.12 252.447,112.26 248.64,115.42C244.967,118.48 239.777,120.26 233.07,120.76C232.628,120.771 232.215,120.536 232,120.15ZM236,95.57C238.062,95.532 240.072,94.915 241.8,93.79C243.616,92.664 245.138,91.121 246.24,89.29C246.351,89.098 246.409,88.881 246.41,88.66L246.41,68C246.413,67.769 246.347,67.543 246.22,67.35C245.093,65.616 243.558,64.184 241.75,63.18C240.023,62.097 238.038,61.493 236,61.43C231.873,61.43 228.727,62.907 226.56,65.86C224.393,68.813 223.317,73.027 223.33,78.5C223.33,83.793 224.5,87.96 226.84,91C228.953,93.935 232.384,95.647 236,95.57Z" style="fill:white;fill-rule:nonzero;"/>
            <path d="M291.72,101.86C291.717,101.86 291.713,101.86 291.71,101.86C291.074,101.86 290.55,101.336 290.55,100.7L290.55,73.7C290.55,69.513 289.653,66.427 287.86,64.44C285.973,62.407 283.281,61.308 280.51,61.44C273.33,61.44 269.74,65.457 269.74,73.49L269.74,100.7C269.74,101.336 269.216,101.86 268.58,101.86L263,101.86C262.997,101.86 262.993,101.86 262.99,101.86C262.354,101.86 261.83,101.336 261.83,100.7L261.83,56.39C261.83,55.754 262.354,55.23 262.99,55.23C262.993,55.23 262.997,55.23 263,55.23L268.61,55.23C269.246,55.23 269.77,55.754 269.77,56.39L269.77,56.931C269.77,57.567 270.294,58.091 270.93,58.091C271.223,58.091 271.505,57.98 271.72,57.78C274.487,55.304 278.109,53.995 281.82,54.13C287.3,54.13 291.453,55.797 294.28,59.13C297.107,62.463 298.51,67.753 298.49,75L298.49,100.7C298.49,101.336 297.966,101.86 297.33,101.86L291.72,101.86Z" style="fill:white;fill-rule:nonzero;"/>
            <path d="M9.83,41.23C9.83,39.491 11.261,38.06 13,38.06L33.38,38.06C38.258,37.97 43.102,38.885 47.61,40.75C51.444,42.32 54.821,44.831 57.43,48.05C59.814,51.097 61.636,54.544 62.81,58.23C64.013,62.037 64.614,66.008 64.59,70C64.592,72.995 64.257,75.98 63.59,78.9C62.873,81.905 61.735,84.794 60.21,87.48C58.666,90.261 56.661,92.76 54.28,94.87C51.63,97.126 48.576,98.86 45.28,99.98C41.35,101.349 37.212,102.025 33.05,101.98L13,101.98C11.261,101.98 9.83,100.549 9.83,98.81L9.83,41.23ZM34.47,88.71C39.703,88.71 43.627,86.84 46.24,83.1C48.891,79.254 50.266,74.67 50.17,70C50.268,65.338 48.946,60.754 46.38,56.86C44.015,53.174 39.856,51.014 35.48,51.2L26.87,51.2C25.131,51.2 23.7,52.631 23.7,54.37L23.7,85.54C23.7,87.279 25.131,88.71 26.87,88.71L34.47,88.71Z" style="fill:white;fill-rule:nonzero;"/>
            <path d="M73.21,98.77L73.21,41.23C73.21,39.491 74.641,38.06 76.38,38.06L83.92,38.06C85.659,38.06 87.09,39.491 87.09,41.23L87.09,98.77C87.09,100.509 85.659,101.94 83.92,101.94L76.38,101.94C74.641,101.94 73.21,100.509 73.21,98.77Z" style="fill:white;fill-rule:nonzero;"/>
            <path d="M96.71,41.23C96.71,39.491 98.141,38.06 99.88,38.06L120.26,38.06C125.138,37.97 129.982,38.885 134.49,40.75C138.324,42.32 141.701,44.831 144.31,48.05C146.694,51.097 148.516,54.544 149.69,58.23C150.893,62.037 151.494,66.008 151.47,70C151.472,72.995 151.137,75.98 150.47,78.9C149.753,81.905 148.615,84.794 147.09,87.48C145.546,90.261 143.541,92.76 141.16,94.87C138.51,97.126 135.456,98.86 132.16,99.98C128.23,101.349 124.092,102.025 119.93,101.98L99.93,101.98C98.191,101.98 96.76,100.549 96.76,98.81L96.71,41.23ZM121.35,88.71C126.577,88.71 130.503,86.84 133.13,83.1C135.773,79.251 137.144,74.668 137.05,70C137.148,65.338 135.826,60.754 133.26,56.86C130.895,53.174 126.736,51.014 122.36,51.2L113.75,51.2C112.011,51.2 110.58,52.631 110.58,54.37L110.58,85.54C110.58,87.279 112.011,88.71 113.75,88.71L121.35,88.71Z" style="fill:white;fill-rule:nonzero;"/>
            <path d="M387,66.16C388.735,66.16 390.165,64.735 390.17,63L390.17,42.61C390.259,37.729 389.343,32.882 387.48,28.37C385.907,24.54 383.397,21.167 380.18,18.56C377.135,16.174 373.687,14.352 370,13.18C366.193,11.977 362.222,11.377 358.23,11.4C355.235,11.392 352.249,11.728 349.33,12.4C346.325,13.117 343.436,14.255 340.75,15.78C337.969,17.324 335.47,19.329 333.36,21.71C331.096,24.355 329.361,27.41 328.25,30.71C326.881,34.64 326.205,38.778 326.25,42.94L326.25,63C326.25,64.739 327.681,66.17 329.42,66.17L351.26,66.17L351.26,73.85L329.45,73.85C327.719,73.85 326.291,75.269 326.28,77L326.28,97C326.235,101.162 326.911,105.3 328.28,109.23C329.391,112.53 331.126,115.585 333.39,118.23C335.5,120.611 337.999,122.616 340.78,124.16C343.466,125.685 346.355,126.823 349.36,127.54C352.279,128.212 355.265,128.548 358.26,128.54C362.239,128.58 366.2,127.999 370,126.82C373.687,125.648 377.135,123.826 380.18,121.44C383.397,118.833 385.907,115.46 387.48,111.63C389.343,107.118 390.259,102.271 390.17,97.39L390.17,77C390.165,75.265 388.735,73.84 387,73.84L365.16,73.84L365.16,66.16L387,66.16ZM373.86,87.72C375.586,87.731 377,89.154 377,90.88L377,99.49C377.185,103.869 375.026,108.03 371.34,110.4C367.442,112.956 362.86,114.274 358.2,114.18C353.531,114.276 348.948,112.905 345.1,110.26C341.36,107.64 339.49,103.717 339.49,98.49L339.49,90.88C339.49,89.146 340.916,87.72 342.65,87.72C342.653,87.72 342.657,87.72 342.66,87.72L351.26,87.72L351.26,98.72C351.26,100.459 352.691,101.89 354.43,101.89L362,101.89C363.739,101.89 365.17,100.459 365.17,98.72L365.17,87.72L373.86,87.72ZM342.69,52.28C342.687,52.28 342.683,52.28 342.68,52.28C340.946,52.28 339.52,50.854 339.52,49.12L339.52,41.51C339.52,36.283 341.39,32.36 345.13,29.74C348.978,27.095 353.561,25.724 358.23,25.82C362.89,25.726 367.472,27.044 371.37,29.6C375.045,31.977 377.192,36.137 377,40.51L377,49.12C377,50.854 375.574,52.28 373.84,52.28C373.837,52.28 373.833,52.28 373.83,52.28L365.13,52.28L365.13,41.23C365.13,39.506 363.724,38.082 362,38.06L354.47,38.06C352.731,38.06 351.3,39.491 351.3,41.23L351.3,52.28L342.69,52.28Z" style="fill:rgb(178,2,48);fill-rule:nonzero;"/>
        </g>
    </g>
    <g transform="matrix(4.16667,0,0,4.16667,2025,2025)">
        <g transform="matrix(1,0,0,1,-150,-70)">
            <path d="M96.46,129.17C86.78,129.17 77.67,125.11 71.22,118.1C64.75,125.12 55.65,129.17 45.98,129.17C27.04,129.17 11.64,113.78 11.64,94.86L11.64,69.58C11.64,64.57 15.72,60.49 20.73,60.49C25.74,60.49 29.82,64.57 29.82,69.58L29.82,94.31C29.82,103.17 36.77,110.65 45.32,110.99C45.54,110.99 45.76,111 45.98,111C54.76,111 61.99,103.88 62.13,95.11L62.13,69.56C62.14,64.56 66.22,60.48 71.22,60.48C76.22,60.48 80.3,64.55 80.3,69.56L80.32,94.85L80.32,95.15C80.43,103.84 87.67,111 96.47,111C96.69,111 96.91,111 97.13,110.99C105.68,110.65 112.63,103.17 112.63,94.31L112.63,69.58C112.63,64.57 116.71,60.49 121.72,60.49C126.73,60.49 130.81,64.57 130.81,69.58L130.81,94.86C130.81,113.78 115.4,129.17 96.47,129.17L96.46,129.17Z" style="fill:white;fill-rule:nonzero;"/>
            <path d="M149.99,129.17C144.98,129.17 140.9,125.09 140.9,120.08C140.9,115.07 144.98,110.99 149.99,110.99L174.72,110.99C183.58,110.99 191.06,104.04 191.4,95.49C191.58,91.09 190,86.91 186.97,83.72C183.94,80.53 179.85,78.74 175.47,78.68L149.98,78.68C144.98,78.67 140.9,74.59 140.9,69.59C140.9,64.59 144.97,60.51 149.98,60.51L175.27,60.49L175.54,60.49C179.85,60.44 183.94,58.65 186.97,55.46C190,52.27 191.57,48.09 191.4,43.69C191.06,35.14 183.58,28.19 174.72,28.19L149.99,28.19C144.98,28.19 140.9,24.11 140.9,19.1C140.9,14.09 144.98,10.01 149.99,10.01L175.27,10.01C194.19,10.01 209.58,25.42 209.58,44.35C209.58,54.03 205.52,63.13 198.51,69.59C205.51,76.04 209.58,85.15 209.58,94.83C209.58,113.77 194.19,129.17 175.27,129.17L149.99,129.17Z" style="fill:white;fill-rule:nonzero;"/>
            <path d="M279.28,130C274.27,130 270.19,125.92 270.19,120.91L270.19,95.63C270.19,86.73 262.94,79.49 254.03,79.49C253.83,79.49 253.63,79.49 253.43,79.5C244.85,79.81 237.87,87.29 237.87,96.18L237.87,120.91C237.87,125.92 233.79,130 228.78,130C223.77,130 219.69,125.92 219.69,120.91L219.69,95.63C219.69,76.71 235.1,61.32 254.03,61.32C272.96,61.32 288.37,76.71 288.37,95.63L288.37,120.91C288.37,125.92 284.29,130 279.28,130Z" style="fill:white;fill-rule:nonzero;"/>
        </g>
    </g>
    <g transform="matrix(6.43939,0,0,6.43939,1350,1175.29)">
        <g transform="matrix(1,0,0,1,-55,-55)">
            <circle cx="55" cy="55" r="54.5" style="fill:white;"/>
            <path d="M55,1C84.624,1 109,25.376 109,55C109,84.624 84.624,109 55,109C25.376,109 1,84.624 1,55C1.033,25.389 25.389,1.033 55,1M55,0C24.828,0 -0,24.828 0,55C0,85.172 24.828,110 55,110C85.172,110 110,85.172 110,55C110,24.828 85.172,0 55,0Z" style="fill:rgb(187,41,75);fill-rule:nonzero;"/>
            <path d="M77.84,27.77L90,61.17L67.16,88.4L32.16,82.22L20,48.83L42.84,21.6L77.84,27.77Z" style="fill:rgb(187,41,75);fill-rule:nonzero;"/>
            <path d="M77.84,27.77L90,61.17L55,55L42.84,21.6L77.84,27.77Z" style="fill:rgb(228,51,102);fill-rule:nonzero;"/>
            <g opacity="0.85">
                <path d="M77.84,27.77L77.84,27.78L55,55L20,48.83L42.84,21.6L77.84,27.77Z" style="fill:rgb(228,51,102);fill-rule:nonzero;"/>
            </g>
            <g opacity="0.85">
                <path d="M77.84,27.77L90,61.17L67.16,88.4L67.15,88.4L55,55L77.84,27.78L77.84,27.77Z" style="fill:rgb(228,51,102);fill-rule:nonzero;"/>
            </g>
        </g>
    </g>
</svg>
