<svg id="ab523232-6478-4cfe-925b-8c4ce329170d" data-name="Ebene 1" xmlns="http://www.w3.org/2000/svg" xmlns:xlink="http://www.w3.org/1999/xlink" viewBox="0 0 512 512"><defs><style>.fba1c953-cabb-4e9b-b755-e27679ae4371{fill:#8c175b;}.f8d01206-0986-4c7e-885d-9010b0d80303{fill:#ea5b2a;}.bfef74f7-f800-42b9-8db5-78ff48830ec6{fill:url(#bde11795-2332-4ad7-9705-39f0ab643781);}.f18bd4df-0245-4466-9407-b2a127722d7e{fill:url(#a64bb59b-2a0c-4b73-8978-8fa6e167ac8d);}.b174eb67-c860-4e4c-9bb0-11876536b516{fill:url(#a523e0c3-bca5-49bb-a7d4-dd64df674a9a);}.f58d6084-ad60-4cec-9b35-46524bb4d9f2{fill:url(#fa3e8e5c-0fbb-410c-b788-e4e1493a22a0);}</style><linearGradient id="bde11795-2332-4ad7-9705-39f0ab643781" x1="220.46" y1="209.71" x2="256" y2="209.71" gradientUnits="userSpaceOnUse"><stop offset="0" stop-color="#f96943"/><stop offset="0.45" stop-color="#f46640"/><stop offset="1" stop-color="#e55d38"/></linearGradient><linearGradient id="a64bb59b-2a0c-4b73-8978-8fa6e167ac8d" x1="258.87" y1="297.4" x2="291.54" y2="297.4" gradientUnits="userSpaceOnUse"><stop offset="0" stop-color="#ce4e2c"/><stop offset="1" stop-color="#ce4e2c"/></linearGradient><linearGradient id="a523e0c3-bca5-49bb-a7d4-dd64df674a9a" x1="258.87" y1="239.2" x2="291.56" y2="239.2" gradientUnits="userSpaceOnUse"><stop offset="0" stop-color="#e05935"/><stop offset="1" stop-color="#ce4e2c"/></linearGradient><linearGradient id="fa3e8e5c-0fbb-410c-b788-e4e1493a22a0" x1="220.82" y1="268.78" x2="256" y2="268.78" gradientUnits="userSpaceOnUse"><stop offset="0" stop-color="#f96943"/><stop offset="0.46" stop-color="#f46640"/><stop offset="1" stop-color="#e55c38"/></linearGradient></defs><path class="fba1c953-cabb-4e9b-b755-e27679ae4371" d="M391.88,204.93a10.91,10.91,0,0,1,5.22,1.82,46.73,46.73,0,0,1,9.39,7.73c6.83,6.89,12.58,14.73,17.84,22.35a27,27,0,0,0-.24,38.69c-5.2,7.51-10.87,15.22-17.6,22a46.73,46.73,0,0,1-9.39,7.73,10.91,10.91,0,0,1-5.22,1.82,1.52,1.52,0,0,1-.86-.17s-.4-1.57,1.94-5.54c.81-1.38,1.72-2.76,2.68-4.21a54.74,54.74,0,0,0,6-10.83c2.05-5.37,2-10-.19-13.74s-6.13-6.1-11.77-7a89.29,89.29,0,0,0-12.23-.84c-2.57-.05-5-.11-7.38-.31a71,71,0,0,1-16-3.37c-6.69-2.35-8-4.47-8.17-4.78.21-.56,2-2.74,8.1-5a65.55,65.55,0,0,1,16.1-3.66c2.38-.2,4.81-.26,7.38-.31a89.29,89.29,0,0,0,12.23-.84c5.64-.9,9.6-3.25,11.77-7s2.24-8.37.19-13.74a54.74,54.74,0,0,0-6-10.83c-1-1.45-1.87-2.83-2.68-4.21-2.32-3.94-1.95-5.51-1.95-5.51a1.36,1.36,0,0,1,.87-.2m0-6.55a7.5,7.5,0,0,0-5.65,2.27c-2.71,2.9-2.32,7.51,1.09,13.3,2.75,4.68,6.25,8.92,8.21,14.06,2.63,6.91.34,10.8-6.87,12-6.36,1-12.8.54-19.16,1.09-10.2.88-30.18,6-30.18,15.25s20,13.77,30.18,14.65c6.36.55,12.8.08,19.16,1.09,7.21,1.15,9.5,5,6.87,11.95-2,5.14-5.46,9.38-8.21,14.06-3.41,5.79-3.8,10.4-1.09,13.3a7.48,7.48,0,0,0,5.65,2.27,17.48,17.48,0,0,0,8.51-2.71,52.8,52.8,0,0,0,10.75-8.78c7.81-7.89,14.23-16.87,20.47-26a4.56,4.56,0,0,0,.93-2.3,20.44,20.44,0,0,1,0-35.06,3.87,3.87,0,0,0-.89-2.92c-6.24-9.12-12.66-18.1-20.47-26a52.8,52.8,0,0,0-10.75-8.78,17.48,17.48,0,0,0-8.51-2.71Z"/><path class="fba1c953-cabb-4e9b-b755-e27679ae4371" d="M452.84,242.36A13.94,13.94,0,1,1,438.9,256.3a14,14,0,0,1,13.94-13.94m0-6.54a20.48,20.48,0,1,0,20.48,20.48,20.48,20.48,0,0,0-20.48-20.48Z"/><path class="f8d01206-0986-4c7e-885d-9010b0d80303" d="M332.49,120.22h.56c9.71,0,19.31,1.53,28.43,3.2a27,27,0,0,0,27,27.51h.2c1.63,9,3.07,18.46,3.12,28a47,47,0,0,1-1.18,12.1c-1.09,4.11-2.71,5.46-3.13,5.47,0,0-1.39-.83-2.55-5.29-.4-1.55-.73-3.17-1.08-4.87a54.81,54.81,0,0,0-3.42-11.91c-3.7-8.25-9.11-10-13-10h0c-3.29,0-6.6,1.24-10.11,3.79a88.2,88.2,0,0,0-9.24,8.06c-1.86,1.77-3.61,3.45-5.44,5-8.54,7.18-17.86,11.47-21.94,11.47a2.66,2.66,0,0,1-.93-.12c-.25-.54-.52-3.35,2.15-9.3a65.86,65.86,0,0,1,8.8-14c1.54-1.83,3.22-3.58,5-5.44a89.31,89.31,0,0,0,8.05-9.24c3.36-4.62,4.49-9.09,3.38-13.27s-4.34-7.5-9.58-9.85a55,55,0,0,0-11.91-3.42c-1.7-.35-3.32-.68-4.87-1.08-4.43-1.15-5.27-2.52-5.28-2.52,0-.44,1.31-2.06,5.46-3.16a45.4,45.4,0,0,1,11.54-1.18m0-6.54a51.52,51.52,0,0,0-13.21,1.39c-6.64,1.76-10.47,5.35-10.33,9.7.13,4,3.67,7,10.17,8.64,5.26,1.37,10.73,1.89,15.75,4.14,6.75,3,7.88,7.39,3.59,13.3-3.78,5.21-8.66,9.44-12.77,14.32-6.59,7.84-17.11,25.58-10.57,32.12a7.55,7.55,0,0,0,5.56,2c8,0,20-7.83,26.15-13,4.88-4.11,9.11-9,14.32-12.77,2.32-1.68,4.41-2.53,6.26-2.53,2.88,0,5.21,2,7,6.12,2.25,5,2.77,10.49,4.14,15.75,1.68,6.5,4.66,10,8.63,10.17h.24c4.24,0,7.74-3.81,9.47-10.33a53,53,0,0,0,1.39-13.8c-.05-11.1-1.87-22-3.91-32.86a4.54,4.54,0,0,0-1-2.28,20.59,20.59,0,0,1-5,.61A20.42,20.42,0,0,1,368.63,119a3.9,3.9,0,0,0-2.69-1.42c-10.87-2-21.76-3.86-32.86-3.91Z"/><path class="f8d01206-0986-4c7e-885d-9010b0d80303" d="M395.4,103.09a13.93,13.93,0,1,1-9.86,4.08,13.84,13.84,0,0,1,9.86-4.08m0-6.55a20.48,20.48,0,1,0,14.48,6,20.38,20.38,0,0,0-14.48-6Z"/><path class="fba1c953-cabb-4e9b-b755-e27679ae4371" d="M236.83,87.67a27,27,0,0,0,38.69.24c7.51,5.2,15.22,10.87,22,17.6a46.73,46.73,0,0,1,7.73,9.39c2.16,3.71,1.94,5.79,1.65,6.08a1.2,1.2,0,0,1-.33,0c-.56,0-2.19-.19-5.21-2-1.38-.81-2.76-1.72-4.21-2.68a54.74,54.74,0,0,0-10.83-6,20.22,20.22,0,0,0-7.23-1.49c-10.26,0-12.87,9.4-13.51,13.45a89.4,89.4,0,0,0-.84,12.23c-.05,2.57-.11,5-.31,7.38a71,71,0,0,1-3.37,16c-2.35,6.69-4.47,8-4.78,8.17-.56-.21-2.74-2-5-8.1a65.55,65.55,0,0,1-3.66-16.1c-.2-2.38-.26-4.81-.31-7.38a89.4,89.4,0,0,0-.84-12.23c-.64-4-3.25-13.45-13.51-13.45a20.22,20.22,0,0,0-7.23,1.49,54.74,54.74,0,0,0-10.83,6c-1.45,1-2.83,1.87-4.21,2.68-3,1.78-4.65,2-5.21,2a2.45,2.45,0,0,1-.31,0c-.31-.31-.52-2.39,1.63-6.09a46.73,46.73,0,0,1,7.73-9.39c6.89-6.83,14.73-12.58,22.35-17.84m1.46-8.22a4.4,4.4,0,0,0-2.43.94c-9.12,6.24-18.1,12.66-26,20.47a52.8,52.8,0,0,0-8.78,10.75c-3.45,5.93-3.61,11.18-.44,14.16a6.78,6.78,0,0,0,4.78,1.78c2.41,0,5.28-1,8.52-2.87,4.68-2.75,8.92-6.25,14.06-8.21a14.1,14.1,0,0,1,4.9-1c3.9,0,6.21,2.64,7.05,7.92,1,6.36.54,12.8,1.09,19.16.88,10.2,6,30.18,15.25,30.18s13.77-20,14.65-30.18c.55-6.36.08-12.8,1.09-19.16.84-5.28,3.15-7.92,7-7.92a14.1,14.1,0,0,1,4.9,1c5.14,2,9.38,5.46,14.06,8.21,3.24,1.91,6.11,2.87,8.52,2.87a6.76,6.76,0,0,0,4.78-1.78c3.17-3,3-8.23-.44-14.16a52.8,52.8,0,0,0-8.78-10.75c-7.89-7.81-16.87-14.23-26-20.47a4.65,4.65,0,0,0-2.3-.93,20.44,20.44,0,0,1-35.06,0,2.63,2.63,0,0,0-.49,0Z"/><path class="fba1c953-cabb-4e9b-b755-e27679ae4371" d="M256.3,45.23a13.94,13.94,0,1,1-13.94,13.93A13.95,13.95,0,0,1,256.3,45.23m0-6.55a20.48,20.48,0,1,0,20.47,20.48A20.48,20.48,0,0,0,256.3,38.68Z"/><path class="f8d01206-0986-4c7e-885d-9010b0d80303" d="M179.51,120.22a45.4,45.4,0,0,1,11.54,1.18c4.16,1.1,5.47,2.73,5.47,3.13,0,0-.83,1.39-5.29,2.55-1.55.4-3.17.73-4.87,1.08a55,55,0,0,0-11.91,3.42c-5.23,2.35-8.46,5.66-9.58,9.85s0,8.65,3.38,13.27a89.31,89.31,0,0,0,8.05,9.24c1.78,1.86,3.46,3.61,5,5.44a70.86,70.86,0,0,1,8.95,13.72c3.06,6.36,2.51,8.8,2.4,9.15a3.32,3.32,0,0,1-1.14.15c-5.34,0-15.75-5.74-22.13-11.1-1.83-1.54-3.58-3.22-5.44-5a88.2,88.2,0,0,0-9.24-8.06c-3.51-2.55-6.82-3.79-10.11-3.79-3.9,0-9.31,1.74-13,10a55,55,0,0,0-3.42,11.91c-.35,1.71-.68,3.32-1.08,4.87-1.15,4.44-2.53,5.28-2.54,5.28h0c-.43,0-2.05-1.35-3.14-5.46a47,47,0,0,1-1.18-12.1c0-9.71,1.53-19.32,3.2-28.44H124a27,27,0,0,0,27-27.18c9-1.63,18.44-3.07,28-3.12h.56m0-6.54h-.59c-11.1,0-22,1.87-32.86,3.91a4.54,4.54,0,0,0-2.28,1A20.42,20.42,0,0,1,124,144a20.76,20.76,0,0,1-4.95-.6,3.9,3.9,0,0,0-1.42,2.69c-2,10.87-3.86,21.76-3.91,32.86a53,53,0,0,0,1.39,13.8c1.73,6.52,5.23,10.33,9.47,10.33h.24c4-.13,6.95-3.67,8.63-10.17,1.37-5.26,1.89-10.73,4.14-15.75,1.83-4.1,4.17-6.12,7-6.12,1.85,0,3.94.85,6.26,2.53,5.21,3.78,9.44,8.66,14.32,12.77,6.1,5.13,18.19,12.63,26.34,12.63a7.87,7.87,0,0,0,5.78-2.06c6.55-6.55-4.39-23.87-11-31.71-4.11-4.88-9-9.11-12.77-14.32-4.29-5.91-3.16-10.28,3.59-13.3,5-2.25,10.49-2.77,15.75-4.14,6.5-1.68,10-4.66,10.17-8.64.14-4.35-3.69-7.94-10.33-9.7a51.52,51.52,0,0,0-13.21-1.39Z"/><path class="f8d01206-0986-4c7e-885d-9010b0d80303" d="M117,102.67a13.94,13.94,0,1,1-9.85,4.08,13.88,13.88,0,0,1,9.85-4.08m0-6.54a20.47,20.47,0,1,0,14.48,6,20.45,20.45,0,0,0-14.48-6Z"/><path class="fba1c953-cabb-4e9b-b755-e27679ae4371" d="M120.12,204.93a1.52,1.52,0,0,1,.86.17s.4,1.57-1.94,5.54c-.81,1.38-1.72,2.76-2.68,4.21a54.74,54.74,0,0,0-6,10.83c-2,5.37-2,10,.19,13.74s6.13,6.1,11.77,7a89.29,89.29,0,0,0,12.23.84c2.57.05,5,.11,7.38.31a71,71,0,0,1,16,3.37c6.69,2.35,8,4.47,8.17,4.78-.21.56-2,2.74-8.1,5a65.55,65.55,0,0,1-16.1,3.66c-2.38.2-4.81.26-7.38.31a89.29,89.29,0,0,0-12.23.84c-5.64.9-9.6,3.25-11.77,7s-2.24,8.37-.19,13.74a54.74,54.74,0,0,0,6,10.83c1,1.45,1.87,2.83,2.68,4.21,2.32,3.94,1.95,5.51,1.95,5.51a1.36,1.36,0,0,1-.87.2,10.91,10.91,0,0,1-5.22-1.82,46.73,46.73,0,0,1-9.39-7.73c-6.83-6.89-12.58-14.73-17.84-22.35a27,27,0,0,0,.24-38.69c5.2-7.51,10.87-15.22,17.6-22a46.73,46.73,0,0,1,9.39-7.73,10.91,10.91,0,0,1,5.22-1.82m0-6.55a17.48,17.48,0,0,0-8.51,2.71,52.8,52.8,0,0,0-10.75,8.78c-7.81,7.89-14.23,16.87-20.47,26a4.56,4.56,0,0,0-.93,2.3,20.44,20.44,0,0,1,0,35.06,3.87,3.87,0,0,0,.89,2.92c6.24,9.12,12.66,18.1,20.47,26a52.8,52.8,0,0,0,10.75,8.78,17.48,17.48,0,0,0,8.51,2.71,7.5,7.5,0,0,0,5.65-2.27c2.71-2.9,2.32-7.51-1.09-13.3-2.75-4.68-6.25-8.92-8.21-14.06-2.63-6.91-.34-10.8,6.87-11.95,6.36-1,12.8-.54,19.16-1.09,10.2-.88,30.18-6,30.18-15.25s-20-13.77-30.18-14.65c-6.36-.55-12.8-.08-19.16-1.09-7.21-1.15-9.5-5-6.87-12,2-5.14,5.46-9.38,8.21-14.06,3.41-5.79,3.8-10.4,1.09-13.3a7.48,7.48,0,0,0-5.65-2.27Z"/><path class="fba1c953-cabb-4e9b-b755-e27679ae4371" d="M59.16,241.77A13.94,13.94,0,1,1,45.22,255.7a14,14,0,0,1,13.94-13.93m0-6.54A20.48,20.48,0,1,0,79.64,255.7a20.48,20.48,0,0,0-20.48-20.47Z"/><path class="f8d01206-0986-4c7e-885d-9010b0d80303" d="M124.53,315.48s1.39.83,2.55,5.29c.4,1.55.73,3.17,1.08,4.87a54.81,54.81,0,0,0,3.42,11.91c3.7,8.25,9.11,10,13,10,3.29,0,6.6-1.24,10.11-3.79a88.2,88.2,0,0,0,9.24-8.06c1.86-1.77,3.61-3.45,5.44-5,8.54-7.18,17.86-11.47,21.94-11.47a2.66,2.66,0,0,1,.93.12c.25.54.52,3.35-2.15,9.3a65.86,65.86,0,0,1-8.8,14c-1.54,1.83-3.22,3.58-5,5.44a89.31,89.31,0,0,0-8.05,9.24c-3.36,4.62-4.49,9.09-3.38,13.27s4.34,7.5,9.58,9.85a55,55,0,0,0,11.91,3.42c1.7.35,3.32.68,4.87,1.08,4.43,1.15,5.27,2.52,5.28,2.52,0,.44-1.31,2.06-5.46,3.16a45.4,45.4,0,0,1-11.54,1.18H179c-9.71,0-19.31-1.53-28.43-3.2a27,27,0,0,0-27-27.51h-.2c-1.63-9-3.07-18.46-3.12-28A47,47,0,0,1,121.4,321c1.09-4.11,2.71-5.46,3.14-5.46h0m0-6.53c-4.24,0-7.74,3.81-9.47,10.33a53,53,0,0,0-1.39,13.8c0,11.1,1.87,22,3.91,32.86a4.54,4.54,0,0,0,1,2.28,20.59,20.59,0,0,1,5-.61A20.42,20.42,0,0,1,143.37,393a3.9,3.9,0,0,0,2.69,1.42c10.87,2,21.76,3.86,32.86,3.91h.59a51.52,51.52,0,0,0,13.21-1.39c6.64-1.76,10.47-5.35,10.33-9.7-.13-4-3.67-7-10.17-8.64-5.26-1.37-10.73-1.89-15.75-4.14-6.75-3-7.88-7.39-3.59-13.3,3.78-5.21,8.66-9.44,12.77-14.32,6.59-7.84,17.11-25.58,10.57-32.12a7.55,7.55,0,0,0-5.56-2c-8,0-20,7.83-26.15,13-4.88,4.11-9.11,9-14.32,12.77-2.32,1.68-4.41,2.53-6.26,2.53-2.88,0-5.21-2-7-6.12-2.25-5-2.77-10.49-4.14-15.75-1.68-6.5-4.66-10-8.63-10.17Z"/><path class="f8d01206-0986-4c7e-885d-9010b0d80303" d="M116.6,381a13.93,13.93,0,1,1-9.85,4.08A13.85,13.85,0,0,1,116.6,381m0-6.54a20.48,20.48,0,1,0,14.48,6,20.41,20.41,0,0,0-14.48-6Z"/><path class="fba1c953-cabb-4e9b-b755-e27679ae4371" d="M255.72,345.87c.56.21,2.74,2,5,8.1a65.55,65.55,0,0,1,3.66,16.1c.2,2.38.26,4.81.31,7.38a89.4,89.4,0,0,0,.84,12.23c.64,4.05,3.25,13.45,13.51,13.45a20.22,20.22,0,0,0,7.23-1.49,54.74,54.74,0,0,0,10.83-6c1.45-1,2.83-1.87,4.21-2.68,3-1.78,4.65-2,5.21-2a2.45,2.45,0,0,1,.31,0c.31.31.52,2.39-1.63,6.09a46.73,46.73,0,0,1-7.73,9.39c-6.89,6.83-14.73,12.58-22.35,17.84a27,27,0,0,0-38.69-.24c-7.51-5.2-15.22-10.87-22-17.6a46.73,46.73,0,0,1-7.73-9.39c-2.16-3.71-1.94-5.79-1.65-6.08a1.2,1.2,0,0,1,.33,0c.56,0,2.19.19,5.21,2,1.38.81,2.76,1.72,4.21,2.68a54.74,54.74,0,0,0,10.83,6,20.22,20.22,0,0,0,7.23,1.49c10.26,0,12.87-9.4,13.51-13.45a89.4,89.4,0,0,0,.84-12.23c.05-2.57.11-5,.31-7.38a71,71,0,0,1,3.37-16c2.35-6.69,4.47-8,4.78-8.17m0-6.55c-9.25,0-13.77,20-14.65,30.18-.55,6.36-.08,12.8-1.09,19.16-.84,5.28-3.15,7.92-7.05,7.92a14.1,14.1,0,0,1-4.9-1.05c-5.14-2-9.38-5.46-14.06-8.21-3.24-1.91-6.11-2.87-8.52-2.87a6.76,6.76,0,0,0-4.78,1.78c-3.17,3-3,8.23.44,14.16a52.8,52.8,0,0,0,8.78,10.75c7.89,7.81,16.87,14.23,26,20.47a4.65,4.65,0,0,0,2.3.93,20.44,20.44,0,0,1,35.06,0,2.63,2.63,0,0,0,.49.05,4.4,4.4,0,0,0,2.43-.94c9.12-6.24,18.1-12.66,26-20.47a52.8,52.8,0,0,0,8.78-10.75c3.45-5.93,3.61-11.18.44-14.16a6.78,6.78,0,0,0-4.78-1.78c-2.41,0-5.28,1-8.52,2.87-4.68,2.75-8.92,6.25-14.06,8.21a14.1,14.1,0,0,1-4.9,1.05c-3.9,0-6.21-2.64-7-7.92-1-6.36-.54-12.8-1.09-19.16-.88-10.2-6-30.18-15.25-30.18Z"/><path class="fba1c953-cabb-4e9b-b755-e27679ae4371" d="M255.7,438.9a13.94,13.94,0,1,1-13.93,13.94A14,14,0,0,1,255.7,438.9m0-6.54a20.48,20.48,0,1,0,20.48,20.48,20.47,20.47,0,0,0-20.48-20.48Z"/><path class="f8d01206-0986-4c7e-885d-9010b0d80303" d="M387.46,315.49c.43,0,2.05,1.35,3.14,5.46a47,47,0,0,1,1.18,12.1c0,9.71-1.53,19.32-3.2,28.44H388a27,27,0,0,0-27,27.18c-9,1.63-18.44,3.07-28,3.12h-.56A45.4,45.4,0,0,1,321,390.6c-4.16-1.1-5.47-2.73-5.47-3.13,0,0,.83-1.39,5.29-2.55,1.55-.4,3.17-.73,4.87-1.08a55,55,0,0,0,11.91-3.42c5.23-2.35,8.46-5.66,9.58-9.85s0-8.65-3.38-13.27a89.31,89.31,0,0,0-8.05-9.24c-1.78-1.86-3.46-3.61-5-5.44a70.86,70.86,0,0,1-8.95-13.72c-3.06-6.36-2.51-8.8-2.4-9.15a3.32,3.32,0,0,1,1.14-.15c5.34,0,15.75,5.74,22.13,11.1,1.83,1.54,3.58,3.22,5.44,5a88.2,88.2,0,0,0,9.24,8.06c3.51,2.55,6.82,3.79,10.11,3.79,3.9,0,9.31-1.74,13-10a55,55,0,0,0,3.42-11.91c.35-1.71.68-3.32,1.08-4.87,1.15-4.43,2.52-5.27,2.52-5.28h0m0-6.54h-.24c-4,.13-7,3.67-8.63,10.17-1.37,5.26-1.89,10.73-4.14,15.75-1.83,4.1-4.17,6.12-7,6.12-1.85,0-3.94-.85-6.26-2.53-5.21-3.78-9.44-8.66-14.32-12.77-6.1-5.13-18.19-12.63-26.34-12.63a7.87,7.87,0,0,0-5.78,2.06c-6.55,6.55,4.39,23.87,11,31.71,4.11,4.88,9,9.11,12.77,14.32,4.29,5.91,3.16,10.28-3.59,13.3-5,2.25-10.49,2.77-15.75,4.14-6.5,1.68-10,4.66-10.17,8.64-.14,4.35,3.69,7.94,10.33,9.7a51.52,51.52,0,0,0,13.21,1.39h.59c11.1-.05,22-1.87,32.86-3.91a4.54,4.54,0,0,0,2.28-1A20.42,20.42,0,0,1,388,368a20.76,20.76,0,0,1,4.95.6,3.9,3.9,0,0,0,1.42-2.69c2-10.87,3.86-21.76,3.91-32.86a53,53,0,0,0-1.39-13.8c-1.73-6.52-5.23-10.33-9.47-10.33Z"/><path class="f8d01206-0986-4c7e-885d-9010b0d80303" d="M395,381.46a13.94,13.94,0,1,1-9.86,4.08,13.84,13.84,0,0,1,9.86-4.08m0-6.54a20.48,20.48,0,1,0,14.48,6,20.41,20.41,0,0,0-14.48-6Z"/><path class="bfef74f7-f800-42b9-8db5-78ff48830ec6" d="M256,208.86,237.66,196H223.3a2.63,2.63,0,0,0-2.84,2.35v14.71l14.76,10.34Z"/><path class="f18bd4df-0245-4466-9407-b2a127722d7e" d="M258.87,299.12l15.87,11.11h14a3.26,3.26,0,0,0,1.18-.22,2.72,2.72,0,0,0,.82-.46h0a2.14,2.14,0,0,0,.84-1.66v-15l-11.89-8.32Z"/><path class="fba1c953-cabb-4e9b-b755-e27679ae4371" d="M291.56,197.87v15.2l-64.26,45a18,18,0,0,0-6.86,14.13V233.76l54-37.78h14.47A2.72,2.72,0,0,1,291.56,197.87Z"/><path class="b174eb67-c860-4e4c-9bb0-11876536b516" d="M277.47,253l6.77-4.75,0,0a18,18,0,0,0,7.29-14.47l-11.91-8.33L258.87,240l18.6,13Z"/><path class="f58d6084-ad60-4cec-9b35-46524bb4d9f2" d="M256,268l-18.6-13-10.1,7.07a18.12,18.12,0,0,0-6.48,10.42l14.4,10.09Z"/><path class="fba1c953-cabb-4e9b-b755-e27679ae4371" d="M284.27,248.22l0,0-63.8,44.68V322l71.12-49.8V233.75A18,18,0,0,1,284.27,248.22Z"/></svg>