<?xml version="1.0" encoding="utf-8"?>
<!-- Generator: Adobe Illustrator 26.0.1, SVG Export Plug-In . SVG Version: 6.00 Build 0)  -->
<svg version="1.1" id="ab523232-6478-4cfe-925b-8c4ce329170d"
	 xmlns="http://www.w3.org/2000/svg" xmlns:xlink="http://www.w3.org/1999/xlink" x="0px" y="0px" viewBox="0 0 512 512"
	 style="enable-background:new 0 0 512 512;" xml:space="preserve">
<style type="text/css">
	.st0{fill:#FFFFFF;stroke:#FFFFFF;stroke-miterlimit:10;}
	.st1{fill:#EA5B2A;}
	.st2{fill:url(#SVGID_1_);}
	.st3{fill:url(#SVGID_00000182499568924458214140000012966030531677168513_);}
	.st4{fill:#FFFFFF;}
	.st5{fill:url(#SVGID_00000044149418203264432550000013337190862297218225_);}
	.st6{fill:url(#SVGID_00000085243862052527864150000007151699757875349403_);}
</style>
<path class="st0" d="M391.9,204.9c1.9,0.1,3.7,0.8,5.2,1.8c3.5,2.2,6.6,4.8,9.4,7.7c6.8,6.9,12.6,14.7,17.8,22.4
	c-10.7,10.3-11.1,27.4-0.7,38.2c0.2,0.2,0.3,0.3,0.5,0.5c-5.2,7.5-10.9,15.2-17.6,22c-2.8,3-5.9,5.6-9.4,7.7c-1.6,1-3.4,1.7-5.2,1.8
	c-0.3,0-0.6,0-0.9-0.2c0,0-0.4-1.6,1.9-5.5c0.8-1.4,1.7-2.8,2.7-4.2c2.4-3.4,4.4-7,6-10.8c2-5.4,2-10-0.2-13.7s-6.1-6.1-11.8-7
	c-4.1-0.6-8.1-0.8-12.2-0.8c-2.6,0-5-0.1-7.4-0.3c-5.4-0.5-10.8-1.6-16-3.4c-6.7-2.4-8-4.5-8.2-4.8c0.2-0.6,2-2.7,8.1-5
	c5.2-1.9,10.6-3.1,16.1-3.7c2.4-0.2,4.8-0.3,7.4-0.3c4.1,0,8.2-0.3,12.2-0.8c5.6-0.9,9.6-3.2,11.8-7s2.2-8.4,0.2-13.7
	c-1.6-3.8-3.6-7.5-6-10.8c-1-1.4-1.9-2.8-2.7-4.2c-2.3-3.9-2-5.5-2-5.5C391.3,205,391.6,204.9,391.9,204.9 M391.9,198.4
	c-2.1-0.1-4.2,0.7-5.6,2.3c-2.7,2.9-2.3,7.5,1.1,13.3c2.8,4.7,6.2,8.9,8.2,14.1c2.6,6.9,0.3,10.8-6.9,12c-6.4,1-12.8,0.5-19.2,1.1
	c-10.2,0.9-30.2,6-30.2,15.2s20,13.8,30.2,14.6c6.4,0.5,12.8,0.1,19.2,1.1c7.2,1.1,9.5,5,6.9,12c-2,5.1-5.5,9.4-8.2,14.1
	c-3.4,5.8-3.8,10.4-1.1,13.3c1.5,1.5,3.5,2.3,5.6,2.3c3-0.2,6-1.1,8.5-2.7c4-2.4,7.6-5.4,10.8-8.8c7.8-7.9,14.2-16.9,20.5-26
	c0.5-0.7,0.8-1.5,0.9-2.3c-9.7-5.8-12.8-18.4-7-28c1.7-2.9,4.1-5.3,7-7c0.1-1.1-0.2-2.1-0.9-2.9c-6.2-9.1-12.7-18.1-20.5-26
	c-3.2-3.4-6.8-6.3-10.8-8.8C397.9,199.5,395,198.6,391.9,198.4L391.9,198.4z"/>
<path class="st0" d="M452.8,242.4c7.7,0,13.9,6.2,13.9,13.9c0,7.7-6.2,13.9-13.9,13.9s-13.9-6.2-13.9-13.9l0,0
	C438.9,248.6,445.2,242.4,452.8,242.4 M452.8,235.8c-11.3,0-20.5,9.2-20.5,20.5c0,11.3,9.2,20.5,20.5,20.5s20.5-9.2,20.5-20.5
	S464.2,235.8,452.8,235.8L452.8,235.8z"/>
<path class="st1" d="M332.5,120.2h0.6c9.7,0,19.3,1.5,28.4,3.2c-0.3,14.9,11.6,27.2,26.5,27.5c0.2,0,0.3,0,0.5,0h0.2
	c1.6,9,3.1,18.5,3.1,28c0.1,4.1-0.3,8.1-1.2,12.1c-1.1,4.1-2.7,5.5-3.1,5.5c0,0-1.4-0.8-2.5-5.3c-0.4-1.6-0.7-3.2-1.1-4.9
	c-0.7-4.1-1.8-8.1-3.4-11.9c-3.7-8.2-9.1-10-13-10l0,0c-3.3,0-6.6,1.2-10.1,3.8c-3.3,2.5-6.4,5.2-9.2,8.1c-1.9,1.8-3.6,3.4-5.4,5
	c-8.5,7.2-17.9,11.5-21.9,11.5c-0.3,0-0.6,0-0.9-0.1c-0.2-0.5-0.5-3.4,2.1-9.3c2.3-5,5.3-9.7,8.8-14c1.5-1.8,3.2-3.6,5-5.4
	c2.9-2.9,5.6-6,8-9.2c3.4-4.6,4.5-9.1,3.4-13.3s-4.3-7.5-9.6-9.9c-3.8-1.6-7.8-2.7-11.9-3.4c-1.7-0.3-3.3-0.7-4.9-1.1
	c-4.4-1.2-5.3-2.5-5.3-2.5c0-0.4,1.3-2.1,5.5-3.2C324.8,120.5,328.6,120.1,332.5,120.2 M332.5,113.6c-4.4-0.1-8.9,0.4-13.2,1.4
	c-6.6,1.8-10.5,5.3-10.3,9.7c0.1,4,3.7,7,10.2,8.6c5.3,1.4,10.7,1.9,15.8,4.1c6.8,3,7.9,7.4,3.6,13.3c-3.8,5.2-8.7,9.4-12.8,14.3
	c-6.6,7.8-17.1,25.6-10.6,32.1c1.5,1.4,3.5,2.1,5.6,2c8,0,20-7.8,26.1-13c4.9-4.1,9.1-9,14.3-12.8c2.3-1.7,4.4-2.5,6.3-2.5
	c2.9,0,5.2,2,7,6.1c2.2,5,2.8,10.5,4.1,15.8c1.7,6.5,4.7,10,8.6,10.2h0.2c4.2,0,7.7-3.8,9.5-10.3c1.1-4.5,1.5-9.2,1.4-13.8
	c0-11.1-1.9-22-3.9-32.9c-0.1-0.8-0.5-1.6-1-2.3c-1.6,0.4-3.3,0.6-5,0.6c-11.3,0-20.4-9.2-20.4-20.5c0-1.6,0.2-3.3,0.6-4.8
	c-0.7-0.8-1.6-1.3-2.7-1.4c-10.9-2-21.8-3.9-32.9-3.9L332.5,113.6z"/>
<path class="st1" d="M395.4,103.1c7.7,0,13.9,6.2,13.9,13.9s-6.2,13.9-13.9,13.9c-7.7,0-13.9-6.2-13.9-13.9c0-3.7,1.5-7.2,4.1-9.8
	C388.1,104.5,391.7,103.1,395.4,103.1 M395.4,96.5c-11.3,0-20.5,9.2-20.5,20.5c0,11.3,9.2,20.5,20.5,20.5c11.3,0,20.5-9.2,20.5-20.5
	c0-5.4-2.2-10.6-6-14.5C406,98.7,400.8,96.5,395.4,96.5z"/>
<path class="st0" d="M236.8,87.7c10.3,10.7,27.4,11.1,38.2,0.7c0.2-0.2,0.3-0.3,0.5-0.5c7.5,5.2,15.2,10.9,22,17.6
	c3,2.8,5.6,5.9,7.7,9.4c2.2,3.7,1.9,5.8,1.6,6.1c-0.1,0-0.2,0-0.3,0c-0.6,0-2.2-0.2-5.2-2c-1.4-0.8-2.8-1.7-4.2-2.7
	c-3.4-2.4-7-4.4-10.8-6c-2.3-0.9-4.7-1.4-7.2-1.5c-10.3,0-12.9,9.4-13.5,13.4c-0.6,4.1-0.8,8.1-0.8,12.2c0,2.6-0.1,5-0.3,7.4
	c-0.5,5.4-1.6,10.8-3.4,16c-2.4,6.7-4.5,8-4.8,8.2c-0.6-0.2-2.7-2-5-8.1c-1.9-5.2-3.1-10.6-3.7-16.1c-0.2-2.4-0.3-4.8-0.3-7.4
	c0-4.1-0.3-8.2-0.8-12.2c-0.6-4-3.2-13.4-13.5-13.4c-2.5,0-4.9,0.6-7.2,1.5c-3.8,1.6-7.5,3.6-10.8,6c-1.4,1-2.8,1.9-4.2,2.7
	c-3,1.8-4.6,2-5.2,2c-0.1,0-0.2,0-0.3,0c-0.3-0.3-0.5-2.4,1.6-6.1c2.2-3.5,4.8-6.6,7.7-9.4C221.4,98.6,229.3,92.9,236.8,87.7
	 M238.3,79.4c-0.9,0.1-1.7,0.4-2.4,0.9c-9.1,6.2-18.1,12.7-26,20.5c-3.4,3.2-6.3,6.8-8.8,10.8c-3.4,5.9-3.6,11.2-0.4,14.2
	c1.3,1.2,3,1.8,4.8,1.8c2.4,0,5.3-1,8.5-2.9c4.7-2.8,8.9-6.2,14.1-8.2c1.6-0.6,3.2-1,4.9-1c3.9,0,6.2,2.6,7.1,7.9
	c1,6.4,0.5,12.8,1.1,19.2c0.9,10.2,6,30.2,15.2,30.2c9.2,0,13.8-20,14.6-30.2c0.5-6.4,0.1-12.8,1.1-19.2c0.8-5.3,3.1-7.9,7-7.9
	c1.7,0,3.3,0.4,4.9,1c5.1,2,9.4,5.5,14.1,8.2c3.2,1.9,6.1,2.9,8.5,2.9c1.8,0.1,3.5-0.6,4.8-1.8c3.2-3,3-8.2-0.4-14.2
	c-2.4-4-5.4-7.6-8.8-10.8c-7.9-7.8-16.9-14.2-26-20.5c-0.7-0.5-1.5-0.8-2.3-0.9c-5.8,9.7-18.4,12.8-28,7c-2.9-1.7-5.3-4.1-7-7
	C238.6,79.4,238.4,79.4,238.3,79.4L238.3,79.4z"/>
<path class="st0" d="M256.3,45.2c7.7,0,13.9,6.2,13.9,13.9s-6.2,13.9-13.9,13.9c-7.7,0-13.9-6.2-13.9-13.9c0,0,0,0,0,0
	C242.4,51.5,248.6,45.2,256.3,45.2 M256.3,38.7c-11.3,0-20.5,9.2-20.5,20.5s9.2,20.5,20.5,20.5c11.3,0,20.5-9.2,20.5-20.5
	c0,0,0,0,0,0C276.8,47.9,267.6,38.7,256.3,38.7z"/>
<path class="st1" d="M179.5,120.2c3.9-0.1,7.8,0.3,11.5,1.2c4.2,1.1,5.5,2.7,5.5,3.1c0,0-0.8,1.4-5.3,2.6c-1.6,0.4-3.2,0.7-4.9,1.1
	c-4.1,0.7-8.1,1.8-11.9,3.4c-5.2,2.4-8.5,5.7-9.6,9.9s0,8.6,3.4,13.3c2.5,3.3,5.2,6.3,8.1,9.2c1.8,1.9,3.5,3.6,5,5.4
	c3.5,4.2,6.5,8.8,8.9,13.7c3.1,6.4,2.5,8.8,2.4,9.1c-0.4,0.1-0.8,0.2-1.1,0.1c-5.3,0-15.8-5.7-22.1-11.1c-1.8-1.5-3.6-3.2-5.4-5
	c-2.9-2.9-6-5.6-9.2-8.1c-3.5-2.6-6.8-3.8-10.1-3.8c-3.9,0-9.3,1.7-13,10c-1.6,3.8-2.7,7.8-3.4,11.9c-0.3,1.7-0.7,3.3-1.1,4.9
	c-1.2,4.4-2.5,5.3-2.5,5.3l0,0c-0.4,0-2.1-1.4-3.1-5.5c-0.9-4-1.3-8-1.2-12.1c0-9.7,1.5-19.3,3.2-28.4h0.6c14.9,0,27-12.1,27-27
	c0-0.1,0-0.1,0-0.2c9-1.6,18.4-3.1,28-3.1L179.5,120.2 M179.6,113.7H179c-11.1,0-22,1.9-32.9,3.9c-0.8,0.1-1.6,0.5-2.3,1
	c2.8,10.9-3.9,22-14.8,24.8c-1.6,0.4-3.3,0.6-5,0.6c-1.7,0-3.3-0.2-4.9-0.6c-0.8,0.7-1.3,1.6-1.4,2.7c-2,10.9-3.9,21.8-3.9,32.9
	c-0.1,4.6,0.3,9.3,1.4,13.8c1.7,6.5,5.2,10.3,9.5,10.3h0.2c4-0.1,7-3.7,8.6-10.2c1.4-5.3,1.9-10.7,4.1-15.8c1.8-4.1,4.2-6.1,7-6.1
	c1.9,0,3.9,0.9,6.3,2.5c5.2,3.8,9.4,8.7,14.3,12.8c6.1,5.1,18.2,12.6,26.3,12.6c2.1,0.1,4.2-0.6,5.8-2.1c6.6-6.6-4.4-23.9-11-31.7
	c-4.1-4.9-9-9.1-12.8-14.3c-4.3-5.9-3.2-10.3,3.6-13.3c5-2.2,10.5-2.8,15.8-4.1c6.5-1.7,10-4.7,10.2-8.6c0.1-4.3-3.7-7.9-10.3-9.7
	C188.4,114.1,183.9,113.6,179.6,113.7L179.6,113.7z"/>
<path class="st1" d="M117,102.7c7.7,0,13.9,6.2,13.9,13.9s-6.2,13.9-13.9,13.9c-7.7,0-13.9-6.2-13.9-13.9c0-3.7,1.5-7.2,4.1-9.9
	C109.8,104.1,113.3,102.7,117,102.7 M117,96.1c-11.3,0-20.5,9.2-20.5,20.5c0,11.3,9.2,20.5,20.5,20.5s20.5-9.2,20.5-20.5
	c0-5.4-2.2-10.6-6-14.5C127.6,98.3,122.4,96.1,117,96.1z"/>
<path class="st0" d="M120.1,204.9c0.3,0,0.6,0,0.9,0.2c0,0,0.4,1.6-1.9,5.5c-0.8,1.4-1.7,2.8-2.7,4.2c-2.4,3.4-4.4,7-6,10.8
	c-2,5.4-2,10,0.2,13.7s6.1,6.1,11.8,7c4.1,0.6,8.1,0.8,12.2,0.8c2.6,0.1,5,0.1,7.4,0.3c5.4,0.5,10.8,1.6,16,3.4
	c6.7,2.4,8,4.5,8.2,4.8c-0.2,0.6-2,2.7-8.1,5c-5.2,1.9-10.6,3.1-16.1,3.7c-2.4,0.2-4.8,0.3-7.4,0.3c-4.1,0-8.2,0.3-12.2,0.8
	c-5.6,0.9-9.6,3.2-11.8,7s-2.2,8.4-0.2,13.7c1.6,3.8,3.6,7.5,6,10.8c1,1.5,1.9,2.8,2.7,4.2c2.3,3.9,1.9,5.5,1.9,5.5
	c-0.3,0.2-0.6,0.2-0.9,0.2c-1.9-0.1-3.7-0.8-5.2-1.8c-3.5-2.2-6.6-4.8-9.4-7.7c-6.8-6.9-12.6-14.7-17.8-22.4
	c10.7-10.3,11.1-27.4,0.7-38.2c-0.2-0.2-0.3-0.3-0.5-0.5c5.2-7.5,10.9-15.2,17.6-22c2.8-3,5.9-5.6,9.4-7.7
	C116.4,205.7,118.2,205,120.1,204.9 M120.1,198.3c-3,0.2-6,1.1-8.5,2.7c-4,2.4-7.6,5.4-10.8,8.8c-7.8,7.9-14.2,16.9-20.5,26
	c-0.5,0.7-0.8,1.5-0.9,2.3c9.7,5.8,12.8,18.4,7,28c-1.7,2.9-4.1,5.3-7,7c-0.1,1.1,0.2,2.1,0.9,2.9c6.2,9.1,12.7,18.1,20.5,26
	c3.2,3.4,6.8,6.3,10.8,8.8c2.6,1.6,5.5,2.6,8.5,2.7c2.1,0.1,4.2-0.7,5.7-2.3c2.7-2.9,2.3-7.5-1.1-13.3c-2.8-4.7-6.2-8.9-8.2-14.1
	c-2.6-6.9-0.3-10.8,6.9-12c6.4-1,12.8-0.5,19.2-1.1c10.2-0.9,30.2-6,30.2-15.2s-20-13.8-30.2-14.6c-6.4-0.6-12.8-0.1-19.2-1.1
	c-7.2-1.1-9.5-5-6.9-12c2-5.1,5.5-9.4,8.2-14.1c3.4-5.8,3.8-10.4,1.1-13.3C124.2,199,122.2,198.2,120.1,198.3L120.1,198.3z"/>
<path class="st0" d="M59.2,241.8c7.7,0,13.9,6.2,13.9,13.9c0,7.7-6.2,13.9-13.9,13.9s-13.9-6.2-13.9-13.9c0,0,0,0,0,0
	C45.3,248,51.5,241.8,59.2,241.8 M59.2,235.2c-11.3,0-20.5,9.2-20.5,20.5s9.2,20.5,20.5,20.5s20.5-9.2,20.5-20.5c0,0,0,0,0,0
	C79.6,244.4,70.5,235.2,59.2,235.2z"/>
<path class="st1" d="M124.5,315.5c0,0,1.4,0.8,2.6,5.3c0.4,1.5,0.7,3.2,1.1,4.9c0.7,4.1,1.8,8.1,3.4,11.9c3.7,8.2,9.1,10,13,10
	c3.3,0,6.6-1.2,10.1-3.8c3.3-2.5,6.4-5.2,9.2-8.1c1.9-1.8,3.6-3.5,5.4-5c8.5-7.2,17.9-11.5,21.9-11.5c0.3,0,0.6,0,0.9,0.1
	c0.2,0.5,0.5,3.4-2.1,9.3c-2.3,5-5.3,9.7-8.8,14c-1.5,1.8-3.2,3.6-5,5.4c-2.9,2.9-5.6,6-8.1,9.2c-3.4,4.6-4.5,9.1-3.4,13.3
	s4.3,7.5,9.6,9.9c3.8,1.6,7.8,2.7,11.9,3.4c1.7,0.4,3.3,0.7,4.9,1.1c4.4,1.1,5.3,2.5,5.3,2.5c0,0.4-1.3,2.1-5.5,3.2
	c-3.8,0.9-7.7,1.3-11.5,1.2H179c-9.7,0-19.3-1.5-28.4-3.2c0.3-14.9-11.6-27.2-26.5-27.5c-0.2,0-0.3,0-0.5,0h-0.2
	c-1.6-9-3.1-18.5-3.1-28c-0.1-4.1,0.2-8.1,1.1-12.1C122.5,316.9,124.1,315.5,124.5,315.5L124.5,315.5 M124.5,309
	c-4.2,0-7.7,3.8-9.5,10.3c-1.1,4.5-1.5,9.2-1.4,13.8c0,11.1,1.9,22,3.9,32.9c0.1,0.8,0.5,1.6,1,2.3c1.6-0.4,3.3-0.6,5-0.6
	c11.3,0,20.4,9.2,20.4,20.5c0,1.6-0.2,3.3-0.6,4.9c0.7,0.8,1.6,1.3,2.7,1.4c10.9,2,21.8,3.9,32.9,3.9h0.6c4.4,0.1,8.9-0.4,13.2-1.4
	c6.6-1.8,10.5-5.4,10.3-9.7c-0.1-4-3.7-7-10.2-8.6c-5.3-1.4-10.7-1.9-15.8-4.1c-6.8-3-7.9-7.4-3.6-13.3c3.8-5.2,8.7-9.4,12.8-14.3
	c6.6-7.8,17.1-25.6,10.6-32.1c-1.5-1.4-3.5-2.1-5.6-2c-8,0-20,7.8-26.1,13c-4.9,4.1-9.1,9-14.3,12.8c-2.3,1.7-4.4,2.5-6.3,2.5
	c-2.9,0-5.2-2-7-6.1c-2.2-5-2.8-10.5-4.1-15.8c-1.7-6.5-4.7-10-8.6-10.2L124.5,309z"/>
<path class="st1" d="M116.6,381c7.7,0,13.9,6.2,13.9,13.9s-6.2,13.9-13.9,13.9c-7.7,0-13.9-6.2-13.9-13.9c0-3.7,1.5-7.2,4.1-9.9
	C109.4,382.5,112.9,381,116.6,381 M116.6,374.5c-11.3,0-20.5,9.2-20.5,20.5c0,11.3,9.2,20.5,20.5,20.5s20.5-9.2,20.5-20.5
	c0-5.4-2.2-10.6-6-14.5C127.2,376.6,122,374.5,116.6,374.5z"/>
<path class="st0" d="M255.7,345.9c0.6,0.2,2.7,2,5,8.1c1.9,5.2,3.1,10.6,3.7,16.1c0.2,2.4,0.3,4.8,0.3,7.4c0,4.1,0.3,8.2,0.8,12.2
	c0.6,4,3.2,13.5,13.5,13.5c2.5,0,4.9-0.6,7.2-1.5c3.8-1.6,7.5-3.6,10.8-6c1.5-1,2.8-1.9,4.2-2.7c3-1.8,4.6-2,5.2-2
	c0.1,0,0.2,0,0.3,0c0.3,0.3,0.5,2.4-1.6,6.1c-2.2,3.5-4.8,6.6-7.7,9.4c-6.9,6.8-14.7,12.6-22.4,17.8c-10.3-10.7-27.4-11.1-38.2-0.7
	c-0.2,0.2-0.3,0.3-0.5,0.5c-7.5-5.2-15.2-10.9-22-17.6c-3-2.8-5.6-5.9-7.7-9.4c-2.2-3.7-1.9-5.8-1.6-6.1c0.1,0,0.2,0,0.3,0
	c0.6,0,2.2,0.2,5.2,2c1.4,0.8,2.8,1.7,4.2,2.7c3.4,2.4,7,4.4,10.8,6c2.3,0.9,4.7,1.4,7.2,1.5c10.3,0,12.9-9.4,13.5-13.5
	c0.6-4.1,0.8-8.1,0.8-12.2c0.1-2.6,0.1-5,0.3-7.4c0.5-5.4,1.6-10.8,3.4-16C253.2,347.4,255.4,346.1,255.7,345.9 M255.7,339.4
	c-9.2,0-13.8,20-14.6,30.2c-0.6,6.4-0.1,12.8-1.1,19.2c-0.8,5.3-3.1,7.9-7.1,7.9c-1.7-0.1-3.3-0.4-4.9-1c-5.1-2-9.4-5.5-14.1-8.2
	c-3.2-1.9-6.1-2.9-8.5-2.9c-1.8-0.1-3.5,0.6-4.8,1.8c-3.2,3-3,8.2,0.4,14.2c2.4,4,5.4,7.6,8.8,10.8c7.9,7.8,16.9,14.2,26,20.5
	c0.7,0.5,1.5,0.8,2.3,0.9c5.8-9.7,18.4-12.8,28-7c2.9,1.7,5.3,4.1,7,7c0.2,0,0.3,0,0.5,0c0.9-0.1,1.7-0.4,2.4-0.9
	c9.1-6.2,18.1-12.7,26-20.5c3.4-3.2,6.3-6.8,8.8-10.8c3.5-5.9,3.6-11.2,0.4-14.2c-1.3-1.2-3-1.8-4.8-1.8c-2.4,0-5.3,1-8.5,2.9
	c-4.7,2.8-8.9,6.2-14.1,8.2c-1.6,0.6-3.2,1-4.9,1c-3.9,0-6.2-2.6-7-7.9c-1-6.4-0.5-12.8-1.1-19.2C270.1,359.4,265,339.4,255.7,339.4
	L255.7,339.4z"/>
<path class="st0" d="M255.7,438.9c7.7,0,13.9,6.2,13.9,13.9c0,7.7-6.2,13.9-13.9,14c-7.7,0-13.9-6.2-13.9-13.9c0,0,0,0,0,0
	C241.8,445.2,248,438.9,255.7,438.9 M255.7,432.4c-11.3,0-20.5,9.2-20.5,20.5s9.2,20.5,20.5,20.5c11.3,0,20.5-9.2,20.5-20.5
	C276.2,441.5,267,432.4,255.7,432.4C255.7,432.4,255.7,432.4,255.7,432.4z"/>
<path class="st1" d="M387.5,315.5c0.4,0,2,1.4,3.1,5.5c0.9,4,1.3,8,1.2,12.1c0,9.7-1.5,19.3-3.2,28.4H388c-14.9,0-27,12.1-27,27
	c0,0.1,0,0.1,0,0.2c-9,1.6-18.4,3.1-28,3.1h-0.6c-3.8,0.1-7.7-0.3-11.4-1.2c-4.2-1.1-5.5-2.7-5.5-3.1c0,0,0.8-1.4,5.3-2.5
	c1.5-0.4,3.2-0.7,4.9-1.1c4.1-0.7,8.1-1.8,11.9-3.4c5.2-2.4,8.5-5.7,9.6-9.9s0-8.6-3.4-13.3c-2.5-3.3-5.2-6.3-8-9.2
	c-1.8-1.9-3.5-3.6-5-5.4c-3.5-4.2-6.5-8.8-9-13.7c-3.1-6.4-2.5-8.8-2.4-9.1c0.4-0.1,0.8-0.2,1.1-0.1c5.3,0,15.8,5.7,22.1,11.1
	c1.8,1.5,3.6,3.2,5.4,5c2.9,2.9,6,5.6,9.2,8.1c3.5,2.5,6.8,3.8,10.1,3.8c3.9,0,9.3-1.7,13-10c1.6-3.8,2.7-7.8,3.4-11.9
	c0.4-1.7,0.7-3.3,1.1-4.9C386.1,316.3,387.5,315.5,387.5,315.5L387.5,315.5 M387.5,309h-0.2c-4,0.1-7,3.7-8.6,10.2
	c-1.4,5.3-1.9,10.7-4.1,15.8c-1.8,4.1-4.2,6.1-7,6.1c-1.9,0-3.9-0.9-6.3-2.5c-5.2-3.8-9.4-8.7-14.3-12.8
	c-6.1-5.1-18.2-12.6-26.3-12.6c-2.1-0.1-4.2,0.6-5.8,2.1c-6.5,6.5,4.4,23.9,11,31.7c4.1,4.9,9,9.1,12.8,14.3
	c4.3,5.9,3.2,10.3-3.6,13.3c-5,2.2-10.5,2.8-15.8,4.1c-6.5,1.7-10,4.7-10.2,8.6c-0.1,4.4,3.7,7.9,10.3,9.7c4.3,1,8.8,1.5,13.2,1.4
	h0.6c11.1,0,22-1.9,32.9-3.9c0.8-0.1,1.6-0.5,2.3-1c-2.8-10.9,3.9-22,14.8-24.8c1.6-0.4,3.2-0.6,4.9-0.6c1.7,0,3.3,0.2,5,0.6
	c0.8-0.7,1.3-1.6,1.4-2.7c2-10.9,3.9-21.8,3.9-32.9c0.1-4.6-0.3-9.3-1.4-13.8C395.2,312.7,391.7,308.9,387.5,309L387.5,309z"/>
<path class="st1" d="M395,381.5c7.7,0,13.9,6.2,13.9,13.9s-6.2,13.9-13.9,13.9s-13.9-6.2-13.9-13.9c0-3.7,1.5-7.2,4.1-9.9
	C387.7,382.9,391.3,381.4,395,381.5 M395,374.9c-11.3,0-20.5,9.2-20.5,20.5c0,11.3,9.2,20.5,20.5,20.5s20.5-9.2,20.5-20.5
	c0-5.4-2.2-10.6-6-14.5C405.6,377.1,400.4,374.9,395,374.9z"/>
<linearGradient id="SVGID_1_" gradientUnits="userSpaceOnUse" x1="220.46" y1="302.1947" x2="256" y2="302.1947" gradientTransform="matrix(1 0 0 -1 0 511.8898)">
	<stop  offset="0" style="stop-color:#F96943"/>
	<stop  offset="0.45" style="stop-color:#F46640"/>
	<stop  offset="1" style="stop-color:#E55D38"/>
</linearGradient>
<path class="st2" d="M256,208.9L237.7,196h-14.4c-1.4-0.1-2.7,0.9-2.8,2.4v14.7l14.8,10.3L256,208.9z"/>
<linearGradient id="SVGID_00000112628367225389043660000013052832399635637156_" gradientUnits="userSpaceOnUse" x1="258.87" y1="214.4899" x2="291.54" y2="214.4899" gradientTransform="matrix(1 0 0 -1 0 511.8898)">
	<stop  offset="0" style="stop-color:#CE4E2C"/>
	<stop  offset="1" style="stop-color:#CE4E2C"/>
</linearGradient>
<path style="fill:url(#SVGID_00000112628367225389043660000013052832399635637156_);" d="M258.9,299.1l15.9,11.1h14
	c0.4,0,0.8-0.1,1.2-0.2c0.3-0.1,0.6-0.3,0.8-0.5l0,0c0.5-0.4,0.8-1,0.8-1.7v-15l-11.9-8.3L258.9,299.1z"/>
<path class="st4" d="M291.6,197.9v15.2l-64.3,45c-4.3,3.4-6.9,8.6-6.9,14.1v-38.4l54-37.8h14.5C290.1,196,291.2,196.7,291.6,197.9z"
	/>
<linearGradient id="SVGID_00000176758475957590894570000003979567514841204923_" gradientUnits="userSpaceOnUse" x1="258.87" y1="272.6648" x2="291.53" y2="272.6648" gradientTransform="matrix(1 0 0 -1 0 511.8898)">
	<stop  offset="0" style="stop-color:#E05935"/>
	<stop  offset="1" style="stop-color:#CE4E2C"/>
</linearGradient>
<path style="fill:url(#SVGID_00000176758475957590894570000003979567514841204923_);" d="M277.5,253l6.8-4.8l0,0
	c4.6-3.4,7.3-8.8,7.3-14.5l-11.9-8.3L258.9,240L277.5,253z"/>
<linearGradient id="SVGID_00000041291997789060946110000015919976890332607887_" gradientUnits="userSpaceOnUse" x1="220.82" y1="243.0998" x2="256" y2="243.0998" gradientTransform="matrix(1 0 0 -1 0 511.8898)">
	<stop  offset="0" style="stop-color:#F96943"/>
	<stop  offset="0.46" style="stop-color:#F46640"/>
	<stop  offset="1" style="stop-color:#E55C38"/>
</linearGradient>
<path style="fill:url(#SVGID_00000041291997789060946110000015919976890332607887_);" d="M256,268l-18.6-13l-10.1,7.1
	c-3.3,2.6-5.6,6.3-6.5,10.4l14.4,10.1L256,268z"/>
<path class="st4" d="M284.3,248.2L284.3,248.2l-63.8,44.7V322l71.1-49.8v-38.5C291.6,239.5,288.9,244.8,284.3,248.2z"/>
</svg>
