<?xml version="1.0" encoding="utf-8"?>
<!-- Generator: Adobe Illustrator 26.0.1, SVG Export Plug-In . SVG Version: 6.00 Build 0)  -->
<svg version="1.1" id="ab523232-6478-4cfe-925b-8c4ce329170d"
	 xmlns="http://www.w3.org/2000/svg" xmlns:xlink="http://www.w3.org/1999/xlink" x="0px" y="0px" viewBox="0 0 512 512"
	 style="enable-background:new 0 0 512 512;" xml:space="preserve">
<style type="text/css">
	.st0{fill:url(#SVGID_1_);}
	.st1{fill:url(#SVGID_00000007424746069860582930000015384733248740469678_);}
	.st2{fill:#8C175B;}
	.st3{fill:url(#SVGID_00000034768859365420303770000014892934579086602114_);}
	.st4{fill:url(#SVGID_00000164484277363214138450000012030735280838578569_);}
	.st5{fill:none;stroke:#F05A28;stroke-width:8;stroke-linecap:round;stroke-miterlimit:10;}
</style>
<g>
	
		<linearGradient id="SVGID_1_" gradientUnits="userSpaceOnUse" x1="226.0506" y1="-273.4348" x2="256" y2="-273.4348" gradientTransform="matrix(1 0 0 1 0 487.8898)">
		<stop  offset="0" style="stop-color:#F96943"/>
		<stop  offset="0.45" style="stop-color:#F46640"/>
		<stop  offset="1" style="stop-color:#E55D38"/>
	</linearGradient>
	<path class="st0" d="M256,213.8l-15.4-10.9h-12.1c-1.2-0.1-2.3,0.8-2.4,2v12.4l12.5,8.7L256,213.8z"/>
	
		<linearGradient id="SVGID_00000043444191504250268890000009361917214147172254_" gradientUnits="userSpaceOnUse" x1="258.4438" y1="-199.5695" x2="286" y2="-199.5695" gradientTransform="matrix(1 0 0 1 0 487.8898)">
		<stop  offset="0" style="stop-color:#CE4E2C"/>
		<stop  offset="1" style="stop-color:#CE4E2C"/>
	</linearGradient>
	<path style="fill:url(#SVGID_00000043444191504250268890000009361917214147172254_);" d="M258.4,289.8l13.4,9.4h11.8
		c0.3,0,0.7-0.1,1-0.2c0.3-0.1,0.5-0.3,0.7-0.4l0,0c0.4-0.3,0.7-0.8,0.7-1.4v-12.6l-10-7L258.4,289.8z"/>
	<path class="st2" d="M286,204.5v12.8l-54.2,37.9c-3.6,2.9-5.8,7.2-5.8,11.9v-32.4l45.5-31.9h12.2
		C284.7,202.9,285.7,203.5,286,204.5z"/>
	
		<linearGradient id="SVGID_00000015356062161665403740000013700555096228447892_" gradientUnits="userSpaceOnUse" x1="258.4438" y1="-248.5723" x2="285.9663" y2="-248.5723" gradientTransform="matrix(1 0 0 1 0 487.8898)">
		<stop  offset="0" style="stop-color:#E05935"/>
		<stop  offset="1" style="stop-color:#CE4E2C"/>
	</linearGradient>
	<path style="fill:url(#SVGID_00000015356062161665403740000013700555096228447892_);" d="M274.1,250.9l5.7-4l0,0
		c3.9-2.9,6.2-7.4,6.2-12.2l-10-7L258.4,240L274.1,250.9z"/>
	
		<linearGradient id="SVGID_00000168106081470806760290000008675576301597434043_" gradientUnits="userSpaceOnUse" x1="226.3371" y1="-223.6285" x2="256" y2="-223.6285" gradientTransform="matrix(1 0 0 1 0 487.8898)">
		<stop  offset="0" style="stop-color:#F96943"/>
		<stop  offset="0.46" style="stop-color:#F46640"/>
		<stop  offset="1" style="stop-color:#E55C38"/>
	</linearGradient>
	<path style="fill:url(#SVGID_00000168106081470806760290000008675576301597434043_);" d="M256,263.6l-15.7-11l-8.5,6
		c-2.8,2.2-4.7,5.3-5.5,8.8l12.1,8.5L256,263.6z"/>
	<path class="st2" d="M279.8,246.9L279.8,246.9l-53.8,37.7v24.5l59.9-42v-32.4C286,239.6,283.7,244,279.8,246.9z"/>
</g>
<g>
	<path class="st5" d="M84.5,172l-3.3-6.8c0,0,4.6-15.2,26.3-21.8"/>
	<path class="st5" d="M86.3,193.1l-8.9-5.3c-12.1-5.8-16.4-23.1-10.9-29.1c-1.6-3.5-1.8-9.4,1.1-14.2c9-15.1,27.6-20.8,42.7-11.9
		l8.9,5.3l0,0l1.3,1.5c2.2,2.5,4.6,4.8,7.2,6.8c11.3,9.1,14.6,25.4,6.9,38.2c-7.6,12.8-23.6,17.6-36.9,12c-3-1.3-6.2-2.5-9.4-3.1
		L86.3,193.1z"/>
	<path class="st5" d="M208.8,173.6l-10.8-6.2c-12-7.2-27.4-5.8-37.8,3.6l-11.2,10l-9-5.4"/>
	<path class="st5" d="M129.2,193.7l9,5.4l-3.5,14.6c-3.3,13.6,2.7,27.8,14.8,35l11.8,7.1"/>
	<path class="st5" d="M138.2,199.1c4.5,0.9,8.6-1.9,11.1-6.1c2.4-4,2-9-0.8-12.5"/>
</g>
<g>
	<path class="st5" d="M267.4,445.2l-4.3,6.3c0,0-15.4,3.6-32.1-11.8"/>
	<path class="st5" d="M284.8,433.1l-0.2,10.4c1,13.4-11.8,25.8-19.7,23.9c-2.2,3.1-7.3,6.2-12.8,6.2c-17.5-0.3-31.9-13.5-31.6-31
		l0.2-10.4l0,0l0.6-1.9c1-3.2,1.8-6.4,2.3-9.7c2.2-14.3,14.7-25.3,29.6-25.1c14.9,0.2,27.1,11.6,28.8,26c0.4,3.3,1,6.6,2,9.7
		L284.8,433.1z"/>
	<path class="st5" d="M206.6,336.8l0,12.4c-0.2,14,8.7,26.6,22,31l14.3,4.7l-0.2,10.5"/>
	<path class="st5" d="M263.9,395.7l0.2-10.5l14.4-4.3c13.4-4,22.7-16.3,22.9-30.3l0.2-13.8"/>
	<path class="st5" d="M264,385.1c-1.4-4.4-6-6.5-10.8-6.6c-4.7-0.1-8.8,2.8-10.4,6.9"/>
</g>
<g>
	<path class="st5" d="M412.6,150.2l7.6,0.6c0,0,10.8,11.6,5.8,33.7"/>
	<path class="st5" d="M393.4,141.2l9-5c11.1-7.5,28.3-2.7,30.6,5.1c3.8,0.4,9,3.2,11.7,8c8.5,15.3,4.2,34.4-11.1,42.9l-9,5l0,0
		l-2,0.4c-3.3,0.7-6.5,1.6-9.5,2.8c-13.5,5.2-29.3-0.1-36.6-13.1c-7.2-13-3.5-29.2,8.1-38c2.6-2,5.2-4.2,7.4-6.6L393.4,141.2z"/>
	<path class="st5" d="M349,257.1l10.8-6.2c12.3-6.8,18.7-20.8,15.8-34.5l-3.1-14.7l9.2-5.1"/>
	<path class="st5" d="M371.4,178.1l-9.2,5.1l-10.9-10.3c-10.2-9.6-25.5-11.5-37.7-4.7l-12.1,6.7"/>
	<path class="st5" d="M362.2,183.2c-3.1,3.4-2.6,8.5-0.3,12.7c2.3,4.1,6.8,6.2,11.2,5.5"/>
</g>
<g>
	<path class="st5" d="M244.4,118.1l0,10.5l-13.3,4.5c-14.3,4.1-23.3,21.5-23.3,35.5l0,6.3"/>
	<path class="st5" d="M301.8,174.9l0-6.3c0-13.9-8.9-31.3-23.3-35.5l-13.3-4.5l0-10.5"/>
	<path class="st5" d="M244.4,128.6c1.5,4.2,6,6.1,10.9,6.1c4.7,0,8.4-2,10-6.2"/>
	<g>
		<path class="st5" d="M235.7,76.6l9.7-9.8c0,0,39,0.1,39,21.9c0,16.9-13.1,30.8-29,30.9c-15.9,0-29.1-13.9-29.1-30.8"/>
	</g>
	<path class="st5" d="M265.3,128.6l30.8-6.4c2.7-0.6,4.4-3.4,4-6.3l-4.5-30.3c-0.5-3-0.8-5.9-1-8.9C293.1,55.1,276.1,38,255.4,38
		c-20.7,0-37.7,17.2-39,38.8c-0.2,3-0.6,5.9-0.9,8.9L211,116c-0.5,2.8,1.3,5.5,4,6.3l29.4,6.3"/>
</g>
<g>
	<path class="st5" d="M140.8,333.7l9.1-5.3l10.5,9.3c10.8,10.3,30.3,9.4,42.4,2.4l5.4-3.2"/>
	<path class="st5" d="M161.2,255.6l-5.5,3.1c-12.1,7-22.6,23.4-19.1,37.9l2.7,13.8l-9.1,5.2"/>
	<path class="st5" d="M149.9,328.4c2.9-3.5,2.3-8.3-0.1-12.5c-2.4-4.1-5.9-6.3-10.3-5.6"/>
	<g>
		<path class="st5" d="M109.2,361.9l-13.3-3.5c0,0-19.4-33.8-0.5-44.7c14.6-8.5,33.2-4.1,41.2,9.7c8,13.8,2.5,32.1-12.1,40.6"/>
	</g>
	<path class="st5" d="M139.4,310.4l-21-23.5c-1.9-2.1-5.2-2.1-7.4-0.3l-24,19.1c-2.3,1.9-4.7,3.7-7.2,5.3
		c-17.9,12.2-24.2,35.5-13.9,53.3s33.7,24,53.1,14.4c2.7-1.3,5.4-2.4,8.1-3.6l28.5-11.3c2.7-1,4.2-3.9,3.4-6.6l-9.2-28.6"/>
</g>
<g>
	<path class="st5" d="M379.3,315.6l-9.1-5.2l2.7-13.8c3.6-14.5-7-30.9-19.1-37.9l-5.5-3.1"/>
	<path class="st5" d="M301.4,337l5.4,3.2c12.1,7,31.6,7.9,42.4-2.4l10.5-9.3l9.1,5.3"/>
	<path class="st5" d="M370.2,310.4c-4.5-0.8-8.3,2.2-10.7,6.4c-2.4,4.1-2.4,8.3,0.3,11.8"/>
	<g>
		<path class="st5" d="M419.5,328.9l3.7,13.3c0,0-19.5,33.7-38.5,22.8c-14.6-8.4-20.2-26.7-12.2-40.6s26.6-18.2,41.2-9.8"/>
	</g>
	<path class="st5" d="M359.8,328.5l-9.9,29.9c-0.8,2.6,0.8,5.5,3.4,6.6l28.5,11.3c2.8,1.1,5.5,2.2,8.1,3.6
		c19.5,9.5,42.8,3.3,53.1-14.7s4-41.2-14.1-53.2c-2.4-1.7-4.8-3.5-7.2-5.2l-24.1-19c-2.2-1.8-5.5-1.6-7.4,0.4l-20.2,22.3"/>
</g>
</svg>
