<svg id="a97b0834-bf6c-4983-8308-c8dc9b30c3bf" data-name="Ebene 1" xmlns="http://www.w3.org/2000/svg" viewBox="0 0 512 512"><defs><style>.ec48d6ee-6868-4902-bd98-b2b35c756fa2{fill:#f05a28;}.e4f60d75-6bb1-48f2-ba6d-db9041b699ee,.e795f10f-2815-4764-9e8c-b2bec2933163{fill:none;stroke:#f05a28;stroke-miterlimit:10;stroke-width:12px;}.e4f60d75-6bb1-48f2-ba6d-db9041b699ee{stroke-linecap:round;}.edd7cc22-e263-4b23-8028-5f85a93a1468{fill:#8c145a;}</style></defs><path class="ec48d6ee-6868-4902-bd98-b2b35c756fa2" d="M389.06,404.73a6,6,0,0,1-8.29,0L259.2,283.43l-7.08,7.1L373.69,411.79a15.75,15.75,0,0,0,11.24,4.68h0a15.75,15.75,0,0,0,11.3-4.75l14.32-15a15.52,15.52,0,0,0,0-22.1L289.27,253.38l-7.09,7.08L403.45,381.73a5.51,5.51,0,0,1-.07,8Z"/><path class="e795f10f-2815-4764-9e8c-b2bec2933163" d="M225.62,255.92l-44.36-44.37a8.84,8.84,0,0,1,.08-12.5L198.42,182a8.84,8.84,0,0,1,12.5-.08l44.36,44.36"/><path class="e4f60d75-6bb1-48f2-ba6d-db9041b699ee" d="M222.78,157.61,141.43,239a25.39,25.39,0,0,1-35.9,0l-2.09-2.1a25.37,25.37,0,0,1-6.57-24.54l12.23-45.5a25.42,25.42,0,0,1,6.56-11.37L168.14,103a25.39,25.39,0,0,1,35.9,0l18.74,18.74A25.39,25.39,0,0,1,222.78,157.61Z"/><path class="edd7cc22-e263-4b23-8028-5f85a93a1468" d="M379.79,109.18a5,5,0,0,0-1.41-8.07A60,60,0,0,0,310.26,113c-17,17.13-22.95,44-15,66.5L179.62,295.16a59.25,59.25,0,0,0-20-3.36A64.72,64.72,0,0,0,114,310.55a60.94,60.94,0,0,0-12.84,67.61,5,5,0,0,0,8.15,1.53l35-35.16c2.31-2.33,6-2.64,8-.68l15.1,15.8a5.54,5.54,0,0,1-.22,8l-34.85,35.07a5,5,0,0,0,1.41,8.06,60.46,60.46,0,0,0,26,5.89,59.2,59.2,0,0,0,42.15-17.83c17-17.12,22.95-44,15-66.49L332.37,216.68a59.35,59.35,0,0,0,20,3.36,64.72,64.72,0,0,0,45.68-18.75,60.94,60.94,0,0,0,12.84-67.61,5,5,0,0,0-3.67-2.92,5.1,5.1,0,0,0-4.48,1.39l-35,35.16a5.71,5.71,0,0,1-8-.1l-15-15a5.54,5.54,0,0,1,0-8Zm-42.16,50.09,15,15a16,16,0,0,0,22.22.09l29.36-29.49A51,51,0,0,1,391,194.24,54.62,54.62,0,0,1,352.38,210a49,49,0,0,1-19.26-3.8,5,5,0,0,0-5.5,1.06L207.38,327.54a5,5,0,0,0-1.07,5.48c8,19.13,3.14,43.83-11.66,58.72a49.63,49.63,0,0,1-49.94,12.61l29.46-29.66a15.48,15.48,0,0,0,.29-22l-15.09-15.81c-5.82-5.86-16.17-5.5-22.22.63L107.79,367a51,51,0,0,1,13.27-49.35,54.62,54.62,0,0,1,38.58-15.8,49,49,0,0,1,19.26,3.8,5,5,0,0,0,5.5-1.06L304.64,184.33a5,5,0,0,0,1.07-5.48c-8-19.13-3.14-43.84,11.66-58.73a49.65,49.65,0,0,1,49.91-12.61l-29.65,29.67A15.48,15.48,0,0,0,337.63,159.27Z"/></svg>