<?xml version="1.0" encoding="utf-8"?>
<!-- Generator: Adobe Illustrator 26.0.1, SVG Export Plug-In . SVG Version: 6.00 Build 0)  -->
<svg version="1.1" id="bf885f70-1e78-4ace-bae7-f51f6770f8f9"
	 xmlns="http://www.w3.org/2000/svg" xmlns:xlink="http://www.w3.org/1999/xlink" x="0px" y="0px" viewBox="0 0 512 512"
	 style="enable-background:new 0 0 512 512;" xml:space="preserve">
<style type="text/css">
	.st0{fill:none;stroke:#F05A28;stroke-width:12;stroke-linecap:round;stroke-miterlimit:10;}
	.st1{fill:none;stroke:#F05A28;stroke-width:12;stroke-miterlimit:10;}
	.st2{fill:url(#SVGID_1_);}
	.st3{fill:url(#SVGID_00000029725765080311178510000001006665633581514931_);}
	.st4{fill:#8C175B;}
	.st5{fill:url(#SVGID_00000016779954176810995410000016294706627113340033_);}
	.st6{fill:url(#SVGID_00000128456855380313894230000006569745197726180003_);}
</style>
<polyline class="st0" points="211,101.9 142.4,116.4 203.3,405.7 328.4,379.3 "/>
<polyline class="st0" points="132.6,150.8 73.3,179 192.1,428.7 263.5,393.3 "/>
<polygon class="st1" points="373,83.3 224.6,83.3 224.6,379 438.7,379 438.7,155.1 "/>
<g>
	
		<linearGradient id="SVGID_1_" gradientUnits="userSpaceOnUse" x1="286.8777" y1="499.0432" x2="331.65" y2="499.0432" gradientTransform="matrix(1 0 0 1 0 -330)">
		<stop  offset="0" style="stop-color:#F96943"/>
		<stop  offset="0.45" style="stop-color:#F46640"/>
		<stop  offset="1" style="stop-color:#E55D38"/>
	</linearGradient>
	<path class="st2" d="M331.6,168l-23.1-16.3h-18.1c-1.8-0.1-3.4,1.1-3.5,3v18.5l18.6,13L331.6,168z"/>
	
		<linearGradient id="SVGID_00000093883362204009999360000000633486931938509470_" gradientUnits="userSpaceOnUse" x1="335.3033" y1="609.4667" x2="376.4979" y2="609.4667" gradientTransform="matrix(1 0 0 1 0 -330)">
		<stop  offset="0" style="stop-color:#CE4E2C"/>
		<stop  offset="1" style="stop-color:#CE4E2C"/>
	</linearGradient>
	<path style="fill:url(#SVGID_00000093883362204009999360000000633486931938509470_);" d="M335.3,281.7l20,14H373
		c0.5,0,1-0.1,1.5-0.3c0.4-0.1,0.8-0.4,1-0.6l0,0c0.6-0.5,1-1.3,1-2.1v-18.9l-15-10.5L335.3,281.7z"/>
	<path class="st4" d="M376.5,154.2v19.1l-81,56.7c-5.4,4.3-8.7,10.8-8.7,17.8v-48.4l68-47.6h18.3C374.6,151.8,376,152.7,376.5,154.2
		z"/>
	
		<linearGradient id="SVGID_00000037690020659262621990000001440636638637648054_" gradientUnits="userSpaceOnUse" x1="335.3033" y1="536.2108" x2="376.4475" y2="536.2108" gradientTransform="matrix(1 0 0 1 0 -330)">
		<stop  offset="0" style="stop-color:#E05935"/>
		<stop  offset="1" style="stop-color:#CE4E2C"/>
	</linearGradient>
	<path style="fill:url(#SVGID_00000037690020659262621990000001440636638637648054_);" d="M358.7,223.6l8.6-6l0,0
		c5.8-4.3,9.2-11.1,9.2-18.3l-15-10.5l-26.2,18.4L358.7,223.6z"/>
	
		<linearGradient id="SVGID_00000157302368110860312400000014795870859922750615_" gradientUnits="userSpaceOnUse" x1="287.3059" y1="573.5001" x2="331.65" y2="573.5001" gradientTransform="matrix(1 0 0 1 0 -330)">
		<stop  offset="0" style="stop-color:#F96943"/>
		<stop  offset="0.46" style="stop-color:#F46640"/>
		<stop  offset="1" style="stop-color:#E55C38"/>
	</linearGradient>
	<path style="fill:url(#SVGID_00000157302368110860312400000014795870859922750615_);" d="M331.6,242.5l-23.4-16.4l-12.7,8.9
		c-4.2,3.3-7.1,7.9-8.2,13.1l18.1,12.7L331.6,242.5z"/>
	<path class="st4" d="M367.3,217.5L367.3,217.5l-80.4,56.3v36.7l89.6-62.7v-48.5C376.5,206.6,373.1,213.3,367.3,217.5z"/>
</g>
</svg>
