<svg id="b5f10611-506e-4c9f-b046-afeac8dfaff1" data-name="Ebene 1" xmlns="http://www.w3.org/2000/svg" viewBox="0 0 512 512"><defs><style>.b1445a6b-8cd2-4eb4-b86a-90ed2ab3bfce,.bd3a5c96-32a6-4408-afb4-cb50d1ff4d38,.f681620c-9431-4eff-ba30-43b22d47a6af{fill:none;stroke-width:12px;}.f681620c-9431-4eff-ba30-43b22d47a6af{stroke:#8c145a;stroke-miterlimit:10;}.bd5010bc-1628-404d-b518-daa2b912a26b{fill:#8c145a;}.b1445a6b-8cd2-4eb4-b86a-90ed2ab3bfce,.bd3a5c96-32a6-4408-afb4-cb50d1ff4d38{stroke:#f05a28;stroke-linejoin:round;}.bd3a5c96-32a6-4408-afb4-cb50d1ff4d38{stroke-linecap:round;}</style></defs><path class="f681620c-9431-4eff-ba30-43b22d47a6af" d="M174.12,213.84c-1-22.21,2-17.66,23.44-23.48a13.38,13.38,0,0,0,9.93-14.27h0a13.36,13.36,0,0,0-16.68-11.52c-33.07,8.51-44.41,15.36-42.86,50.83"/><path class="f681620c-9431-4eff-ba30-43b22d47a6af" d="M364.24,217.24V146.55a2.89,2.89,0,0,0-4.86-2.1L334.27,168a45.88,45.88,0,0,0-16.17-2.92h0A45.82,45.82,0,0,0,301.94,168L278.1,144.45a2.88,2.88,0,0,0-4.85,2.1v68.94"/><polygon class="bd5010bc-1628-404d-b518-daa2b912a26b" points="368.45 152.06 366.39 153.75 366.62 156.41 364.37 154.97 361.91 156.01 362.58 153.43 360.83 151.41 363.5 151.25 364.88 148.97 365.85 151.45 368.45 152.06"/><polygon class="bd5010bc-1628-404d-b518-daa2b912a26b" points="155.97 178.5 158.03 180.19 157.8 182.85 160.05 181.41 162.5 182.45 161.83 179.87 163.58 177.85 160.92 177.69 159.54 175.41 158.56 177.89 155.97 178.5"/><polyline class="b1445a6b-8cd2-4eb4-b86a-90ed2ab3bfce" points="103.95 216.54 255.75 216.54 255.75 368.34 103.95 368.34 103.95 300.03"/><polygon class="bd3a5c96-32a6-4408-afb4-cb50d1ff4d38" points="217.8 300.64 66 300.64 103.95 216.54 255.75 216.54 217.8 300.64"/><polyline class="b1445a6b-8cd2-4eb4-b86a-90ed2ab3bfce" points="408.05 216.54 256.25 216.54 256.25 368.34 408.05 368.34 408.05 300.03"/><polygon class="bd3a5c96-32a6-4408-afb4-cb50d1ff4d38" points="294.2 300.64 446 300.64 408.05 216.54 256.25 216.54 294.2 300.64"/></svg>