<svg id="ab9fd3c8-ea32-474e-8da8-43cac72f2790" data-name="Ebene 1" xmlns="http://www.w3.org/2000/svg" xmlns:xlink="http://www.w3.org/1999/xlink" viewBox="0 0 900 380"><defs><style>.e12c6bc4-5226-4490-8689-926e3337f9bc{fill:url(#a63540f0-13b0-4c67-98b7-142f6df2e9f2);}.f0b5c975-6518-4ef5-a21b-9512529a211e{fill:#8d175b;}</style><linearGradient id="a63540f0-13b0-4c67-98b7-142f6df2e9f2" x1="672.84" y1="184.7" x2="858.62" y2="184.7" gradientUnits="userSpaceOnUse"><stop offset="0.24" stop-color="#ed6947"/><stop offset="0.78" stop-color="#cf4f2d"/></linearGradient></defs><path class="e12c6bc4-5226-4490-8689-926e3337f9bc" d="M773.18,74.27l-54.3,38-46-32.24V41.61c0-3.39,3.33-6.14,7.42-6.14h37.51Zm85.44,59.82L827.49,112.3l-54.3,38,48.6,34,36.83,25.79ZM717.11,189.58l-26.39,18.48a47.11,47.11,0,0,0-16.94,27.22l45.1,31.58,54.3-38Zm110.38,77.28-54.3,38,41.47,29h36.48a8.26,8.26,0,0,0,3.1-.58,6.87,6.87,0,0,0,2.12-1.2l0,0a5.62,5.62,0,0,0,2.18-4.34V288.62Z"/><path class="f0b5c975-6518-4ef5-a21b-9512529a211e" d="M839.58,171.88l-.09.07L672.78,288.68v76.05L858.62,234.6V134.09A47,47,0,0,1,839.58,171.88Z"/><path class="f0b5c975-6518-4ef5-a21b-9512529a211e" d="M858.62,40.33V80L690.72,197.6a46.93,46.93,0,0,0-17.94,36.92V134.11l141-98.73h37.8C855.09,35.47,858,37.57,858.62,40.33Z"/><path class="f0b5c975-6518-4ef5-a21b-9512529a211e" d="M293,41.47V327.23a6.11,6.11,0,0,1-1.77,4.34l0,0a5.44,5.44,0,0,1-1.72,1.2,5.67,5.67,0,0,1-2.53.58H248.29a6.09,6.09,0,0,1-6-6.14V41.47a6.1,6.1,0,0,1,6-6.15h38.62A6.09,6.09,0,0,1,293,41.47Z"/><path class="f0b5c975-6518-4ef5-a21b-9512529a211e" d="M610.63,41.31v30.9a6,6,0,0,1-6,6l-74.82,0L553.55,95a3,3,0,0,1,1.27,2.45v230a6,6,0,0,1-6,6h-38a6,6,0,0,1-6-6V84.26a6,6,0,0,0-5.4-6l-.36,0H455a6,6,0,0,1-6-6V41.31a6,6,0,0,1,6-6H604.59A6,6,0,0,1,610.63,41.31Z"/><path class="f0b5c975-6518-4ef5-a21b-9512529a211e" d="M464.67,290.61H390.55l-.36,0a6,6,0,0,1-5.29-4.85l0-244.43a6,6,0,0,0-6-6H340.19a6,6,0,0,0-6,6V327.37a6,6,0,0,0,6,6l124.48.08a6,6,0,0,0,6-6v-30.8A6,6,0,0,0,464.67,290.61Z"/><path class="f0b5c975-6518-4ef5-a21b-9512529a211e" d="M211.49,324.51,133.25,182a6,6,0,0,1,0-5.78l72.6-132.12a6,6,0,0,0-5.29-8.85H156.75a6.06,6.06,0,0,0-5.29,3.09L92.08,146.45V41.31a6,6,0,0,0-6-6H47.42a6,6,0,0,0-6,6V327.38a6,6,0,0,0,6,6H86a6,6,0,0,0,6-6V261.43l-18-82.27,83,151.17a6,6,0,0,0,5.28,3.09h43.81a6,6,0,0,0,5.28-8.91Z"/></svg>