<?xml version="1.0" encoding="utf-8"?>
<!-- Generator: Adobe Illustrator 26.0.1, SVG Export Plug-In . SVG Version: 6.00 Build 0)  -->
<svg version="1.1" id="bf885f70-1e78-4ace-bae7-f51f6770f8f9"
	 xmlns="http://www.w3.org/2000/svg" xmlns:xlink="http://www.w3.org/1999/xlink" x="0px" y="0px" viewBox="0 0 512 512"
	 style="enable-background:new 0 0 512 512;" xml:space="preserve">
<style type="text/css">
	.st0{fill:none;stroke:#F05A28;stroke-width:8;stroke-linecap:round;stroke-miterlimit:10;}
	.st1{fill:none;stroke:#F05A28;stroke-width:8;stroke-miterlimit:10;}
	.st2{fill:url(#SVGID_1_);}
	.st3{fill:url(#SVGID_00000017495441864821195990000005920109032092357818_);}
	.st4{fill:#FFFFFF;}
	.st5{fill:url(#SVGID_00000006701128711021431170000002858282260177505711_);}
	.st6{fill:url(#SVGID_00000101063745731721502140000008797612497096615849_);}
</style>
<polyline class="st0" points="211,101.9 142.4,116.4 203.3,405.7 328.4,379.3 "/>
<polyline class="st0" points="132.6,150.8 73.3,179 192.1,428.7 263.5,393.3 "/>
<polygon class="st1" points="373,83.3 224.6,83.3 224.6,379 438.7,379 438.7,155.1 "/>
<g>
	
		<linearGradient id="SVGID_1_" gradientUnits="userSpaceOnUse" x1="301.6682" y1="36.6777" x2="331.6369" y2="36.6777" gradientTransform="matrix(1 0 0 1 0 157.8898)">
		<stop  offset="0" style="stop-color:#F96943"/>
		<stop  offset="0.45" style="stop-color:#F46640"/>
		<stop  offset="1" style="stop-color:#E55D38"/>
	</linearGradient>
	<path class="st2" d="M331.6,193.9L316.1,183h-12.1c-1.3,0-2.3,0.9-2.3,1.9v12.4l12.5,8.8L331.6,193.9z"/>
	
		<linearGradient id="SVGID_00000129181614620053080720000011323661311846572725_" gradientUnits="userSpaceOnUse" x1="334.0246" y1="110.7067" x2="361.5469" y2="110.7067" gradientTransform="matrix(1 0 0 1 0 157.8898)">
		<stop  offset="0" style="stop-color:#CE4E2C"/>
		<stop  offset="1" style="stop-color:#CE4E2C"/>
	</linearGradient>
	<path style="fill:url(#SVGID_00000129181614620053080720000011323661311846572725_);" d="M334,270l13.4,9.4h11.8
		c0.3,0,0.7-0.1,1-0.2c0.3-0.1,0.5-0.2,0.7-0.4l0,0c0.4-0.3,0.7-0.9,0.7-1.4v-12.6l-10-7L334,270z"/>
	<path class="st4" d="M361.7,184.6v12.8l-54.2,38c-3.7,2.9-5.8,7.2-5.8,11.9v-32.4l45.5-31.9h12.2
		C360.3,182.9,361.3,183.6,361.7,184.6z"/>
	
		<linearGradient id="SVGID_00000067215108623209141140000017750340304331176080_" gradientUnits="userSpaceOnUse" x1="334.0246" y1="61.5884" x2="361.5469" y2="61.5884" gradientTransform="matrix(1 0 0 1 0 157.8898)">
		<stop  offset="0" style="stop-color:#E05935"/>
		<stop  offset="1" style="stop-color:#CE4E2C"/>
	</linearGradient>
	<path style="fill:url(#SVGID_00000067215108623209141140000017750340304331176080_);" d="M349.7,231.1l5.7-4l0,0
		c3.9-2.9,6.2-7.4,6.2-12.2l-10-7L334,220.1L349.7,231.1L349.7,231.1z"/>
	
		<linearGradient id="SVGID_00000067933417715720452170000011853194649497203342_" gradientUnits="userSpaceOnUse" x1="301.926" y1="86.5326" x2="331.6581" y2="86.5326" gradientTransform="matrix(1 0 0 1 0 157.8898)">
		<stop  offset="0" style="stop-color:#F96943"/>
		<stop  offset="0.46" style="stop-color:#F46640"/>
		<stop  offset="1" style="stop-color:#E55C38"/>
	</linearGradient>
	<path style="fill:url(#SVGID_00000067933417715720452170000011853194649497203342_);" d="M331.6,243.8l-15.7-11l-8.6,6
		c-2.8,2.2-4.8,5.4-5.5,8.8l12.1,8.5L331.6,243.8z"/>
	<path class="st4" d="M355.5,227L355.5,227l-53.8,37.7v24.6l60-42v-32.4C361.7,219.6,359.3,224.2,355.5,227z"/>
</g>
</svg>
